%TF.GenerationSoftware,KiCad,Pcbnew,(6.0.4)*%
%TF.CreationDate,2023-06-02T21:12:55+02:00*%
%TF.ProjectId,Chrolis-LCR,4368726f-6c69-4732-9d4c-43522e6b6963,rev?*%
%TF.SameCoordinates,Original*%
%TF.FileFunction,Soldermask,Top*%
%TF.FilePolarity,Negative*%
%FSLAX46Y46*%
G04 Gerber Fmt 4.6, Leading zero omitted, Abs format (unit mm)*
G04 Created by KiCad (PCBNEW (6.0.4)) date 2023-06-02 21:12:55*
%MOMM*%
%LPD*%
G01*
G04 APERTURE LIST*
G04 Aperture macros list*
%AMRoundRect*
0 Rectangle with rounded corners*
0 $1 Rounding radius*
0 $2 $3 $4 $5 $6 $7 $8 $9 X,Y pos of 4 corners*
0 Add a 4 corners polygon primitive as box body*
4,1,4,$2,$3,$4,$5,$6,$7,$8,$9,$2,$3,0*
0 Add four circle primitives for the rounded corners*
1,1,$1+$1,$2,$3*
1,1,$1+$1,$4,$5*
1,1,$1+$1,$6,$7*
1,1,$1+$1,$8,$9*
0 Add four rect primitives between the rounded corners*
20,1,$1+$1,$2,$3,$4,$5,0*
20,1,$1+$1,$4,$5,$6,$7,0*
20,1,$1+$1,$6,$7,$8,$9,0*
20,1,$1+$1,$8,$9,$2,$3,0*%
G04 Aperture macros list end*
%ADD10R,3.200000X3.200000*%
%ADD11O,3.200000X3.200000*%
%ADD12R,2.000000X1.905000*%
%ADD13O,2.000000X1.905000*%
%ADD14R,2.400000X1.600000*%
%ADD15O,2.400000X1.600000*%
%ADD16C,1.600000*%
%ADD17O,1.600000X1.600000*%
%ADD18R,1.800000X1.800000*%
%ADD19C,1.800000*%
%ADD20R,1.600000X1.600000*%
%ADD21R,1.500000X1.500000*%
%ADD22C,1.500000*%
%ADD23C,1.850000*%
%ADD24R,0.750000X1.750000*%
%ADD25C,3.000000*%
%ADD26RoundRect,0.250000X-0.725000X0.600000X-0.725000X-0.600000X0.725000X-0.600000X0.725000X0.600000X0*%
%ADD27O,1.950000X1.700000*%
%ADD28O,2.499360X1.600200*%
%ADD29O,7.000240X3.500120*%
%ADD30O,1.800000X1.800000*%
%ADD31C,2.000000*%
G04 APERTURE END LIST*
D10*
%TO.C,D7*%
X139800000Y-53950000D03*
D11*
X155040000Y-53950000D03*
%TD*%
D12*
%TO.C,Q7*%
X154800000Y-130350000D03*
D13*
X154800000Y-132890000D03*
X154800000Y-135430000D03*
%TD*%
D12*
%TO.C,Q6*%
X154800000Y-117850000D03*
D13*
X154800000Y-120390000D03*
X154800000Y-122930000D03*
%TD*%
D12*
%TO.C,Q5*%
X154800000Y-105350000D03*
D13*
X154800000Y-107890000D03*
X154800000Y-110430000D03*
%TD*%
D12*
%TO.C,Q4*%
X154800000Y-92850000D03*
D13*
X154800000Y-95390000D03*
X154800000Y-97930000D03*
%TD*%
D12*
%TO.C,Q3*%
X154800000Y-80350000D03*
D13*
X154800000Y-82890000D03*
X154800000Y-85430000D03*
%TD*%
D12*
%TO.C,Q2*%
X154800000Y-67850000D03*
D13*
X154800000Y-70390000D03*
X154800000Y-72930000D03*
%TD*%
D14*
%TO.C,U6*%
X132300000Y-82730000D03*
D15*
X132300000Y-85270000D03*
X132300000Y-87810000D03*
X132300000Y-90350000D03*
X132300000Y-92890000D03*
X132300000Y-95430000D03*
X132300000Y-97970000D03*
X139920000Y-97970000D03*
X139920000Y-95430000D03*
X139920000Y-92890000D03*
X139920000Y-90350000D03*
X139920000Y-87810000D03*
X139920000Y-85270000D03*
X139920000Y-82730000D03*
%TD*%
D14*
%TO.C,U5*%
X132300000Y-62730000D03*
D15*
X132300000Y-65270000D03*
X132300000Y-67810000D03*
X132300000Y-70350000D03*
X132300000Y-72890000D03*
X132300000Y-75430000D03*
X132300000Y-77970000D03*
X139920000Y-77970000D03*
X139920000Y-75430000D03*
X139920000Y-72890000D03*
X139920000Y-70350000D03*
X139920000Y-67810000D03*
X139920000Y-65270000D03*
X139920000Y-62730000D03*
%TD*%
D16*
%TO.C,R13*%
X79780000Y-78350000D03*
D17*
X95020000Y-78350000D03*
%TD*%
D16*
%TO.C,R4*%
X84800000Y-120350000D03*
D17*
X84800000Y-105110000D03*
%TD*%
D14*
%TO.C,U3*%
X112300000Y-102730000D03*
D15*
X112300000Y-105270000D03*
X112300000Y-107810000D03*
X112300000Y-110350000D03*
X112300000Y-112890000D03*
X112300000Y-115430000D03*
X112300000Y-117970000D03*
X119920000Y-117970000D03*
X119920000Y-115430000D03*
X119920000Y-112890000D03*
X119920000Y-110350000D03*
X119920000Y-107810000D03*
X119920000Y-105270000D03*
X119920000Y-102730000D03*
%TD*%
D18*
%TO.C,D6*%
X129475000Y-135350000D03*
D19*
X126935000Y-135350000D03*
%TD*%
D16*
%TO.C,R3*%
X79800000Y-120350000D03*
D17*
X79800000Y-105110000D03*
%TD*%
D16*
%TO.C,R10*%
X95000000Y-86350000D03*
D17*
X79760000Y-86350000D03*
%TD*%
D14*
%TO.C,U2*%
X112300000Y-82730000D03*
D15*
X112300000Y-85270000D03*
X112300000Y-87810000D03*
X112300000Y-90350000D03*
X112300000Y-92890000D03*
X112300000Y-95430000D03*
X112300000Y-97970000D03*
X119920000Y-97970000D03*
X119920000Y-95430000D03*
X119920000Y-92890000D03*
X119920000Y-90350000D03*
X119920000Y-87810000D03*
X119920000Y-85270000D03*
X119920000Y-82730000D03*
%TD*%
D20*
%TO.C,C2*%
X123300000Y-56400000D03*
D16*
X125800000Y-56400000D03*
%TD*%
D18*
%TO.C,D1*%
X62600000Y-135350000D03*
D19*
X60060000Y-135350000D03*
%TD*%
D16*
%TO.C,R9*%
X79780000Y-82350000D03*
D17*
X95020000Y-82350000D03*
%TD*%
D16*
%TO.C,R1*%
X69800000Y-120350000D03*
D17*
X69800000Y-105110000D03*
%TD*%
D21*
%TO.C,Q0*%
X109800000Y-126350000D03*
D22*
X107260000Y-126350000D03*
X104720000Y-126350000D03*
%TD*%
D16*
%TO.C,R8*%
X104800000Y-120350000D03*
D17*
X104800000Y-105110000D03*
%TD*%
D16*
%TO.C,R5*%
X89800000Y-120350000D03*
D17*
X89800000Y-105110000D03*
%TD*%
D23*
%TO.C,SW1*%
X67100000Y-135050000D03*
X72500000Y-135050000D03*
D24*
X67260000Y-127430000D03*
X69800000Y-127430000D03*
X72340000Y-127430000D03*
X67260000Y-129970000D03*
X69800000Y-129970000D03*
X72340000Y-129970000D03*
%TD*%
D25*
%TO.C,H1*%
X64800000Y-60350000D03*
%TD*%
D16*
%TO.C,R12*%
X79780000Y-74350000D03*
D17*
X95020000Y-74350000D03*
%TD*%
D20*
%TO.C,C1*%
X154750000Y-45117621D03*
D16*
X154750000Y-47617621D03*
%TD*%
D25*
%TO.C,H3*%
X64800000Y-120350000D03*
%TD*%
D16*
%TO.C,R15*%
X79730000Y-94350000D03*
D17*
X94970000Y-94350000D03*
%TD*%
D18*
%TO.C,D3*%
X104475000Y-135350000D03*
D19*
X101935000Y-135350000D03*
%TD*%
D18*
%TO.C,D5*%
X112600000Y-135350000D03*
D19*
X110060000Y-135350000D03*
%TD*%
D25*
%TO.C,H4*%
X144800000Y-120350000D03*
%TD*%
D26*
%TO.C,J2*%
X54650000Y-85350000D03*
D27*
X54650000Y-87850000D03*
X54650000Y-90350000D03*
X54650000Y-92850000D03*
X54650000Y-95350000D03*
X54650000Y-97850000D03*
X54650000Y-100350000D03*
X54650000Y-102850000D03*
X54650000Y-105350000D03*
X54650000Y-107850000D03*
X54650000Y-110350000D03*
X54650000Y-112850000D03*
X54650000Y-115350000D03*
X54650000Y-117850000D03*
%TD*%
D25*
%TO.C,H2*%
X144800000Y-60350000D03*
%TD*%
D23*
%TO.C,SW3*%
X122500000Y-135050000D03*
X117100000Y-135050000D03*
D24*
X117260000Y-127430000D03*
X119800000Y-127430000D03*
X122340000Y-127430000D03*
X117260000Y-129970000D03*
X119800000Y-129970000D03*
X122340000Y-129970000D03*
%TD*%
D14*
%TO.C,U1*%
X112300000Y-62730000D03*
D15*
X112300000Y-65270000D03*
X112300000Y-67810000D03*
X112300000Y-70350000D03*
X112300000Y-72890000D03*
X112300000Y-75430000D03*
X112300000Y-77970000D03*
X119920000Y-77970000D03*
X119920000Y-75430000D03*
X119920000Y-72890000D03*
X119920000Y-70350000D03*
X119920000Y-67810000D03*
X119920000Y-65270000D03*
X119920000Y-62730000D03*
%TD*%
D26*
%TO.C,J3*%
X64800000Y-84150000D03*
D27*
X64800000Y-86650000D03*
X64800000Y-89150000D03*
X64800000Y-91650000D03*
X64800000Y-94150000D03*
X64800000Y-96650000D03*
%TD*%
D21*
%TO.C,Q1*%
X84800000Y-126350000D03*
D22*
X82260000Y-126350000D03*
X79720000Y-126350000D03*
%TD*%
D16*
%TO.C,R16*%
X79750000Y-90350000D03*
D17*
X94990000Y-90350000D03*
%TD*%
D28*
%TO.C,J1*%
X57201260Y-60350000D03*
D29*
X52936600Y-55249680D03*
D28*
X57201260Y-62849360D03*
D29*
X52936600Y-65447780D03*
%TD*%
D18*
%TO.C,U0*%
X139750000Y-48800000D03*
D30*
X141450000Y-45100000D03*
X143150000Y-48800000D03*
X144850000Y-45100000D03*
X146550000Y-48800000D03*
%TD*%
D16*
%TO.C,R7*%
X99800000Y-120350000D03*
D17*
X99800000Y-105110000D03*
%TD*%
D16*
%TO.C,R2*%
X74800000Y-120350000D03*
D17*
X74800000Y-105110000D03*
%TD*%
D18*
%TO.C,D2*%
X79475000Y-135350000D03*
D19*
X76935000Y-135350000D03*
%TD*%
D16*
%TO.C,R6*%
X94800000Y-120350000D03*
D17*
X94800000Y-105110000D03*
%TD*%
D18*
%TO.C,D4*%
X87600000Y-135350000D03*
D19*
X85060000Y-135350000D03*
%TD*%
D31*
%TO.C,L1*%
X124750000Y-45100000D03*
X124750000Y-49100000D03*
%TD*%
D14*
%TO.C,U4*%
X132300000Y-102730000D03*
D15*
X132300000Y-105270000D03*
X132300000Y-107810000D03*
X132300000Y-110350000D03*
X132300000Y-112890000D03*
X132300000Y-115430000D03*
X132300000Y-117970000D03*
X139920000Y-117970000D03*
X139920000Y-115430000D03*
X139920000Y-112890000D03*
X139920000Y-110350000D03*
X139920000Y-107810000D03*
X139920000Y-105270000D03*
X139920000Y-102730000D03*
%TD*%
D23*
%TO.C,SW2*%
X97500000Y-135050000D03*
X92100000Y-135050000D03*
D24*
X92260000Y-127430000D03*
X94800000Y-127430000D03*
X97340000Y-127430000D03*
X92260000Y-129970000D03*
X94800000Y-129970000D03*
X97340000Y-129970000D03*
%TD*%
M02*
