M48
; DRILL file {KiCad (6.0.4)} date Fri Jun  2 21:12:59 2023
; FORMAT={-:-/ absolute / inch / decimal}
; #@! TF.CreationDate,2023-06-02T21:12:59+02:00
; #@! TF.GenerationSoftware,Kicad,Pcbnew,(6.0.4)
; #@! TF.FileFunction,Plated,1,2,PTH
FMAT,2
INCH
; #@! TA.AperFunction,Plated,PTH,ViaDrill
T1C0.0157
; #@! TA.AperFunction,Plated,PTH,ComponentDrill
T2C0.0217
; #@! TA.AperFunction,Plated,PTH,ComponentDrill
T3C0.0315
; #@! TA.AperFunction,Plated,PTH,ComponentDrill
T4C0.0354
; #@! TA.AperFunction,Plated,PTH,ComponentDrill
T5C0.0374
; #@! TA.AperFunction,Plated,PTH,ComponentDrill
T6C0.0394
; #@! TA.AperFunction,Plated,PTH,ComponentDrill
T7C0.0394
; #@! TA.AperFunction,Plated,PTH,ComponentDrill
T8C0.0433
; #@! TA.AperFunction,Plated,PTH,ComponentDrill
T9C0.0630
; #@! TA.AperFunction,Plated,PTH,ComponentDrill
T10C0.0728
; #@! TA.AperFunction,Plated,PTH,ComponentDrill
T11C0.0866
%
G90
G05
T1
X2.8366Y-3.1535
X2.8376Y-3.7313
X2.9213Y-3.1673
X2.9213Y-3.7579
X3.2638Y-4.0161
X3.4331Y-3.55
X3.5886Y-3.0039
X3.7409Y-2.1189
X3.9232Y-3.0039
X4.2992Y-3.8917
X4.3091Y-2.0866
X4.6161Y-4.2067
X4.6378Y-2.0512
X4.7618Y-4.8858
X4.8598Y-2.6697
X4.8598Y-3.4563
X5.7028Y-2.1142
X5.8969Y-4.8398
X5.937Y-3.5079
X6.1831Y-3.2205
X6.2539Y-3.6555
T3
X2.748Y-4.1382
X2.748Y-4.7382
X2.9449Y-4.1382
X2.9449Y-4.7382
X3.1386Y-4.9744
X3.139Y-3.7146
X3.1398Y-3.5571
X3.1402Y-3.3996
X3.1409Y-2.9272
X3.1409Y-3.0846
X3.1409Y-3.2421
X3.1417Y-4.1382
X3.1417Y-4.7382
X3.2386Y-4.9744
X3.3386Y-4.1382
X3.3386Y-4.7382
X3.3386Y-4.9744
X3.5354Y-4.1382
X3.5354Y-4.7382
X3.7323Y-4.1382
X3.7323Y-4.7382
X3.739Y-3.7146
X3.7398Y-3.5571
X3.7402Y-3.3996
X3.7409Y-2.9272
X3.7409Y-3.0846
X3.7409Y-3.2421
X3.9291Y-4.1382
X3.9291Y-4.7382
X4.1228Y-4.9744
X4.126Y-4.1382
X4.126Y-4.7382
X4.2228Y-4.9744
X4.3228Y-4.9744
X4.4213Y-2.4697
X4.4213Y-2.5697
X4.4213Y-2.6697
X4.4213Y-2.7697
X4.4213Y-2.8697
X4.4213Y-2.9697
X4.4213Y-3.0697
X4.4213Y-3.2571
X4.4213Y-3.3571
X4.4213Y-3.4571
X4.4213Y-3.5571
X4.4213Y-3.6571
X4.4213Y-3.7571
X4.4213Y-3.8571
X4.4213Y-4.0445
X4.4213Y-4.1445
X4.4213Y-4.2445
X4.4213Y-4.3445
X4.4213Y-4.4445
X4.4213Y-4.5445
X4.4213Y-4.6445
X4.7213Y-2.4697
X4.7213Y-2.5697
X4.7213Y-2.6697
X4.7213Y-2.7697
X4.7213Y-2.8697
X4.7213Y-2.9697
X4.7213Y-3.0697
X4.7213Y-3.2571
X4.7213Y-3.3571
X4.7213Y-3.4571
X4.7213Y-3.5571
X4.7213Y-3.6571
X4.7213Y-3.7571
X4.7213Y-3.8571
X4.7213Y-4.0445
X4.7213Y-4.1445
X4.7213Y-4.2445
X4.7213Y-4.3445
X4.7213Y-4.4445
X4.7213Y-4.5445
X4.7213Y-4.6445
X4.8543Y-2.2205
X4.9528Y-2.2205
X5.2087Y-2.4697
X5.2087Y-2.5697
X5.2087Y-2.6697
X5.2087Y-2.7697
X5.2087Y-2.8697
X5.2087Y-2.9697
X5.2087Y-3.0697
X5.2087Y-3.2571
X5.2087Y-3.3571
X5.2087Y-3.4571
X5.2087Y-3.5571
X5.2087Y-3.6571
X5.2087Y-3.7571
X5.2087Y-3.8571
X5.2087Y-4.0445
X5.2087Y-4.1445
X5.2087Y-4.2445
X5.2087Y-4.3445
X5.2087Y-4.4445
X5.2087Y-4.5445
X5.2087Y-4.6445
X5.5087Y-2.4697
X5.5087Y-2.5697
X5.5087Y-2.6697
X5.5087Y-2.7697
X5.5087Y-2.8697
X5.5087Y-2.9697
X5.5087Y-3.0697
X5.5087Y-3.2571
X5.5087Y-3.3571
X5.5087Y-3.4571
X5.5087Y-3.5571
X5.5087Y-3.6571
X5.5087Y-3.7571
X5.5087Y-3.8571
X5.5087Y-4.0445
X5.5087Y-4.1445
X5.5087Y-4.2445
X5.5087Y-4.3445
X5.5087Y-4.4445
X5.5087Y-4.5445
X5.5087Y-4.6445
X6.0925Y-1.7763
X6.0925Y-1.8747
T4
X2.3646Y-5.3287
X2.4646Y-5.3287
X3.0289Y-5.3287
X3.1289Y-5.3287
X3.3488Y-5.3287
X3.4488Y-5.3287
X4.0132Y-5.3287
X4.1132Y-5.3287
X4.3331Y-5.3287
X4.4331Y-5.3287
X4.9974Y-5.3287
X5.0974Y-5.3287
T5
X2.1516Y-3.3602
X2.1516Y-3.4587
X2.1516Y-3.5571
X2.1516Y-3.6555
X2.1516Y-3.7539
X2.1516Y-3.8524
X2.1516Y-3.9508
X2.1516Y-4.0492
X2.1516Y-4.1476
X2.1516Y-4.2461
X2.1516Y-4.3445
X2.1516Y-4.4429
X2.1516Y-4.5413
X2.1516Y-4.6398
X2.5512Y-3.313
X2.5512Y-3.4114
X2.5512Y-3.5098
X2.5512Y-3.6083
X2.5512Y-3.7067
X2.5512Y-3.8051
T6
X4.9114Y-1.7756
X4.9114Y-1.9331
T7
X2.252Y-2.376
X2.252Y-2.4744
T8
X5.502Y-1.9213
X5.5689Y-1.7756
X5.6358Y-1.9213
X5.7028Y-1.7756
X5.7697Y-1.9213
X6.0945Y-2.6713
X6.0945Y-2.7713
X6.0945Y-2.8713
X6.0945Y-3.1634
X6.0945Y-3.2634
X6.0945Y-3.3634
X6.0945Y-3.6555
X6.0945Y-3.7555
X6.0945Y-3.8555
X6.0945Y-4.1476
X6.0945Y-4.2476
X6.0945Y-4.3476
X6.0945Y-4.6398
X6.0945Y-4.7398
X6.0945Y-4.8398
X6.0945Y-5.1319
X6.0945Y-5.2319
X6.0945Y-5.3319
T9
X5.5039Y-2.124
X6.1039Y-2.124
T10
X2.6417Y-5.3169
X2.8543Y-5.3169
X3.626Y-5.3169
X3.8386Y-5.3169
X4.6102Y-5.3169
X4.8228Y-5.3169
T11
X2.0841Y-2.1752
X2.0841Y-2.5767
T2
G00X2.648Y-4.9972
M15
G01X2.648Y-5.0366
M16
G05
G00X2.648Y-5.0972
M15
G01X2.648Y-5.1366
M16
G05
G00X2.748Y-4.9972
M15
G01X2.748Y-5.0366
M16
G05
G00X2.748Y-5.0972
M15
G01X2.748Y-5.1366
M16
G05
G00X2.848Y-4.9972
M15
G01X2.848Y-5.0366
M16
G05
G00X2.848Y-5.0972
M15
G01X2.848Y-5.1366
M16
G05
G00X3.6323Y-4.9972
M15
G01X3.6323Y-5.0366
M16
G05
G00X3.6323Y-5.0972
M15
G01X3.6323Y-5.1366
M16
G05
G00X3.7323Y-4.9972
M15
G01X3.7323Y-5.0366
M16
G05
G00X3.7323Y-5.0972
M15
G01X3.7323Y-5.1366
M16
G05
G00X3.8323Y-4.9972
M15
G01X3.8323Y-5.0366
M16
G05
G00X3.8323Y-5.0972
M15
G01X3.8323Y-5.1366
M16
G05
G00X4.6165Y-4.9972
M15
G01X4.6165Y-5.0366
M16
G05
G00X4.6165Y-5.0972
M15
G01X4.6165Y-5.1366
M16
G05
G00X4.7165Y-4.9972
M15
G01X4.7165Y-5.0366
M16
G05
G00X4.7165Y-5.0972
M15
G01X4.7165Y-5.1366
M16
G05
G00X4.8165Y-4.9972
M15
G01X4.8165Y-5.0366
M16
G05
G00X4.8165Y-5.0972
M15
G01X4.8165Y-5.1366
M16
G05
T0
M30
