  0
SECTION
  2
BLOCKS
  0
ENDSEC
  0
SECTION
  2
ENTITIES
  0
LINE
  8
0
 10
114.52
 20
-40
 11
114.52
 21
-37
  0
LINE
  8
0
 10
114.52
 20
-37
 11
120.4
 21
-37
  0
LINE
  8
0
 10
120.4
 20
-37
 11
120.4
 21
-29.5
  0
LINE
  8
0
 10
120.4
 20
-29.5
 11
123.5
 21
-29.5
  0
LINE
  8
0
 10
123.5
 20
-29.5
 11
123.5
 21
-22
  0
LINE
  8
0
 10
123.5
 20
-22
 11
120.4
 21
-22
  0
LINE
  8
0
 10
120.4
 20
-22
 11
120.4
 21
-14.5
  0
LINE
  8
0
 10
120.4
 20
-14.5
 11
123.5
 21
-14.5
  0
LINE
  8
0
 10
123.5
 20
-14.5
 11
123.5
 21
-7
  0
LINE
  8
0
 10
123.5
 20
-7
 11
120.4
 21
-7
  0
LINE
  8
0
 10
120.4
 20
-7
 11
120.4
 21
0.5
  0
LINE
  8
0
 10
120.4
 20
0.5
 11
123.5
 21
0.5
  0
LINE
  8
0
 10
123.5
 20
0.5
 11
123.5
 21
8
  0
LINE
  8
0
 10
123.5
 20
8
 11
114.52
 21
8
  0
LINE
  8
0
 10
114.52
 20
8
 11
114.52
 21
11
  0
LINE
  8
0
 10
114.52
 20
11
 11
100.409
 21
11
  0
LINE
  8
0
 10
100.409
 20
11
 11
100.409
 21
8
  0
LINE
  8
0
 10
100.409
 20
8
 11
91.4293
 21
8
  0
LINE
  8
0
 10
91.4293
 20
8
 11
91.4293
 21
11
  0
LINE
  8
0
 10
91.4293
 20
11
 11
77.3182
 21
11
  0
LINE
  8
0
 10
77.3182
 20
11
 11
77.3182
 21
8
  0
LINE
  8
0
 10
77.3182
 20
8
 11
68.3384
 21
8
  0
LINE
  8
0
 10
68.3384
 20
8
 11
68.3384
 21
11
  0
LINE
  8
0
 10
68.3384
 20
11
 11
54.2273
 21
11
  0
LINE
  8
0
 10
54.2273
 20
11
 11
54.2273
 21
8
  0
LINE
  8
0
 10
54.2273
 20
8
 11
45.2475
 21
8
  0
LINE
  8
0
 10
45.2475
 20
8
 11
45.2475
 21
11
  0
LINE
  8
0
 10
45.2475
 20
11
 11
31.1364
 21
11
  0
LINE
  8
0
 10
31.1364
 20
11
 11
31.1364
 21
8
  0
LINE
  8
0
 10
31.1364
 20
8
 11
22.1566
 21
8
  0
LINE
  8
0
 10
22.1566
 20
8
 11
22.1566
 21
11
  0
LINE
  8
0
 10
22.1566
 20
11
 11
8.04544
 21
11
  0
LINE
  8
0
 10
8.04544
 20
11
 11
8.04544
 21
8
  0
LINE
  8
0
 10
8.04544
 20
8
 11
-3.5
 21
8
  0
LINE
  8
0
 10
-3.5
 20
8
 11
-3.5
 21
0.5
  0
LINE
  8
0
 10
-3.5
 20
0.5
 11
-0.399994
 21
0.5
  0
LINE
  8
0
 10
-0.399994
 20
0.5
 11
-0.399994
 21
-7
  0
LINE
  8
0
 10
-0.399994
 20
-7
 11
-3.5
 21
-7
  0
LINE
  8
0
 10
-3.5
 20
-7
 11
-3.5
 21
-14.5
  0
LINE
  8
0
 10
-3.5
 20
-14.5
 11
-0.399994
 21
-14.5
  0
LINE
  8
0
 10
-0.399994
 20
-14.5
 11
-0.399994
 21
-22
  0
LINE
  8
0
 10
-0.399994
 20
-22
 11
-3.5
 21
-22
  0
LINE
  8
0
 10
-3.5
 20
-22
 11
-3.5
 21
-29.5
  0
LINE
  8
0
 10
-3.5
 20
-29.5
 11
-0.399994
 21
-29.5
  0
LINE
  8
0
 10
-0.399994
 20
-29.5
 11
-0.399994
 21
-37
  0
LINE
  8
0
 10
-0.399994
 20
-37
 11
8.04544
 21
-37
  0
LINE
  8
0
 10
8.04544
 20
-37
 11
8.04544
 21
-40
  0
LINE
  8
0
 10
8.04544
 20
-40
 11
22.1566
 21
-40
  0
LINE
  8
0
 10
22.1566
 20
-40
 11
22.1566
 21
-37
  0
LINE
  8
0
 10
22.1566
 20
-37
 11
31.1364
 21
-37
  0
LINE
  8
0
 10
31.1364
 20
-37
 11
31.1364
 21
-40
  0
LINE
  8
0
 10
31.1364
 20
-40
 11
45.2475
 21
-40
  0
LINE
  8
0
 10
45.2475
 20
-40
 11
45.2475
 21
-37
  0
LINE
  8
0
 10
45.2475
 20
-37
 11
54.2273
 21
-37
  0
LINE
  8
0
 10
54.2273
 20
-37
 11
54.2273
 21
-40
  0
LINE
  8
0
 10
54.2273
 20
-40
 11
68.3384
 21
-40
  0
LINE
  8
0
 10
68.3384
 20
-40
 11
68.3384
 21
-37
  0
LINE
  8
0
 10
68.3384
 20
-37
 11
77.3182
 21
-37
  0
LINE
  8
0
 10
77.3182
 20
-37
 11
77.3182
 21
-40
  0
LINE
  8
0
 10
77.3182
 20
-40
 11
91.4293
 21
-40
  0
LINE
  8
0
 10
91.4293
 20
-40
 11
91.4293
 21
-37
  0
LINE
  8
0
 10
91.4293
 20
-37
 11
100.409
 21
-37
  0
LINE
  8
0
 10
100.409
 20
-37
 11
100.409
 21
-40
  0
LINE
  8
0
 10
100.409
 20
-40
 11
114.52
 21
-40
  0
LINE
  8
0
 10
66.29
 20
-30
 11
66.29
 21
-17.5
  0
LINE
  8
0
 10
66.29
 20
-17.5
 11
119.33
 21
-17.5
  0
LINE
  8
0
 10
119.33
 20
-17.5
 11
119.33
 21
-30
  0
LINE
  8
0
 10
119.33
 20
-30
 11
66.29
 21
-30
  0
ENDSEC
  0
SECTION
  2
OBJECTS
  0
DICTIONARY
  0
ENDSEC
  0
EOF
