  0
SECTION
  2
BLOCKS
  0
ENDSEC
  0
SECTION
  2
ENTITIES
  0
LINE
  8
0
 10
125.523
 20
-9.9726
 11
126.04
 21
-9.89073
  0
LINE
  8
0
 10
126.04
 20
-9.89073
 11
126.545
 21
-9.75528
  0
LINE
  8
0
 10
126.545
 20
-9.75528
 11
127.034
 21
-9.56772
  0
LINE
  8
0
 10
127.034
 20
-9.56772
 11
127.5
 21
-9.33012
  0
LINE
  8
0
 10
127.5
 20
-9.33012
 11
127.939
 21
-9.04507
  0
LINE
  8
0
 10
127.939
 20
-9.04507
 11
128.346
 21
-8.71571
  0
LINE
  8
0
 10
128.346
 20
-8.71571
 11
128.716
 21
-8.34564
  0
LINE
  8
0
 10
128.716
 20
-8.34564
 11
129.045
 21
-7.93892
  0
LINE
  8
0
 10
129.045
 20
-7.93892
 11
129.33
 21
-7.5
  0
LINE
  8
0
 10
129.33
 20
-7.5
 11
129.568
 21
-7.03368
  0
LINE
  8
0
 10
129.568
 20
-7.03368
 11
129.755
 21
-6.54507
  0
LINE
  8
0
 10
129.755
 20
-6.54507
 11
129.891
 21
-6.03955
  0
LINE
  8
0
 10
129.891
 20
-6.03955
 11
129.973
 21
-5.52263
  0
LINE
  8
0
 10
129.973
 20
-5.52263
 11
130
 21
-5
  0
LINE
  8
0
 10
130
 20
-5
 11
130
 21
105
  0
LINE
  8
0
 10
130
 20
105
 11
129.973
 21
105.523
  0
LINE
  8
0
 10
129.973
 20
105.523
 11
129.891
 21
106.04
  0
LINE
  8
0
 10
129.891
 20
106.04
 11
129.755
 21
106.545
  0
LINE
  8
0
 10
129.755
 20
106.545
 11
129.568
 21
107.034
  0
LINE
  8
0
 10
129.568
 20
107.034
 11
129.33
 21
107.5
  0
LINE
  8
0
 10
129.33
 20
107.5
 11
129.045
 21
107.939
  0
LINE
  8
0
 10
129.045
 20
107.939
 11
128.716
 21
108.346
  0
LINE
  8
0
 10
128.716
 20
108.346
 11
128.346
 21
108.716
  0
LINE
  8
0
 10
128.346
 20
108.716
 11
127.939
 21
109.045
  0
LINE
  8
0
 10
127.939
 20
109.045
 11
127.5
 21
109.33
  0
LINE
  8
0
 10
127.5
 20
109.33
 11
127.034
 21
109.568
  0
LINE
  8
0
 10
127.034
 20
109.568
 11
126.545
 21
109.755
  0
LINE
  8
0
 10
126.545
 20
109.755
 11
126.04
 21
109.891
  0
LINE
  8
0
 10
126.04
 20
109.891
 11
125.523
 21
109.973
  0
LINE
  8
0
 10
125.523
 20
109.973
 11
125
 21
110
  0
LINE
  8
0
 10
125
 20
110
 11
-5
 21
110
  0
LINE
  8
0
 10
-5
 20
110
 11
-5.52263
 21
109.973
  0
LINE
  8
0
 10
-5.52263
 20
109.973
 11
-6.03955
 21
109.891
  0
LINE
  8
0
 10
-6.03955
 20
109.891
 11
-6.54507
 21
109.755
  0
LINE
  8
0
 10
-6.54507
 20
109.755
 11
-7.03368
 21
109.568
  0
LINE
  8
0
 10
-7.03368
 20
109.568
 11
-7.5
 21
109.33
  0
LINE
  8
0
 10
-7.5
 20
109.33
 11
-7.93892
 21
109.045
  0
LINE
  8
0
 10
-7.93892
 20
109.045
 11
-8.34564
 21
108.716
  0
LINE
  8
0
 10
-8.34564
 20
108.716
 11
-8.71571
 21
108.346
  0
LINE
  8
0
 10
-8.71571
 20
108.346
 11
-9.04507
 21
107.939
  0
LINE
  8
0
 10
-9.04507
 20
107.939
 11
-9.33012
 21
107.5
  0
LINE
  8
0
 10
-9.33012
 20
107.5
 11
-9.56772
 21
107.034
  0
LINE
  8
0
 10
-9.56772
 20
107.034
 11
-9.75528
 21
106.545
  0
LINE
  8
0
 10
-9.75528
 20
106.545
 11
-9.89073
 21
106.04
  0
LINE
  8
0
 10
-9.89073
 20
106.04
 11
-9.9726
 21
105.523
  0
LINE
  8
0
 10
-9.9726
 20
105.523
 11
-10
 21
105
  0
LINE
  8
0
 10
-10
 20
105
 11
-10
 21
-5
  0
LINE
  8
0
 10
-10
 20
-5
 11
-9.9726
 21
-5.52263
  0
LINE
  8
0
 10
-9.9726
 20
-5.52263
 11
-9.89073
 21
-6.03955
  0
LINE
  8
0
 10
-9.89073
 20
-6.03955
 11
-9.75528
 21
-6.54507
  0
LINE
  8
0
 10
-9.75528
 20
-6.54507
 11
-9.56772
 21
-7.03368
  0
LINE
  8
0
 10
-9.56772
 20
-7.03368
 11
-9.33012
 21
-7.5
  0
LINE
  8
0
 10
-9.33012
 20
-7.5
 11
-9.04507
 21
-7.93892
  0
LINE
  8
0
 10
-9.04507
 20
-7.93892
 11
-8.71571
 21
-8.34564
  0
LINE
  8
0
 10
-8.71571
 20
-8.34564
 11
-8.34564
 21
-8.71571
  0
LINE
  8
0
 10
-8.34564
 20
-8.71571
 11
-7.93892
 21
-9.04507
  0
LINE
  8
0
 10
-7.93892
 20
-9.04507
 11
-7.5
 21
-9.33012
  0
LINE
  8
0
 10
-7.5
 20
-9.33012
 11
-7.03368
 21
-9.56772
  0
LINE
  8
0
 10
-7.03368
 20
-9.56772
 11
-6.54507
 21
-9.75528
  0
LINE
  8
0
 10
-6.54507
 20
-9.75528
 11
-6.03955
 21
-9.89073
  0
LINE
  8
0
 10
-6.03955
 20
-9.89073
 11
-5.52263
 21
-9.9726
  0
LINE
  8
0
 10
-5.52263
 20
-9.9726
 11
-5
 21
-10
  0
LINE
  8
0
 10
-5
 20
-10
 11
125
 21
-10
  0
LINE
  8
0
 10
125
 20
-10
 11
125.523
 21
-9.9726
  0
LINE
  8
0
 10
7.94545
 20
100.4
 11
7.94545
 21
103.6
  0
LINE
  8
0
 10
7.94545
 20
103.6
 11
22.2566
 21
103.6
  0
LINE
  8
0
 10
22.2566
 20
103.6
 11
22.2566
 21
100.4
  0
LINE
  8
0
 10
22.2566
 20
100.4
 11
7.94545
 21
100.4
  0
LINE
  8
0
 10
54.1273
 20
100.4
 11
54.1273
 21
103.6
  0
LINE
  8
0
 10
54.1273
 20
103.6
 11
68.4384
 21
103.6
  0
LINE
  8
0
 10
68.4384
 20
103.6
 11
68.4384
 21
100.4
  0
LINE
  8
0
 10
68.4384
 20
100.4
 11
54.1273
 21
100.4
  0
LINE
  8
0
 10
77.2182
 20
100.4
 11
77.2182
 21
103.6
  0
LINE
  8
0
 10
77.2182
 20
103.6
 11
91.5293
 21
103.6
  0
LINE
  8
0
 10
91.5293
 20
103.6
 11
91.5293
 21
100.4
  0
LINE
  8
0
 10
91.5293
 20
100.4
 11
77.2182
 21
100.4
  0
LINE
  8
0
 10
31.0364
 20
100.4
 11
31.0364
 21
103.6
  0
LINE
  8
0
 10
31.0364
 20
103.6
 11
45.3475
 21
103.6
  0
LINE
  8
0
 10
45.3475
 20
103.6
 11
45.3475
 21
100.4
  0
LINE
  8
0
 10
45.3475
 20
100.4
 11
31.0364
 21
100.4
  0
LINE
  8
0
 10
100.309
 20
100.4
 11
100.309
 21
103.6
  0
LINE
  8
0
 10
100.309
 20
103.6
 11
114.62
 21
103.6
  0
LINE
  8
0
 10
114.62
 20
103.6
 11
114.62
 21
100.4
  0
LINE
  8
0
 10
114.62
 20
100.4
 11
100.309
 21
100.4
  0
LINE
  8
0
 10
-3.59999
 20
83.9454
 11
-3.59999
 21
93.3273
  0
LINE
  8
0
 10
-3.59999
 20
93.3273
 11
-0.399994
 21
93.3273
  0
LINE
  8
0
 10
-0.399994
 20
93.3273
 11
-0.399994
 21
83.9454
  0
LINE
  8
0
 10
-0.399994
 20
83.9454
 11
-3.59999
 21
83.9454
  0
LINE
  8
0
 10
120.4
 20
83.9454
 11
120.4
 21
93.3273
  0
LINE
  8
0
 10
120.4
 20
93.3273
 11
123.6
 21
93.3273
  0
LINE
  8
0
 10
123.6
 20
93.3273
 11
123.6
 21
83.9454
  0
LINE
  8
0
 10
123.6
 20
83.9454
 11
120.4
 21
83.9454
  0
LINE
  8
0
 10
19.8432
 20
78.5082
 11
19.6881
 21
78.5328
  0
LINE
  8
0
 10
19.6881
 20
78.5328
 11
19.5365
 21
78.5734
  0
LINE
  8
0
 10
19.5365
 20
78.5734
 11
19.3899
 21
78.6297
  0
LINE
  8
0
 10
19.3899
 20
78.6297
 11
19.25
 21
78.701
  0
LINE
  8
0
 10
19.25
 20
78.701
 11
19.1183
 21
78.7865
  0
LINE
  8
0
 10
19.1183
 20
78.7865
 11
18.9963
 21
78.8853
  0
LINE
  8
0
 10
18.9963
 20
78.8853
 11
18.8853
 21
78.9963
  0
LINE
  8
0
 10
18.8853
 20
78.9963
 11
18.7865
 21
79.1183
  0
LINE
  8
0
 10
18.7865
 20
79.1183
 11
18.701
 21
79.25
  0
LINE
  8
0
 10
18.701
 20
79.25
 11
18.6297
 21
79.3899
  0
LINE
  8
0
 10
18.6297
 20
79.3899
 11
18.5734
 21
79.5365
  0
LINE
  8
0
 10
18.5734
 20
79.5365
 11
18.5328
 21
79.6881
  0
LINE
  8
0
 10
18.5328
 20
79.6881
 11
18.5082
 21
79.8432
  0
LINE
  8
0
 10
18.5082
 20
79.8432
 11
18.5
 21
80
  0
LINE
  8
0
 10
18.5
 20
80
 11
18.5082
 21
80.1568
  0
LINE
  8
0
 10
18.5082
 20
80.1568
 11
18.5328
 21
80.3119
  0
LINE
  8
0
 10
18.5328
 20
80.3119
 11
18.5734
 21
80.4635
  0
LINE
  8
0
 10
18.5734
 20
80.4635
 11
18.6297
 21
80.6101
  0
LINE
  8
0
 10
18.6297
 20
80.6101
 11
18.701
 21
80.75
  0
LINE
  8
0
 10
18.701
 20
80.75
 11
18.7865
 21
80.8817
  0
LINE
  8
0
 10
18.7865
 20
80.8817
 11
18.8853
 21
81.0037
  0
LINE
  8
0
 10
18.8853
 20
81.0037
 11
18.9963
 21
81.1147
  0
LINE
  8
0
 10
18.9963
 20
81.1147
 11
19.1183
 21
81.2135
  0
LINE
  8
0
 10
19.1183
 20
81.2135
 11
19.25
 21
81.299
  0
LINE
  8
0
 10
19.25
 20
81.299
 11
19.3899
 21
81.3703
  0
LINE
  8
0
 10
19.3899
 20
81.3703
 11
19.5365
 21
81.4266
  0
LINE
  8
0
 10
19.5365
 20
81.4266
 11
19.6881
 21
81.4672
  0
LINE
  8
0
 10
19.6881
 20
81.4672
 11
19.8432
 21
81.4918
  0
LINE
  8
0
 10
19.8432
 20
81.4918
 11
20
 21
81.5
  0
LINE
  8
0
 10
20
 20
81.5
 11
20.1568
 21
81.4918
  0
LINE
  8
0
 10
20.1568
 20
81.4918
 11
20.3119
 21
81.4672
  0
LINE
  8
0
 10
20.3119
 20
81.4672
 11
20.4635
 21
81.4266
  0
LINE
  8
0
 10
20.4635
 20
81.4266
 11
20.6101
 21
81.3703
  0
LINE
  8
0
 10
20.6101
 20
81.3703
 11
20.75
 21
81.299
  0
LINE
  8
0
 10
20.75
 20
81.299
 11
20.8817
 21
81.2135
  0
LINE
  8
0
 10
20.8817
 20
81.2135
 11
21.0037
 21
81.1147
  0
LINE
  8
0
 10
21.0037
 20
81.1147
 11
21.1147
 21
81.0037
  0
LINE
  8
0
 10
21.1147
 20
81.0037
 11
21.2135
 21
80.8817
  0
LINE
  8
0
 10
21.2135
 20
80.8817
 11
21.299
 21
80.75
  0
LINE
  8
0
 10
21.299
 20
80.75
 11
21.3703
 21
80.6101
  0
LINE
  8
0
 10
21.3703
 20
80.6101
 11
21.4266
 21
80.4635
  0
LINE
  8
0
 10
21.4266
 20
80.4635
 11
21.4672
 21
80.3119
  0
LINE
  8
0
 10
21.4672
 20
80.3119
 11
21.4918
 21
80.1568
  0
LINE
  8
0
 10
21.4918
 20
80.1568
 11
21.5
 21
80
  0
LINE
  8
0
 10
21.5
 20
80
 11
21.4918
 21
79.8432
  0
LINE
  8
0
 10
21.4918
 20
79.8432
 11
21.4672
 21
79.6881
  0
LINE
  8
0
 10
21.4672
 20
79.6881
 11
21.4266
 21
79.5365
  0
LINE
  8
0
 10
21.4266
 20
79.5365
 11
21.3703
 21
79.3899
  0
LINE
  8
0
 10
21.3703
 20
79.3899
 11
21.299
 21
79.25
  0
LINE
  8
0
 10
21.299
 20
79.25
 11
21.2135
 21
79.1183
  0
LINE
  8
0
 10
21.2135
 20
79.1183
 11
21.1147
 21
78.9963
  0
LINE
  8
0
 10
21.1147
 20
78.9963
 11
21.0037
 21
78.8853
  0
LINE
  8
0
 10
21.0037
 20
78.8853
 11
20.8817
 21
78.7865
  0
LINE
  8
0
 10
20.8817
 20
78.7865
 11
20.75
 21
78.701
  0
LINE
  8
0
 10
20.75
 20
78.701
 11
20.6101
 21
78.6297
  0
LINE
  8
0
 10
20.6101
 20
78.6297
 11
20.4635
 21
78.5734
  0
LINE
  8
0
 10
20.4635
 20
78.5734
 11
20.3119
 21
78.5328
  0
LINE
  8
0
 10
20.3119
 20
78.5328
 11
20.1568
 21
78.5082
  0
LINE
  8
0
 10
20.1568
 20
78.5082
 11
20
 21
78.5
  0
LINE
  8
0
 10
20
 20
78.5
 11
19.8432
 21
78.5082
  0
LINE
  8
0
 10
99.8432
 20
78.5082
 11
99.6881
 21
78.5328
  0
LINE
  8
0
 10
99.6881
 20
78.5328
 11
99.5365
 21
78.5734
  0
LINE
  8
0
 10
99.5365
 20
78.5734
 11
99.3899
 21
78.6297
  0
LINE
  8
0
 10
99.3899
 20
78.6297
 11
99.25
 21
78.701
  0
LINE
  8
0
 10
99.25
 20
78.701
 11
99.1183
 21
78.7865
  0
LINE
  8
0
 10
99.1183
 20
78.7865
 11
98.9963
 21
78.8853
  0
LINE
  8
0
 10
98.9963
 20
78.8853
 11
98.8853
 21
78.9963
  0
LINE
  8
0
 10
98.8853
 20
78.9963
 11
98.7865
 21
79.1183
  0
LINE
  8
0
 10
98.7865
 20
79.1183
 11
98.701
 21
79.25
  0
LINE
  8
0
 10
98.701
 20
79.25
 11
98.6297
 21
79.3899
  0
LINE
  8
0
 10
98.6297
 20
79.3899
 11
98.5734
 21
79.5365
  0
LINE
  8
0
 10
98.5734
 20
79.5365
 11
98.5328
 21
79.6881
  0
LINE
  8
0
 10
98.5328
 20
79.6881
 11
98.5082
 21
79.8432
  0
LINE
  8
0
 10
98.5082
 20
79.8432
 11
98.5
 21
80
  0
LINE
  8
0
 10
98.5
 20
80
 11
98.5082
 21
80.1568
  0
LINE
  8
0
 10
98.5082
 20
80.1568
 11
98.5328
 21
80.3119
  0
LINE
  8
0
 10
98.5328
 20
80.3119
 11
98.5734
 21
80.4635
  0
LINE
  8
0
 10
98.5734
 20
80.4635
 11
98.6297
 21
80.6101
  0
LINE
  8
0
 10
98.6297
 20
80.6101
 11
98.701
 21
80.75
  0
LINE
  8
0
 10
98.701
 20
80.75
 11
98.7865
 21
80.8817
  0
LINE
  8
0
 10
98.7865
 20
80.8817
 11
98.8853
 21
81.0037
  0
LINE
  8
0
 10
98.8853
 20
81.0037
 11
98.9963
 21
81.1147
  0
LINE
  8
0
 10
98.9963
 20
81.1147
 11
99.1183
 21
81.2135
  0
LINE
  8
0
 10
99.1183
 20
81.2135
 11
99.25
 21
81.299
  0
LINE
  8
0
 10
99.25
 20
81.299
 11
99.3899
 21
81.3703
  0
LINE
  8
0
 10
99.3899
 20
81.3703
 11
99.5365
 21
81.4266
  0
LINE
  8
0
 10
99.5365
 20
81.4266
 11
99.6881
 21
81.4672
  0
LINE
  8
0
 10
99.6881
 20
81.4672
 11
99.8432
 21
81.4918
  0
LINE
  8
0
 10
99.8432
 20
81.4918
 11
100
 21
81.5
  0
LINE
  8
0
 10
100
 20
81.5
 11
100.157
 21
81.4918
  0
LINE
  8
0
 10
100.157
 20
81.4918
 11
100.312
 21
81.4672
  0
LINE
  8
0
 10
100.312
 20
81.4672
 11
100.464
 21
81.4266
  0
LINE
  8
0
 10
100.464
 20
81.4266
 11
100.61
 21
81.3703
  0
LINE
  8
0
 10
100.61
 20
81.3703
 11
100.75
 21
81.299
  0
LINE
  8
0
 10
100.75
 20
81.299
 11
100.882
 21
81.2135
  0
LINE
  8
0
 10
100.882
 20
81.2135
 11
101.004
 21
81.1147
  0
LINE
  8
0
 10
101.004
 20
81.1147
 11
101.115
 21
81.0037
  0
LINE
  8
0
 10
101.115
 20
81.0037
 11
101.214
 21
80.8817
  0
LINE
  8
0
 10
101.214
 20
80.8817
 11
101.299
 21
80.75
  0
LINE
  8
0
 10
101.299
 20
80.75
 11
101.37
 21
80.6101
  0
LINE
  8
0
 10
101.37
 20
80.6101
 11
101.427
 21
80.4635
  0
LINE
  8
0
 10
101.427
 20
80.4635
 11
101.467
 21
80.3119
  0
LINE
  8
0
 10
101.467
 20
80.3119
 11
101.492
 21
80.1568
  0
LINE
  8
0
 10
101.492
 20
80.1568
 11
101.5
 21
80
  0
LINE
  8
0
 10
101.5
 20
80
 11
101.492
 21
79.8432
  0
LINE
  8
0
 10
101.492
 20
79.8432
 11
101.467
 21
79.6881
  0
LINE
  8
0
 10
101.467
 20
79.6881
 11
101.427
 21
79.5365
  0
LINE
  8
0
 10
101.427
 20
79.5365
 11
101.37
 21
79.3899
  0
LINE
  8
0
 10
101.37
 20
79.3899
 11
101.299
 21
79.25
  0
LINE
  8
0
 10
101.299
 20
79.25
 11
101.214
 21
79.1183
  0
LINE
  8
0
 10
101.214
 20
79.1183
 11
101.115
 21
78.9963
  0
LINE
  8
0
 10
101.115
 20
78.9963
 11
101.004
 21
78.8853
  0
LINE
  8
0
 10
101.004
 20
78.8853
 11
100.882
 21
78.7865
  0
LINE
  8
0
 10
100.882
 20
78.7865
 11
100.75
 21
78.701
  0
LINE
  8
0
 10
100.75
 20
78.701
 11
100.61
 21
78.6297
  0
LINE
  8
0
 10
100.61
 20
78.6297
 11
100.464
 21
78.5734
  0
LINE
  8
0
 10
100.464
 20
78.5734
 11
100.312
 21
78.5328
  0
LINE
  8
0
 10
100.312
 20
78.5328
 11
100.157
 21
78.5082
  0
LINE
  8
0
 10
100.157
 20
78.5082
 11
100
 21
78.5
  0
LINE
  8
0
 10
100
 20
78.5
 11
99.8432
 21
78.5082
  0
LINE
  8
0
 10
-3.59999
 20
64.4909
 11
-3.59999
 21
73.8727
  0
LINE
  8
0
 10
-3.59999
 20
73.8727
 11
-0.399994
 21
73.8727
  0
LINE
  8
0
 10
-0.399994
 20
73.8727
 11
-0.399994
 21
64.4909
  0
LINE
  8
0
 10
-0.399994
 20
64.4909
 11
-3.59999
 21
64.4909
  0
LINE
  8
0
 10
120.4
 20
64.4909
 11
120.4
 21
73.8727
  0
LINE
  8
0
 10
120.4
 20
73.8727
 11
123.6
 21
73.8727
  0
LINE
  8
0
 10
123.6
 20
73.8727
 11
123.6
 21
64.4909
  0
LINE
  8
0
 10
123.6
 20
64.4909
 11
120.4
 21
64.4909
  0
LINE
  8
0
 10
-3.59999
 20
45.0364
 11
-3.59999
 21
54.4182
  0
LINE
  8
0
 10
-3.59999
 20
54.4182
 11
-0.399994
 21
54.4182
  0
LINE
  8
0
 10
-0.399994
 20
54.4182
 11
-0.399994
 21
45.0364
  0
LINE
  8
0
 10
-0.399994
 20
45.0364
 11
-3.59999
 21
45.0364
  0
LINE
  8
0
 10
120.4
 20
45.0364
 11
120.4
 21
54.4182
  0
LINE
  8
0
 10
120.4
 20
54.4182
 11
123.6
 21
54.4182
  0
LINE
  8
0
 10
123.6
 20
54.4182
 11
123.6
 21
45.0364
  0
LINE
  8
0
 10
123.6
 20
45.0364
 11
120.4
 21
45.0364
  0
LINE
  8
0
 10
-3.59999
 20
25.5818
 11
-3.59999
 21
34.9636
  0
LINE
  8
0
 10
-3.59999
 20
34.9636
 11
-0.399994
 21
34.9636
  0
LINE
  8
0
 10
-0.399994
 20
34.9636
 11
-0.399994
 21
25.5818
  0
LINE
  8
0
 10
-0.399994
 20
25.5818
 11
-3.59999
 21
25.5818
  0
LINE
  8
0
 10
120.4
 20
25.5818
 11
120.4
 21
34.9636
  0
LINE
  8
0
 10
120.4
 20
34.9636
 11
123.6
 21
34.9636
  0
LINE
  8
0
 10
123.6
 20
34.9636
 11
123.6
 21
25.5818
  0
LINE
  8
0
 10
123.6
 20
25.5818
 11
120.4
 21
25.5818
  0
LINE
  8
0
 10
19.8432
 20
18.5082
 11
19.6881
 21
18.5328
  0
LINE
  8
0
 10
19.6881
 20
18.5328
 11
19.5365
 21
18.5734
  0
LINE
  8
0
 10
19.5365
 20
18.5734
 11
19.3899
 21
18.6297
  0
LINE
  8
0
 10
19.3899
 20
18.6297
 11
19.25
 21
18.701
  0
LINE
  8
0
 10
19.25
 20
18.701
 11
19.1183
 21
18.7865
  0
LINE
  8
0
 10
19.1183
 20
18.7865
 11
18.9963
 21
18.8853
  0
LINE
  8
0
 10
18.9963
 20
18.8853
 11
18.8853
 21
18.9963
  0
LINE
  8
0
 10
18.8853
 20
18.9963
 11
18.7865
 21
19.1183
  0
LINE
  8
0
 10
18.7865
 20
19.1183
 11
18.701
 21
19.25
  0
LINE
  8
0
 10
18.701
 20
19.25
 11
18.6297
 21
19.3899
  0
LINE
  8
0
 10
18.6297
 20
19.3899
 11
18.5734
 21
19.5365
  0
LINE
  8
0
 10
18.5734
 20
19.5365
 11
18.5328
 21
19.6881
  0
LINE
  8
0
 10
18.5328
 20
19.6881
 11
18.5082
 21
19.8432
  0
LINE
  8
0
 10
18.5082
 20
19.8432
 11
18.5
 21
20
  0
LINE
  8
0
 10
18.5
 20
20
 11
18.5082
 21
20.1568
  0
LINE
  8
0
 10
18.5082
 20
20.1568
 11
18.5328
 21
20.3119
  0
LINE
  8
0
 10
18.5328
 20
20.3119
 11
18.5734
 21
20.4635
  0
LINE
  8
0
 10
18.5734
 20
20.4635
 11
18.6297
 21
20.6101
  0
LINE
  8
0
 10
18.6297
 20
20.6101
 11
18.701
 21
20.75
  0
LINE
  8
0
 10
18.701
 20
20.75
 11
18.7865
 21
20.8817
  0
LINE
  8
0
 10
18.7865
 20
20.8817
 11
18.8853
 21
21.0037
  0
LINE
  8
0
 10
18.8853
 20
21.0037
 11
18.9963
 21
21.1147
  0
LINE
  8
0
 10
18.9963
 20
21.1147
 11
19.1183
 21
21.2135
  0
LINE
  8
0
 10
19.1183
 20
21.2135
 11
19.25
 21
21.299
  0
LINE
  8
0
 10
19.25
 20
21.299
 11
19.3899
 21
21.3703
  0
LINE
  8
0
 10
19.3899
 20
21.3703
 11
19.5365
 21
21.4266
  0
LINE
  8
0
 10
19.5365
 20
21.4266
 11
19.6881
 21
21.4672
  0
LINE
  8
0
 10
19.6881
 20
21.4672
 11
19.8432
 21
21.4918
  0
LINE
  8
0
 10
19.8432
 20
21.4918
 11
20
 21
21.5
  0
LINE
  8
0
 10
20
 20
21.5
 11
20.1568
 21
21.4918
  0
LINE
  8
0
 10
20.1568
 20
21.4918
 11
20.3119
 21
21.4672
  0
LINE
  8
0
 10
20.3119
 20
21.4672
 11
20.4635
 21
21.4266
  0
LINE
  8
0
 10
20.4635
 20
21.4266
 11
20.6101
 21
21.3703
  0
LINE
  8
0
 10
20.6101
 20
21.3703
 11
20.75
 21
21.299
  0
LINE
  8
0
 10
20.75
 20
21.299
 11
20.8817
 21
21.2135
  0
LINE
  8
0
 10
20.8817
 20
21.2135
 11
21.0037
 21
21.1147
  0
LINE
  8
0
 10
21.0037
 20
21.1147
 11
21.1147
 21
21.0037
  0
LINE
  8
0
 10
21.1147
 20
21.0037
 11
21.2135
 21
20.8817
  0
LINE
  8
0
 10
21.2135
 20
20.8817
 11
21.299
 21
20.75
  0
LINE
  8
0
 10
21.299
 20
20.75
 11
21.3703
 21
20.6101
  0
LINE
  8
0
 10
21.3703
 20
20.6101
 11
21.4266
 21
20.4635
  0
LINE
  8
0
 10
21.4266
 20
20.4635
 11
21.4672
 21
20.3119
  0
LINE
  8
0
 10
21.4672
 20
20.3119
 11
21.4918
 21
20.1568
  0
LINE
  8
0
 10
21.4918
 20
20.1568
 11
21.5
 21
20
  0
LINE
  8
0
 10
21.5
 20
20
 11
21.4918
 21
19.8432
  0
LINE
  8
0
 10
21.4918
 20
19.8432
 11
21.4672
 21
19.6881
  0
LINE
  8
0
 10
21.4672
 20
19.6881
 11
21.4266
 21
19.5365
  0
LINE
  8
0
 10
21.4266
 20
19.5365
 11
21.3703
 21
19.3899
  0
LINE
  8
0
 10
21.3703
 20
19.3899
 11
21.299
 21
19.25
  0
LINE
  8
0
 10
21.299
 20
19.25
 11
21.2135
 21
19.1183
  0
LINE
  8
0
 10
21.2135
 20
19.1183
 11
21.1147
 21
18.9963
  0
LINE
  8
0
 10
21.1147
 20
18.9963
 11
21.0037
 21
18.8853
  0
LINE
  8
0
 10
21.0037
 20
18.8853
 11
20.8817
 21
18.7865
  0
LINE
  8
0
 10
20.8817
 20
18.7865
 11
20.75
 21
18.701
  0
LINE
  8
0
 10
20.75
 20
18.701
 11
20.6101
 21
18.6297
  0
LINE
  8
0
 10
20.6101
 20
18.6297
 11
20.4635
 21
18.5734
  0
LINE
  8
0
 10
20.4635
 20
18.5734
 11
20.3119
 21
18.5328
  0
LINE
  8
0
 10
20.3119
 20
18.5328
 11
20.1568
 21
18.5082
  0
LINE
  8
0
 10
20.1568
 20
18.5082
 11
20
 21
18.5
  0
LINE
  8
0
 10
20
 20
18.5
 11
19.8432
 21
18.5082
  0
LINE
  8
0
 10
99.8432
 20
18.5082
 11
99.6881
 21
18.5328
  0
LINE
  8
0
 10
99.6881
 20
18.5328
 11
99.5365
 21
18.5734
  0
LINE
  8
0
 10
99.5365
 20
18.5734
 11
99.3899
 21
18.6297
  0
LINE
  8
0
 10
99.3899
 20
18.6297
 11
99.25
 21
18.701
  0
LINE
  8
0
 10
99.25
 20
18.701
 11
99.1183
 21
18.7865
  0
LINE
  8
0
 10
99.1183
 20
18.7865
 11
98.9963
 21
18.8853
  0
LINE
  8
0
 10
98.9963
 20
18.8853
 11
98.8853
 21
18.9963
  0
LINE
  8
0
 10
98.8853
 20
18.9963
 11
98.7865
 21
19.1183
  0
LINE
  8
0
 10
98.7865
 20
19.1183
 11
98.701
 21
19.25
  0
LINE
  8
0
 10
98.701
 20
19.25
 11
98.6297
 21
19.3899
  0
LINE
  8
0
 10
98.6297
 20
19.3899
 11
98.5734
 21
19.5365
  0
LINE
  8
0
 10
98.5734
 20
19.5365
 11
98.5328
 21
19.6881
  0
LINE
  8
0
 10
98.5328
 20
19.6881
 11
98.5082
 21
19.8432
  0
LINE
  8
0
 10
98.5082
 20
19.8432
 11
98.5
 21
20
  0
LINE
  8
0
 10
98.5
 20
20
 11
98.5082
 21
20.1568
  0
LINE
  8
0
 10
98.5082
 20
20.1568
 11
98.5328
 21
20.3119
  0
LINE
  8
0
 10
98.5328
 20
20.3119
 11
98.5734
 21
20.4635
  0
LINE
  8
0
 10
98.5734
 20
20.4635
 11
98.6297
 21
20.6101
  0
LINE
  8
0
 10
98.6297
 20
20.6101
 11
98.701
 21
20.75
  0
LINE
  8
0
 10
98.701
 20
20.75
 11
98.7865
 21
20.8817
  0
LINE
  8
0
 10
98.7865
 20
20.8817
 11
98.8853
 21
21.0037
  0
LINE
  8
0
 10
98.8853
 20
21.0037
 11
98.9963
 21
21.1147
  0
LINE
  8
0
 10
98.9963
 20
21.1147
 11
99.1183
 21
21.2135
  0
LINE
  8
0
 10
99.1183
 20
21.2135
 11
99.25
 21
21.299
  0
LINE
  8
0
 10
99.25
 20
21.299
 11
99.3899
 21
21.3703
  0
LINE
  8
0
 10
99.3899
 20
21.3703
 11
99.5365
 21
21.4266
  0
LINE
  8
0
 10
99.5365
 20
21.4266
 11
99.6881
 21
21.4672
  0
LINE
  8
0
 10
99.6881
 20
21.4672
 11
99.8432
 21
21.4918
  0
LINE
  8
0
 10
99.8432
 20
21.4918
 11
100
 21
21.5
  0
LINE
  8
0
 10
100
 20
21.5
 11
100.157
 21
21.4918
  0
LINE
  8
0
 10
100.157
 20
21.4918
 11
100.312
 21
21.4672
  0
LINE
  8
0
 10
100.312
 20
21.4672
 11
100.464
 21
21.4266
  0
LINE
  8
0
 10
100.464
 20
21.4266
 11
100.61
 21
21.3703
  0
LINE
  8
0
 10
100.61
 20
21.3703
 11
100.75
 21
21.299
  0
LINE
  8
0
 10
100.75
 20
21.299
 11
100.882
 21
21.2135
  0
LINE
  8
0
 10
100.882
 20
21.2135
 11
101.004
 21
21.1147
  0
LINE
  8
0
 10
101.004
 20
21.1147
 11
101.115
 21
21.0037
  0
LINE
  8
0
 10
101.115
 20
21.0037
 11
101.214
 21
20.8817
  0
LINE
  8
0
 10
101.214
 20
20.8817
 11
101.299
 21
20.75
  0
LINE
  8
0
 10
101.299
 20
20.75
 11
101.37
 21
20.6101
  0
LINE
  8
0
 10
101.37
 20
20.6101
 11
101.427
 21
20.4635
  0
LINE
  8
0
 10
101.427
 20
20.4635
 11
101.467
 21
20.3119
  0
LINE
  8
0
 10
101.467
 20
20.3119
 11
101.492
 21
20.1568
  0
LINE
  8
0
 10
101.492
 20
20.1568
 11
101.5
 21
20
  0
LINE
  8
0
 10
101.5
 20
20
 11
101.492
 21
19.8432
  0
LINE
  8
0
 10
101.492
 20
19.8432
 11
101.467
 21
19.6881
  0
LINE
  8
0
 10
101.467
 20
19.6881
 11
101.427
 21
19.5365
  0
LINE
  8
0
 10
101.427
 20
19.5365
 11
101.37
 21
19.3899
  0
LINE
  8
0
 10
101.37
 20
19.3899
 11
101.299
 21
19.25
  0
LINE
  8
0
 10
101.299
 20
19.25
 11
101.214
 21
19.1183
  0
LINE
  8
0
 10
101.214
 20
19.1183
 11
101.115
 21
18.9963
  0
LINE
  8
0
 10
101.115
 20
18.9963
 11
101.004
 21
18.8853
  0
LINE
  8
0
 10
101.004
 20
18.8853
 11
100.882
 21
18.7865
  0
LINE
  8
0
 10
100.882
 20
18.7865
 11
100.75
 21
18.701
  0
LINE
  8
0
 10
100.75
 20
18.701
 11
100.61
 21
18.6297
  0
LINE
  8
0
 10
100.61
 20
18.6297
 11
100.464
 21
18.5734
  0
LINE
  8
0
 10
100.464
 20
18.5734
 11
100.312
 21
18.5328
  0
LINE
  8
0
 10
100.312
 20
18.5328
 11
100.157
 21
18.5082
  0
LINE
  8
0
 10
100.157
 20
18.5082
 11
100
 21
18.5
  0
LINE
  8
0
 10
100
 20
18.5
 11
99.8432
 21
18.5082
  0
LINE
  8
0
 10
120.4
 20
6.12726
 11
120.4
 21
15.5091
  0
LINE
  8
0
 10
120.4
 20
15.5091
 11
123.6
 21
15.5091
  0
LINE
  8
0
 10
123.6
 20
15.5091
 11
123.6
 21
6.12726
  0
LINE
  8
0
 10
123.6
 20
6.12726
 11
120.4
 21
6.12726
  0
LINE
  8
0
 10
-3.59999
 20
6.12726
 11
-3.59999
 21
15.5091
  0
LINE
  8
0
 10
-3.59999
 20
15.5091
 11
-0.399994
 21
15.5091
  0
LINE
  8
0
 10
-0.399994
 20
15.5091
 11
-0.399994
 21
6.12726
  0
LINE
  8
0
 10
-0.399994
 20
6.12726
 11
-3.59999
 21
6.12726
  0
LINE
  8
0
 10
77.2182
 20
-3.59999
 11
77.2182
 21
-0.399994
  0
LINE
  8
0
 10
77.2182
 20
-0.399994
 11
90.1182
 21
-0.399994
  0
LINE
  8
0
 10
90.1182
 20
-0.399994
 11
90.1182
 21
-3.59999
  0
LINE
  8
0
 10
90.1182
 20
-3.59999
 11
77.2182
 21
-3.59999
  0
LINE
  8
0
 10
54.1273
 20
-3.59999
 11
54.1273
 21
-0.399994
  0
LINE
  8
0
 10
54.1273
 20
-0.399994
 11
67.0273
 21
-0.399994
  0
LINE
  8
0
 10
67.0273
 20
-0.399994
 11
67.0273
 21
-3.59999
  0
LINE
  8
0
 10
67.0273
 20
-3.59999
 11
54.1273
 21
-3.59999
  0
LINE
  8
0
 10
31.0364
 20
-3.59999
 11
31.0364
 21
-0.399994
  0
LINE
  8
0
 10
31.0364
 20
-0.399994
 11
43.9364
 21
-0.399994
  0
LINE
  8
0
 10
43.9364
 20
-0.399994
 11
43.9364
 21
-3.59999
  0
LINE
  8
0
 10
43.9364
 20
-3.59999
 11
31.0364
 21
-3.59999
  0
LINE
  8
0
 10
7.94545
 20
-3.59999
 11
7.94545
 21
-0.399994
  0
LINE
  8
0
 10
7.94545
 20
-0.399994
 11
20.8454
 21
-0.399994
  0
LINE
  8
0
 10
20.8454
 20
-0.399994
 11
20.8454
 21
-3.59999
  0
LINE
  8
0
 10
20.8454
 20
-3.59999
 11
7.94545
 21
-3.59999
  0
LINE
  8
0
 10
113.209
 20
-3.59999
 11
100.309
 21
-3.59999
  0
LINE
  8
0
 10
100.309
 20
-3.59999
 11
100.309
 21
-0.399994
  0
LINE
  8
0
 10
100.309
 20
-0.399994
 11
113.209
 21
-0.399994
  0
LINE
  8
0
 10
113.209
 20
-0.399994
 11
113.209
 21
-3.59999
  0
ENDSEC
  0
SECTION
  2
OBJECTS
  0
DICTIONARY
  0
ENDSEC
  0
EOF
