  0
SECTION
  2
BLOCKS
  0
ENDSEC
  0
SECTION
  2
ENTITIES
  0
LINE
  8
0
 10
20.7455
 20
-8
 11
31.1364
 21
-8
  0
LINE
  8
0
 10
31.1364
 20
-8
 11
31.1364
 21
-11
  0
LINE
  8
0
 10
31.1364
 20
-11
 11
43.8364
 21
-11
  0
LINE
  8
0
 10
43.8364
 20
-11
 11
43.8364
 21
-8
  0
LINE
  8
0
 10
43.8364
 20
-8
 11
54.2273
 21
-8
  0
LINE
  8
0
 10
54.2273
 20
-8
 11
54.2273
 21
-11
  0
LINE
  8
0
 10
54.2273
 20
-11
 11
66.9273
 21
-11
  0
LINE
  8
0
 10
66.9273
 20
-11
 11
66.9273
 21
-8
  0
LINE
  8
0
 10
66.9273
 20
-8
 11
77.3182
 21
-8
  0
LINE
  8
0
 10
77.3182
 20
-8
 11
77.3182
 21
-11
  0
LINE
  8
0
 10
77.3182
 20
-11
 11
90.0182
 21
-11
  0
LINE
  8
0
 10
90.0182
 20
-11
 11
90.0182
 21
-8
  0
LINE
  8
0
 10
90.0182
 20
-8
 11
100.409
 21
-8
  0
LINE
  8
0
 10
100.409
 20
-8
 11
100.409
 21
-11
  0
LINE
  8
0
 10
100.409
 20
-11
 11
113.109
 21
-11
  0
LINE
  8
0
 10
113.109
 20
-11
 11
113.109
 21
-8
  0
LINE
  8
0
 10
113.109
 20
-8
 11
123.5
 21
-8
  0
LINE
  8
0
 10
123.5
 20
-8
 11
123.5
 21
-0.5
  0
LINE
  8
0
 10
123.5
 20
-0.5
 11
120.4
 21
-0.5
  0
LINE
  8
0
 10
120.4
 20
-0.5
 11
120.4
 21
7
  0
LINE
  8
0
 10
120.4
 20
7
 11
123.5
 21
7
  0
LINE
  8
0
 10
123.5
 20
7
 11
123.5
 21
14.5
  0
LINE
  8
0
 10
123.5
 20
14.5
 11
120.4
 21
14.5
  0
LINE
  8
0
 10
120.4
 20
14.5
 11
120.4
 21
22
  0
LINE
  8
0
 10
120.4
 20
22
 11
123.5
 21
22
  0
LINE
  8
0
 10
123.5
 20
22
 11
123.5
 21
29.5
  0
LINE
  8
0
 10
123.5
 20
29.5
 11
120.4
 21
29.5
  0
LINE
  8
0
 10
120.4
 20
29.5
 11
120.4
 21
37
  0
LINE
  8
0
 10
120.4
 20
37
 11
113.109
 21
37
  0
LINE
  8
0
 10
113.109
 20
37
 11
113.109
 21
40
  0
LINE
  8
0
 10
113.109
 20
40
 11
100.409
 21
40
  0
LINE
  8
0
 10
100.409
 20
40
 11
100.409
 21
37
  0
LINE
  8
0
 10
100.409
 20
37
 11
90.0182
 21
37
  0
LINE
  8
0
 10
90.0182
 20
37
 11
90.0182
 21
40
  0
LINE
  8
0
 10
90.0182
 20
40
 11
77.3182
 21
40
  0
LINE
  8
0
 10
77.3182
 20
40
 11
77.3182
 21
37
  0
LINE
  8
0
 10
77.3182
 20
37
 11
66.9273
 21
37
  0
LINE
  8
0
 10
66.9273
 20
37
 11
66.9273
 21
40
  0
LINE
  8
0
 10
66.9273
 20
40
 11
54.2273
 21
40
  0
LINE
  8
0
 10
54.2273
 20
40
 11
54.2273
 21
37
  0
LINE
  8
0
 10
54.2273
 20
37
 11
43.8364
 21
37
  0
LINE
  8
0
 10
43.8364
 20
37
 11
43.8364
 21
40
  0
LINE
  8
0
 10
43.8364
 20
40
 11
31.1364
 21
40
  0
LINE
  8
0
 10
31.1364
 20
40
 11
31.1364
 21
37
  0
LINE
  8
0
 10
31.1364
 20
37
 11
20.7455
 21
37
  0
LINE
  8
0
 10
20.7455
 20
37
 11
20.7455
 21
40
  0
LINE
  8
0
 10
20.7455
 20
40
 11
8.04544
 21
40
  0
LINE
  8
0
 10
8.04544
 20
40
 11
8.04544
 21
37
  0
LINE
  8
0
 10
8.04544
 20
37
 11
-0.399994
 21
37
  0
LINE
  8
0
 10
-0.399994
 20
37
 11
-0.399994
 21
29.5
  0
LINE
  8
0
 10
-0.399994
 20
29.5
 11
-3.5
 21
29.5
  0
LINE
  8
0
 10
-3.5
 20
29.5
 11
-3.5
 21
22
  0
LINE
  8
0
 10
-3.5
 20
22
 11
-0.399994
 21
22
  0
LINE
  8
0
 10
-0.399994
 20
22
 11
-0.399994
 21
14.5
  0
LINE
  8
0
 10
-0.399994
 20
14.5
 11
-3.5
 21
14.5
  0
LINE
  8
0
 10
-3.5
 20
14.5
 11
-3.5
 21
7
  0
LINE
  8
0
 10
-3.5
 20
7
 11
-0.399994
 21
7
  0
LINE
  8
0
 10
-0.399994
 20
7
 11
-0.399994
 21
-0.5
  0
LINE
  8
0
 10
-0.399994
 20
-0.5
 11
-3.5
 21
-0.5
  0
LINE
  8
0
 10
-3.5
 20
-0.5
 11
-3.5
 21
-8
  0
LINE
  8
0
 10
-3.5
 20
-8
 11
8.04544
 21
-8
  0
LINE
  8
0
 10
8.04544
 20
-8
 11
8.04544
 21
-11
  0
LINE
  8
0
 10
8.04544
 20
-11
 11
20.7455
 21
-11
  0
LINE
  8
0
 10
20.7455
 20
-11
 11
20.7455
 21
-8
  0
LINE
  8
0
 10
66.29
 20
17.5
 11
66.29
 21
30
  0
LINE
  8
0
 10
66.29
 20
30
 11
119.33
 21
30
  0
LINE
  8
0
 10
119.33
 20
30
 11
119.33
 21
17.5
  0
LINE
  8
0
 10
119.33
 20
17.5
 11
66.29
 21
17.5
  0
LINE
  8
0
 10
24.516
 20
3.31697
 11
24.1955
 21
3.36774
  0
LINE
  8
0
 10
24.1955
 20
3.36774
 11
23.882
 21
3.45172
  0
LINE
  8
0
 10
23.882
 20
3.45172
 11
23.5791
 21
3.56801
  0
LINE
  8
0
 10
23.5791
 20
3.56801
 11
23.29
 21
3.71532
  0
LINE
  8
0
 10
23.29
 20
3.71532
 11
23.0179
 21
3.89204
  0
LINE
  8
0
 10
23.0179
 20
3.89204
 11
22.7657
 21
4.09624
  0
LINE
  8
0
 10
22.7657
 20
4.09624
 11
22.5362
 21
4.32568
  0
LINE
  8
0
 10
22.5362
 20
4.32568
 11
22.332
 21
4.57787
  0
LINE
  8
0
 10
22.332
 20
4.57787
 11
22.1553
 21
4.84999
  0
LINE
  8
0
 10
22.1553
 20
4.84999
 11
22.008
 21
5.13911
  0
LINE
  8
0
 10
22.008
 20
5.13911
 11
21.8917
 21
5.44205
  0
LINE
  8
0
 10
21.8917
 20
5.44205
 11
21.8077
 21
5.75546
  0
LINE
  8
0
 10
21.8077
 20
5.75546
 11
21.757
 21
6.07596
  0
LINE
  8
0
 10
21.757
 20
6.07596
 11
21.74
 21
6.39999
  0
LINE
  8
0
 10
21.74
 20
6.39999
 11
21.757
 21
6.72403
  0
LINE
  8
0
 10
21.757
 20
6.72403
 11
21.8077
 21
7.04453
  0
LINE
  8
0
 10
21.8077
 20
7.04453
 11
21.8917
 21
7.35794
  0
LINE
  8
0
 10
21.8917
 20
7.35794
 11
22.008
 21
7.66087
  0
LINE
  8
0
 10
22.008
 20
7.66087
 11
22.1553
 21
7.95
  0
LINE
  8
0
 10
22.1553
 20
7.95
 11
22.332
 21
8.22212
  0
LINE
  8
0
 10
22.332
 20
8.22212
 11
22.5362
 21
8.4743
  0
LINE
  8
0
 10
22.5362
 20
8.4743
 11
22.7657
 21
8.70374
  0
LINE
  8
0
 10
22.7657
 20
8.70374
 11
23.0179
 21
8.90794
  0
LINE
  8
0
 10
23.0179
 20
8.90794
 11
23.29
 21
9.08467
  0
LINE
  8
0
 10
23.29
 20
9.08467
 11
23.5791
 21
9.23198
  0
LINE
  8
0
 10
23.5791
 20
9.23198
 11
23.882
 21
9.34827
  0
LINE
  8
0
 10
23.882
 20
9.34827
 11
24.1955
 21
9.43225
  0
LINE
  8
0
 10
24.1955
 20
9.43225
 11
24.516
 21
9.48302
  0
LINE
  8
0
 10
24.516
 20
9.48302
 11
24.84
 21
9.5
  0
LINE
  8
0
 10
24.84
 20
9.5
 11
25.164
 21
9.48302
  0
LINE
  8
0
 10
25.164
 20
9.48302
 11
25.4845
 21
9.43225
  0
LINE
  8
0
 10
25.4845
 20
9.43225
 11
25.7979
 21
9.34827
  0
LINE
  8
0
 10
25.7979
 20
9.34827
 11
26.1009
 21
9.23198
  0
LINE
  8
0
 10
26.1009
 20
9.23198
 11
26.39
 21
9.08467
  0
LINE
  8
0
 10
26.39
 20
9.08467
 11
26.6621
 21
8.90794
  0
LINE
  8
0
 10
26.6621
 20
8.90794
 11
26.9143
 21
8.70374
  0
LINE
  8
0
 10
26.9143
 20
8.70374
 11
27.1437
 21
8.4743
  0
LINE
  8
0
 10
27.1437
 20
8.4743
 11
27.3479
 21
8.22212
  0
LINE
  8
0
 10
27.3479
 20
8.22212
 11
27.5247
 21
7.95
  0
LINE
  8
0
 10
27.5247
 20
7.95
 11
27.672
 21
7.66087
  0
LINE
  8
0
 10
27.672
 20
7.66087
 11
27.7883
 21
7.35794
  0
LINE
  8
0
 10
27.7883
 20
7.35794
 11
27.8723
 21
7.04453
  0
LINE
  8
0
 10
27.8723
 20
7.04453
 11
27.923
 21
6.72403
  0
LINE
  8
0
 10
27.923
 20
6.72403
 11
27.94
 21
6.39999
  0
LINE
  8
0
 10
27.94
 20
6.39999
 11
27.923
 21
6.07596
  0
LINE
  8
0
 10
27.923
 20
6.07596
 11
27.8723
 21
5.75546
  0
LINE
  8
0
 10
27.8723
 20
5.75546
 11
27.7883
 21
5.44205
  0
LINE
  8
0
 10
27.7883
 20
5.44205
 11
27.672
 21
5.13911
  0
LINE
  8
0
 10
27.672
 20
5.13911
 11
27.5247
 21
4.84999
  0
LINE
  8
0
 10
27.5247
 20
4.84999
 11
27.3479
 21
4.57787
  0
LINE
  8
0
 10
27.3479
 20
4.57787
 11
27.1437
 21
4.32568
  0
LINE
  8
0
 10
27.1437
 20
4.32568
 11
26.9143
 21
4.09624
  0
LINE
  8
0
 10
26.9143
 20
4.09624
 11
26.6621
 21
3.89204
  0
LINE
  8
0
 10
26.6621
 20
3.89204
 11
26.39
 21
3.71532
  0
LINE
  8
0
 10
26.39
 20
3.71532
 11
26.1009
 21
3.56801
  0
LINE
  8
0
 10
26.1009
 20
3.56801
 11
25.7979
 21
3.45172
  0
LINE
  8
0
 10
25.7979
 20
3.45172
 11
25.4845
 21
3.36774
  0
LINE
  8
0
 10
25.4845
 20
3.36774
 11
25.164
 21
3.31697
  0
LINE
  8
0
 10
25.164
 20
3.31697
 11
24.84
 21
3.29999
  0
LINE
  8
0
 10
24.84
 20
3.29999
 11
24.516
 21
3.31697
  0
LINE
  8
0
 10
49.516
 20
3.31697
 11
49.1955
 21
3.36774
  0
LINE
  8
0
 10
49.1955
 20
3.36774
 11
48.882
 21
3.45172
  0
LINE
  8
0
 10
48.882
 20
3.45172
 11
48.5791
 21
3.56801
  0
LINE
  8
0
 10
48.5791
 20
3.56801
 11
48.29
 21
3.71532
  0
LINE
  8
0
 10
48.29
 20
3.71532
 11
48.0179
 21
3.89204
  0
LINE
  8
0
 10
48.0179
 20
3.89204
 11
47.7657
 21
4.09624
  0
LINE
  8
0
 10
47.7657
 20
4.09624
 11
47.5362
 21
4.32568
  0
LINE
  8
0
 10
47.5362
 20
4.32568
 11
47.332
 21
4.57787
  0
LINE
  8
0
 10
47.332
 20
4.57787
 11
47.1553
 21
4.84999
  0
LINE
  8
0
 10
47.1553
 20
4.84999
 11
47.008
 21
5.13911
  0
LINE
  8
0
 10
47.008
 20
5.13911
 11
46.8917
 21
5.44205
  0
LINE
  8
0
 10
46.8917
 20
5.44205
 11
46.8077
 21
5.75546
  0
LINE
  8
0
 10
46.8077
 20
5.75546
 11
46.757
 21
6.07596
  0
LINE
  8
0
 10
46.757
 20
6.07596
 11
46.74
 21
6.39999
  0
LINE
  8
0
 10
46.74
 20
6.39999
 11
46.757
 21
6.72403
  0
LINE
  8
0
 10
46.757
 20
6.72403
 11
46.8077
 21
7.04453
  0
LINE
  8
0
 10
46.8077
 20
7.04453
 11
46.8917
 21
7.35794
  0
LINE
  8
0
 10
46.8917
 20
7.35794
 11
47.008
 21
7.66087
  0
LINE
  8
0
 10
47.008
 20
7.66087
 11
47.1553
 21
7.95
  0
LINE
  8
0
 10
47.1553
 20
7.95
 11
47.332
 21
8.22212
  0
LINE
  8
0
 10
47.332
 20
8.22212
 11
47.5362
 21
8.4743
  0
LINE
  8
0
 10
47.5362
 20
8.4743
 11
47.7657
 21
8.70374
  0
LINE
  8
0
 10
47.7657
 20
8.70374
 11
48.0179
 21
8.90794
  0
LINE
  8
0
 10
48.0179
 20
8.90794
 11
48.29
 21
9.08467
  0
LINE
  8
0
 10
48.29
 20
9.08467
 11
48.5791
 21
9.23198
  0
LINE
  8
0
 10
48.5791
 20
9.23198
 11
48.882
 21
9.34827
  0
LINE
  8
0
 10
48.882
 20
9.34827
 11
49.1955
 21
9.43225
  0
LINE
  8
0
 10
49.1955
 20
9.43225
 11
49.516
 21
9.48302
  0
LINE
  8
0
 10
49.516
 20
9.48302
 11
49.84
 21
9.5
  0
LINE
  8
0
 10
49.84
 20
9.5
 11
50.164
 21
9.48302
  0
LINE
  8
0
 10
50.164
 20
9.48302
 11
50.4845
 21
9.43225
  0
LINE
  8
0
 10
50.4845
 20
9.43225
 11
50.7979
 21
9.34827
  0
LINE
  8
0
 10
50.7979
 20
9.34827
 11
51.1009
 21
9.23198
  0
LINE
  8
0
 10
51.1009
 20
9.23198
 11
51.39
 21
9.08467
  0
LINE
  8
0
 10
51.39
 20
9.08467
 11
51.6621
 21
8.90794
  0
LINE
  8
0
 10
51.6621
 20
8.90794
 11
51.9143
 21
8.70374
  0
LINE
  8
0
 10
51.9143
 20
8.70374
 11
52.1437
 21
8.4743
  0
LINE
  8
0
 10
52.1437
 20
8.4743
 11
52.3479
 21
8.22212
  0
LINE
  8
0
 10
52.3479
 20
8.22212
 11
52.5247
 21
7.95
  0
LINE
  8
0
 10
52.5247
 20
7.95
 11
52.672
 21
7.66087
  0
LINE
  8
0
 10
52.672
 20
7.66087
 11
52.7883
 21
7.35794
  0
LINE
  8
0
 10
52.7883
 20
7.35794
 11
52.8723
 21
7.04453
  0
LINE
  8
0
 10
52.8723
 20
7.04453
 11
52.923
 21
6.72403
  0
LINE
  8
0
 10
52.923
 20
6.72403
 11
52.94
 21
6.39999
  0
LINE
  8
0
 10
52.94
 20
6.39999
 11
52.923
 21
6.07596
  0
LINE
  8
0
 10
52.923
 20
6.07596
 11
52.8723
 21
5.75546
  0
LINE
  8
0
 10
52.8723
 20
5.75546
 11
52.7883
 21
5.44205
  0
LINE
  8
0
 10
52.7883
 20
5.44205
 11
52.672
 21
5.13911
  0
LINE
  8
0
 10
52.672
 20
5.13911
 11
52.5247
 21
4.84999
  0
LINE
  8
0
 10
52.5247
 20
4.84999
 11
52.3479
 21
4.57787
  0
LINE
  8
0
 10
52.3479
 20
4.57787
 11
52.1437
 21
4.32568
  0
LINE
  8
0
 10
52.1437
 20
4.32568
 11
51.9143
 21
4.09624
  0
LINE
  8
0
 10
51.9143
 20
4.09624
 11
51.6621
 21
3.89204
  0
LINE
  8
0
 10
51.6621
 20
3.89204
 11
51.39
 21
3.71532
  0
LINE
  8
0
 10
51.39
 20
3.71532
 11
51.1009
 21
3.56801
  0
LINE
  8
0
 10
51.1009
 20
3.56801
 11
50.7979
 21
3.45172
  0
LINE
  8
0
 10
50.7979
 20
3.45172
 11
50.4845
 21
3.36774
  0
LINE
  8
0
 10
50.4845
 20
3.36774
 11
50.164
 21
3.31697
  0
LINE
  8
0
 10
50.164
 20
3.31697
 11
49.84
 21
3.29999
  0
LINE
  8
0
 10
49.84
 20
3.29999
 11
49.516
 21
3.31697
  0
LINE
  8
0
 10
74.516
 20
3.31697
 11
74.1955
 21
3.36774
  0
LINE
  8
0
 10
74.1955
 20
3.36774
 11
73.882
 21
3.45172
  0
LINE
  8
0
 10
73.882
 20
3.45172
 11
73.5791
 21
3.56801
  0
LINE
  8
0
 10
73.5791
 20
3.56801
 11
73.29
 21
3.71532
  0
LINE
  8
0
 10
73.29
 20
3.71532
 11
73.0179
 21
3.89204
  0
LINE
  8
0
 10
73.0179
 20
3.89204
 11
72.7657
 21
4.09624
  0
LINE
  8
0
 10
72.7657
 20
4.09624
 11
72.5362
 21
4.32568
  0
LINE
  8
0
 10
72.5362
 20
4.32568
 11
72.332
 21
4.57787
  0
LINE
  8
0
 10
72.332
 20
4.57787
 11
72.1553
 21
4.84999
  0
LINE
  8
0
 10
72.1553
 20
4.84999
 11
72.008
 21
5.13911
  0
LINE
  8
0
 10
72.008
 20
5.13911
 11
71.8917
 21
5.44205
  0
LINE
  8
0
 10
71.8917
 20
5.44205
 11
71.8077
 21
5.75546
  0
LINE
  8
0
 10
71.8077
 20
5.75546
 11
71.757
 21
6.07596
  0
LINE
  8
0
 10
71.757
 20
6.07596
 11
71.74
 21
6.39999
  0
LINE
  8
0
 10
71.74
 20
6.39999
 11
71.757
 21
6.72403
  0
LINE
  8
0
 10
71.757
 20
6.72403
 11
71.8077
 21
7.04453
  0
LINE
  8
0
 10
71.8077
 20
7.04453
 11
71.8917
 21
7.35794
  0
LINE
  8
0
 10
71.8917
 20
7.35794
 11
72.008
 21
7.66087
  0
LINE
  8
0
 10
72.008
 20
7.66087
 11
72.1553
 21
7.95
  0
LINE
  8
0
 10
72.1553
 20
7.95
 11
72.332
 21
8.22212
  0
LINE
  8
0
 10
72.332
 20
8.22212
 11
72.5362
 21
8.4743
  0
LINE
  8
0
 10
72.5362
 20
8.4743
 11
72.7657
 21
8.70374
  0
LINE
  8
0
 10
72.7657
 20
8.70374
 11
73.0179
 21
8.90794
  0
LINE
  8
0
 10
73.0179
 20
8.90794
 11
73.29
 21
9.08467
  0
LINE
  8
0
 10
73.29
 20
9.08467
 11
73.5791
 21
9.23198
  0
LINE
  8
0
 10
73.5791
 20
9.23198
 11
73.882
 21
9.34827
  0
LINE
  8
0
 10
73.882
 20
9.34827
 11
74.1955
 21
9.43225
  0
LINE
  8
0
 10
74.1955
 20
9.43225
 11
74.516
 21
9.48302
  0
LINE
  8
0
 10
74.516
 20
9.48302
 11
74.84
 21
9.5
  0
LINE
  8
0
 10
74.84
 20
9.5
 11
75.164
 21
9.48302
  0
LINE
  8
0
 10
75.164
 20
9.48302
 11
75.4845
 21
9.43225
  0
LINE
  8
0
 10
75.4845
 20
9.43225
 11
75.7979
 21
9.34827
  0
LINE
  8
0
 10
75.7979
 20
9.34827
 11
76.1009
 21
9.23198
  0
LINE
  8
0
 10
76.1009
 20
9.23198
 11
76.39
 21
9.08467
  0
LINE
  8
0
 10
76.39
 20
9.08467
 11
76.6621
 21
8.90794
  0
LINE
  8
0
 10
76.6621
 20
8.90794
 11
76.9143
 21
8.70374
  0
LINE
  8
0
 10
76.9143
 20
8.70374
 11
77.1437
 21
8.4743
  0
LINE
  8
0
 10
77.1437
 20
8.4743
 11
77.3479
 21
8.22212
  0
LINE
  8
0
 10
77.3479
 20
8.22212
 11
77.5247
 21
7.95
  0
LINE
  8
0
 10
77.5247
 20
7.95
 11
77.672
 21
7.66087
  0
LINE
  8
0
 10
77.672
 20
7.66087
 11
77.7883
 21
7.35794
  0
LINE
  8
0
 10
77.7883
 20
7.35794
 11
77.8723
 21
7.04453
  0
LINE
  8
0
 10
77.8723
 20
7.04453
 11
77.923
 21
6.72403
  0
LINE
  8
0
 10
77.923
 20
6.72403
 11
77.94
 21
6.39999
  0
LINE
  8
0
 10
77.94
 20
6.39999
 11
77.923
 21
6.07596
  0
LINE
  8
0
 10
77.923
 20
6.07596
 11
77.8723
 21
5.75546
  0
LINE
  8
0
 10
77.8723
 20
5.75546
 11
77.7883
 21
5.44205
  0
LINE
  8
0
 10
77.7883
 20
5.44205
 11
77.672
 21
5.13911
  0
LINE
  8
0
 10
77.672
 20
5.13911
 11
77.5247
 21
4.84999
  0
LINE
  8
0
 10
77.5247
 20
4.84999
 11
77.3479
 21
4.57787
  0
LINE
  8
0
 10
77.3479
 20
4.57787
 11
77.1437
 21
4.32568
  0
LINE
  8
0
 10
77.1437
 20
4.32568
 11
76.9143
 21
4.09624
  0
LINE
  8
0
 10
76.9143
 20
4.09624
 11
76.6621
 21
3.89204
  0
LINE
  8
0
 10
76.6621
 20
3.89204
 11
76.39
 21
3.71532
  0
LINE
  8
0
 10
76.39
 20
3.71532
 11
76.1009
 21
3.56801
  0
LINE
  8
0
 10
76.1009
 20
3.56801
 11
75.7979
 21
3.45172
  0
LINE
  8
0
 10
75.7979
 20
3.45172
 11
75.4845
 21
3.36774
  0
LINE
  8
0
 10
75.4845
 20
3.36774
 11
75.164
 21
3.31697
  0
LINE
  8
0
 10
75.164
 20
3.31697
 11
74.84
 21
3.29999
  0
LINE
  8
0
 10
74.84
 20
3.29999
 11
74.516
 21
3.31697
  0
ENDSEC
  0
SECTION
  2
OBJECTS
  0
DICTIONARY
  0
ENDSEC
  0
EOF
