  0
SECTION
  2
BLOCKS
  0
ENDSEC
  0
SECTION
  2
ENTITIES
  0
LINE
  8
0
 10
-29.6
 20
-0.5
 11
-21.9
 21
-0.5
  0
LINE
  8
0
 10
-21.9
 20
-0.5
 11
-21.9
 21
-3.5
  0
LINE
  8
0
 10
-21.9
 20
-3.5
 11
-14.6
 21
-3.5
  0
LINE
  8
0
 10
-14.6
 20
-3.5
 11
-14.6
 21
-0.5
  0
LINE
  8
0
 10
-14.6
 20
-0.5
 11
-6.89999
 21
-0.5
  0
LINE
  8
0
 10
-6.89999
 20
-0.5
 11
-6.89999
 21
-3.5
  0
LINE
  8
0
 10
-6.89999
 20
-3.5
 11
0.399994
 21
-3.5
  0
LINE
  8
0
 10
0.399994
 20
-3.5
 11
0.399994
 21
-0.5
  0
LINE
  8
0
 10
0.399994
 20
-0.5
 11
8
 21
-0.5
  0
LINE
  8
0
 10
8
 20
-0.5
 11
8
 21
6.22726
  0
LINE
  8
0
 10
8
 20
6.22726
 11
11
 21
6.22726
  0
LINE
  8
0
 10
11
 20
6.22726
 11
11
 21
15.4091
  0
LINE
  8
0
 10
11
 20
15.4091
 11
8
 21
15.4091
  0
LINE
  8
0
 10
8
 20
15.4091
 11
8
 21
25.6818
  0
LINE
  8
0
 10
8
 20
25.6818
 11
11
 21
25.6818
  0
LINE
  8
0
 10
11
 20
25.6818
 11
11
 21
34.8636
  0
LINE
  8
0
 10
11
 20
34.8636
 11
8
 21
34.8636
  0
LINE
  8
0
 10
8
 20
34.8636
 11
8
 21
45.1364
  0
LINE
  8
0
 10
8
 20
45.1364
 11
11
 21
45.1364
  0
LINE
  8
0
 10
11
 20
45.1364
 11
11
 21
54.3182
  0
LINE
  8
0
 10
11
 20
54.3182
 11
8
 21
54.3182
  0
LINE
  8
0
 10
8
 20
54.3182
 11
8
 21
64.5909
  0
LINE
  8
0
 10
8
 20
64.5909
 11
11
 21
64.5909
  0
LINE
  8
0
 10
11
 20
64.5909
 11
11
 21
73.7727
  0
LINE
  8
0
 10
11
 20
73.7727
 11
8
 21
73.7727
  0
LINE
  8
0
 10
8
 20
73.7727
 11
8
 21
84.0455
  0
LINE
  8
0
 10
8
 20
84.0455
 11
11
 21
84.0455
  0
LINE
  8
0
 10
11
 20
84.0455
 11
11
 21
93.2273
  0
LINE
  8
0
 10
11
 20
93.2273
 11
8
 21
93.2273
  0
LINE
  8
0
 10
8
 20
93.2273
 11
8
 21
100.5
  0
LINE
  8
0
 10
8
 20
100.5
 11
0.399994
 21
100.5
  0
LINE
  8
0
 10
0.399994
 20
100.5
 11
0.399994
 21
103.5
  0
LINE
  8
0
 10
0.399994
 20
103.5
 11
-6.89999
 21
103.5
  0
LINE
  8
0
 10
-6.89999
 20
103.5
 11
-6.89999
 21
100.5
  0
LINE
  8
0
 10
-6.89999
 20
100.5
 11
-14.6
 21
100.5
  0
LINE
  8
0
 10
-14.6
 20
100.5
 11
-14.6
 21
103.5
  0
LINE
  8
0
 10
-14.6
 20
103.5
 11
-21.9
 21
103.5
  0
LINE
  8
0
 10
-21.9
 20
103.5
 11
-21.9
 21
100.5
  0
LINE
  8
0
 10
-21.9
 20
100.5
 11
-29.6
 21
100.5
  0
LINE
  8
0
 10
-29.6
 20
100.5
 11
-29.6
 21
103.5
  0
LINE
  8
0
 10
-29.6
 20
103.5
 11
-36.9
 21
103.5
  0
LINE
  8
0
 10
-36.9
 20
103.5
 11
-36.9
 21
100.5
  0
LINE
  8
0
 10
-36.9
 20
100.5
 11
-37
 21
100.5
  0
LINE
  8
0
 10
-37
 20
100.5
 11
-37
 21
93.2273
  0
LINE
  8
0
 10
-37
 20
93.2273
 11
-40
 21
93.2273
  0
LINE
  8
0
 10
-40
 20
93.2273
 11
-40
 21
84.0455
  0
LINE
  8
0
 10
-40
 20
84.0455
 11
-37
 21
84.0455
  0
LINE
  8
0
 10
-37
 20
84.0455
 11
-37
 21
73.7727
  0
LINE
  8
0
 10
-37
 20
73.7727
 11
-40
 21
73.7727
  0
LINE
  8
0
 10
-40
 20
73.7727
 11
-40
 21
64.5909
  0
LINE
  8
0
 10
-40
 20
64.5909
 11
-37
 21
64.5909
  0
LINE
  8
0
 10
-37
 20
64.5909
 11
-37
 21
54.3182
  0
LINE
  8
0
 10
-37
 20
54.3182
 11
-40
 21
54.3182
  0
LINE
  8
0
 10
-40
 20
54.3182
 11
-40
 21
45.1364
  0
LINE
  8
0
 10
-40
 20
45.1364
 11
-37
 21
45.1364
  0
LINE
  8
0
 10
-37
 20
45.1364
 11
-37
 21
34.8636
  0
LINE
  8
0
 10
-37
 20
34.8636
 11
-40
 21
34.8636
  0
LINE
  8
0
 10
-40
 20
34.8636
 11
-40
 21
25.6818
  0
LINE
  8
0
 10
-40
 20
25.6818
 11
-37
 21
25.6818
  0
LINE
  8
0
 10
-37
 20
25.6818
 11
-37
 21
15.4091
  0
LINE
  8
0
 10
-37
 20
15.4091
 11
-40
 21
15.4091
  0
LINE
  8
0
 10
-40
 20
15.4091
 11
-40
 21
6.22726
  0
LINE
  8
0
 10
-40
 20
6.22726
 11
-37
 21
6.22726
  0
LINE
  8
0
 10
-37
 20
6.22726
 11
-37
 21
-0.5
  0
LINE
  8
0
 10
-37
 20
-0.5
 11
-36.9
 21
-0.5
  0
LINE
  8
0
 10
-36.9
 20
-0.5
 11
-36.9
 21
-3.5
  0
LINE
  8
0
 10
-36.9
 20
-3.5
 11
-29.6
 21
-3.5
  0
LINE
  8
0
 10
-29.6
 20
-3.5
 11
-29.6
 21
-0.5
  0
LINE
  8
0
 10
-9.22943
 20
73.5356
 11
-9.90141
 21
73.642
  0
LINE
  8
0
 10
-9.90141
 20
73.642
 11
-10.5586
 21
73.8181
  0
LINE
  8
0
 10
-10.5586
 20
73.8181
 11
-11.1938
 21
74.062
  0
LINE
  8
0
 10
-11.1938
 20
74.062
 11
-11.8
 21
74.3708
  0
LINE
  8
0
 10
-11.8
 20
74.3708
 11
-12.3706
 21
74.7414
  0
LINE
  8
0
 10
-12.3706
 20
74.7414
 11
-12.8993
 21
75.1696
  0
LINE
  8
0
 10
-12.8993
 20
75.1696
 11
-13.3804
 21
75.6507
  0
LINE
  8
0
 10
-13.3804
 20
75.6507
 11
-13.8086
 21
76.1794
  0
LINE
  8
0
 10
-13.8086
 20
76.1794
 11
-14.1792
 21
76.75
  0
LINE
  8
0
 10
-14.1792
 20
76.75
 11
-14.488
 21
77.3562
  0
LINE
  8
0
 10
-14.488
 20
77.3562
 11
-14.7319
 21
77.9914
  0
LINE
  8
0
 10
-14.7319
 20
77.9914
 11
-14.908
 21
78.6486
  0
LINE
  8
0
 10
-14.908
 20
78.6486
 11
-15.0144
 21
79.3206
  0
LINE
  8
0
 10
-15.0144
 20
79.3206
 11
-15.05
 21
80
  0
LINE
  8
0
 10
-15.05
 20
80
 11
-15.0144
 21
80.6794
  0
LINE
  8
0
 10
-15.0144
 20
80.6794
 11
-14.908
 21
81.3514
  0
LINE
  8
0
 10
-14.908
 20
81.3514
 11
-14.7319
 21
82.0086
  0
LINE
  8
0
 10
-14.7319
 20
82.0086
 11
-14.488
 21
82.6438
  0
LINE
  8
0
 10
-14.488
 20
82.6438
 11
-14.1792
 21
83.25
  0
LINE
  8
0
 10
-14.1792
 20
83.25
 11
-13.8086
 21
83.8206
  0
LINE
  8
0
 10
-13.8086
 20
83.8206
 11
-13.3804
 21
84.3493
  0
LINE
  8
0
 10
-13.3804
 20
84.3493
 11
-12.8993
 21
84.8304
  0
LINE
  8
0
 10
-12.8993
 20
84.8304
 11
-12.3706
 21
85.2586
  0
LINE
  8
0
 10
-12.3706
 20
85.2586
 11
-11.8
 21
85.6292
  0
LINE
  8
0
 10
-11.8
 20
85.6292
 11
-11.1938
 21
85.938
  0
LINE
  8
0
 10
-11.1938
 20
85.938
 11
-10.5586
 21
86.1819
  0
LINE
  8
0
 10
-10.5586
 20
86.1819
 11
-9.90141
 21
86.358
  0
LINE
  8
0
 10
-9.90141
 20
86.358
 11
-9.22943
 21
86.4644
  0
LINE
  8
0
 10
-9.22943
 20
86.4644
 11
-8.54999
 21
86.5
  0
LINE
  8
0
 10
-8.54999
 20
86.5
 11
-7.87056
 21
86.4644
  0
LINE
  8
0
 10
-7.87056
 20
86.4644
 11
-7.19856
 21
86.358
  0
LINE
  8
0
 10
-7.19856
 20
86.358
 11
-6.54138
 21
86.1819
  0
LINE
  8
0
 10
-6.54138
 20
86.1819
 11
-5.9062
 21
85.938
  0
LINE
  8
0
 10
-5.9062
 20
85.938
 11
-5.29999
 21
85.6292
  0
LINE
  8
0
 10
-5.29999
 20
85.6292
 11
-4.72939
 21
85.2586
  0
LINE
  8
0
 10
-4.72939
 20
85.2586
 11
-4.20064
 21
84.8304
  0
LINE
  8
0
 10
-4.20064
 20
84.8304
 11
-3.71954
 21
84.3493
  0
LINE
  8
0
 10
-3.71954
 20
84.3493
 11
-3.29138
 21
83.8206
  0
LINE
  8
0
 10
-3.29138
 20
83.8206
 11
-2.92082
 21
83.25
  0
LINE
  8
0
 10
-2.92082
 20
83.25
 11
-2.61195
 21
82.6438
  0
LINE
  8
0
 10
-2.61195
 20
82.6438
 11
-2.36812
 21
82.0086
  0
LINE
  8
0
 10
-2.36812
 20
82.0086
 11
-2.19203
 21
81.3514
  0
LINE
  8
0
 10
-2.19203
 20
81.3514
 11
-2.0856
 21
80.6794
  0
LINE
  8
0
 10
-2.0856
 20
80.6794
 11
-2.04999
 21
80
  0
LINE
  8
0
 10
-2.04999
 20
80
 11
-2.0856
 21
79.3206
  0
LINE
  8
0
 10
-2.0856
 20
79.3206
 11
-2.19203
 21
78.6486
  0
LINE
  8
0
 10
-2.19203
 20
78.6486
 11
-2.36812
 21
77.9914
  0
LINE
  8
0
 10
-2.36812
 20
77.9914
 11
-2.61195
 21
77.3562
  0
LINE
  8
0
 10
-2.61195
 20
77.3562
 11
-2.92082
 21
76.75
  0
LINE
  8
0
 10
-2.92082
 20
76.75
 11
-3.29138
 21
76.1794
  0
LINE
  8
0
 10
-3.29138
 20
76.1794
 11
-3.71954
 21
75.6507
  0
LINE
  8
0
 10
-3.71954
 20
75.6507
 11
-4.20064
 21
75.1696
  0
LINE
  8
0
 10
-4.20064
 20
75.1696
 11
-4.72939
 21
74.7414
  0
LINE
  8
0
 10
-4.72939
 20
74.7414
 11
-5.29999
 21
74.3708
  0
LINE
  8
0
 10
-5.29999
 20
74.3708
 11
-5.9062
 21
74.062
  0
LINE
  8
0
 10
-5.9062
 20
74.062
 11
-6.54138
 21
73.8181
  0
LINE
  8
0
 10
-6.54138
 20
73.8181
 11
-7.19856
 21
73.642
  0
LINE
  8
0
 10
-7.19856
 20
73.642
 11
-7.87056
 21
73.5356
  0
LINE
  8
0
 10
-7.87056
 20
73.5356
 11
-8.54999
 21
73.5
  0
LINE
  8
0
 10
-8.54999
 20
73.5
 11
-9.22943
 21
73.5356
  0
LINE
  8
0
 10
-9
 20
19.5
 11
-9
 21
58
  0
LINE
  8
0
 10
-9
 20
58
 11
-2
 21
58
  0
LINE
  8
0
 10
-2
 20
58
 11
-2
 21
19.5
  0
LINE
  8
0
 10
-2
 20
19.5
 11
-9
 21
19.5
  0
ENDSEC
  0
SECTION
  2
OBJECTS
  0
DICTIONARY
  0
ENDSEC
  0
EOF
