  0
SECTION
  2
BLOCKS
  0
ENDSEC
  0
SECTION
  2
ENTITIES
  0
LINE
  8
0
 10
6.89999
 20
-0.5
 11
14.6
 21
-0.5
  0
LINE
  8
0
 10
14.6
 20
-0.5
 11
14.6
 21
-3.5
  0
LINE
  8
0
 10
14.6
 20
-3.5
 11
21.9
 21
-3.5
  0
LINE
  8
0
 10
21.9
 20
-3.5
 11
21.9
 21
-0.5
  0
LINE
  8
0
 10
21.9
 20
-0.5
 11
29.6
 21
-0.5
  0
LINE
  8
0
 10
29.6
 20
-0.5
 11
29.6
 21
-3.5
  0
LINE
  8
0
 10
29.6
 20
-3.5
 11
36.9
 21
-3.5
  0
LINE
  8
0
 10
36.9
 20
-3.5
 11
36.9
 21
-0.5
  0
LINE
  8
0
 10
36.9
 20
-0.5
 11
37
 21
-0.5
  0
LINE
  8
0
 10
37
 20
-0.5
 11
37
 21
6.22726
  0
LINE
  8
0
 10
37
 20
6.22726
 11
40
 21
6.22726
  0
LINE
  8
0
 10
40
 20
6.22726
 11
40
 21
15.4091
  0
LINE
  8
0
 10
40
 20
15.4091
 11
37
 21
15.4091
  0
LINE
  8
0
 10
37
 20
15.4091
 11
37
 21
25.6818
  0
LINE
  8
0
 10
37
 20
25.6818
 11
40
 21
25.6818
  0
LINE
  8
0
 10
40
 20
25.6818
 11
40
 21
34.8636
  0
LINE
  8
0
 10
40
 20
34.8636
 11
37
 21
34.8636
  0
LINE
  8
0
 10
37
 20
34.8636
 11
37
 21
45.1364
  0
LINE
  8
0
 10
37
 20
45.1364
 11
40
 21
45.1364
  0
LINE
  8
0
 10
40
 20
45.1364
 11
40
 21
54.3182
  0
LINE
  8
0
 10
40
 20
54.3182
 11
37
 21
54.3182
  0
LINE
  8
0
 10
37
 20
54.3182
 11
37
 21
64.5909
  0
LINE
  8
0
 10
37
 20
64.5909
 11
40
 21
64.5909
  0
LINE
  8
0
 10
40
 20
64.5909
 11
40
 21
73.7727
  0
LINE
  8
0
 10
40
 20
73.7727
 11
37
 21
73.7727
  0
LINE
  8
0
 10
37
 20
73.7727
 11
37
 21
84.0455
  0
LINE
  8
0
 10
37
 20
84.0455
 11
40
 21
84.0455
  0
LINE
  8
0
 10
40
 20
84.0455
 11
40
 21
93.2273
  0
LINE
  8
0
 10
40
 20
93.2273
 11
37
 21
93.2273
  0
LINE
  8
0
 10
37
 20
93.2273
 11
37
 21
100.5
  0
LINE
  8
0
 10
37
 20
100.5
 11
36.9
 21
100.5
  0
LINE
  8
0
 10
36.9
 20
100.5
 11
36.9
 21
103.5
  0
LINE
  8
0
 10
36.9
 20
103.5
 11
29.6
 21
103.5
  0
LINE
  8
0
 10
29.6
 20
103.5
 11
29.6
 21
100.5
  0
LINE
  8
0
 10
29.6
 20
100.5
 11
21.9
 21
100.5
  0
LINE
  8
0
 10
21.9
 20
100.5
 11
21.9
 21
103.5
  0
LINE
  8
0
 10
21.9
 20
103.5
 11
14.6
 21
103.5
  0
LINE
  8
0
 10
14.6
 20
103.5
 11
14.6
 21
100.5
  0
LINE
  8
0
 10
14.6
 20
100.5
 11
6.89999
 21
100.5
  0
LINE
  8
0
 10
6.89999
 20
100.5
 11
6.89999
 21
103.5
  0
LINE
  8
0
 10
6.89999
 20
103.5
 11
-0.399994
 21
103.5
  0
LINE
  8
0
 10
-0.399994
 20
103.5
 11
-0.399994
 21
100.5
  0
LINE
  8
0
 10
-0.399994
 20
100.5
 11
-8
 21
100.5
  0
LINE
  8
0
 10
-8
 20
100.5
 11
-8
 21
93.2273
  0
LINE
  8
0
 10
-8
 20
93.2273
 11
-11
 21
93.2273
  0
LINE
  8
0
 10
-11
 20
93.2273
 11
-11
 21
84.0455
  0
LINE
  8
0
 10
-11
 20
84.0455
 11
-8
 21
84.0455
  0
LINE
  8
0
 10
-8
 20
84.0455
 11
-8
 21
73.7727
  0
LINE
  8
0
 10
-8
 20
73.7727
 11
-11
 21
73.7727
  0
LINE
  8
0
 10
-11
 20
73.7727
 11
-11
 21
64.5909
  0
LINE
  8
0
 10
-11
 20
64.5909
 11
-8
 21
64.5909
  0
LINE
  8
0
 10
-8
 20
64.5909
 11
-8
 21
54.3182
  0
LINE
  8
0
 10
-8
 20
54.3182
 11
-11
 21
54.3182
  0
LINE
  8
0
 10
-11
 20
54.3182
 11
-11
 21
45.1364
  0
LINE
  8
0
 10
-11
 20
45.1364
 11
-8
 21
45.1364
  0
LINE
  8
0
 10
-8
 20
45.1364
 11
-8
 21
34.8636
  0
LINE
  8
0
 10
-8
 20
34.8636
 11
-11
 21
34.8636
  0
LINE
  8
0
 10
-11
 20
34.8636
 11
-11
 21
25.6818
  0
LINE
  8
0
 10
-11
 20
25.6818
 11
-8
 21
25.6818
  0
LINE
  8
0
 10
-8
 20
25.6818
 11
-8
 21
15.4091
  0
LINE
  8
0
 10
-8
 20
15.4091
 11
-11
 21
15.4091
  0
LINE
  8
0
 10
-11
 20
15.4091
 11
-11
 21
6.22726
  0
LINE
  8
0
 10
-11
 20
6.22726
 11
-8
 21
6.22726
  0
LINE
  8
0
 10
-8
 20
6.22726
 11
-8
 21
-0.5
  0
LINE
  8
0
 10
-8
 20
-0.5
 11
-0.399994
 21
-0.5
  0
LINE
  8
0
 10
-0.399994
 20
-0.5
 11
-0.399994
 21
-3.5
  0
LINE
  8
0
 10
-0.399994
 20
-3.5
 11
6.89999
 21
-3.5
  0
LINE
  8
0
 10
6.89999
 20
-3.5
 11
6.89999
 21
-0.5
  0
ENDSEC
  0
SECTION
  2
OBJECTS
  0
DICTIONARY
  0
ENDSEC
  0
EOF
