  0
SECTION
  2
BLOCKS
  0
ENDSEC
  0
SECTION
  2
ENTITIES
  0
LINE
  8
0
 10
125.523
 20
-9.9726
 11
126.04
 21
-9.89073
  0
LINE
  8
0
 10
126.04
 20
-9.89073
 11
126.545
 21
-9.75528
  0
LINE
  8
0
 10
126.545
 20
-9.75528
 11
127.034
 21
-9.56772
  0
LINE
  8
0
 10
127.034
 20
-9.56772
 11
127.5
 21
-9.33012
  0
LINE
  8
0
 10
127.5
 20
-9.33012
 11
127.939
 21
-9.04507
  0
LINE
  8
0
 10
127.939
 20
-9.04507
 11
128.346
 21
-8.71571
  0
LINE
  8
0
 10
128.346
 20
-8.71571
 11
128.716
 21
-8.34564
  0
LINE
  8
0
 10
128.716
 20
-8.34564
 11
129.045
 21
-7.93892
  0
LINE
  8
0
 10
129.045
 20
-7.93892
 11
129.33
 21
-7.5
  0
LINE
  8
0
 10
129.33
 20
-7.5
 11
129.568
 21
-7.03368
  0
LINE
  8
0
 10
129.568
 20
-7.03368
 11
129.755
 21
-6.54507
  0
LINE
  8
0
 10
129.755
 20
-6.54507
 11
129.891
 21
-6.03955
  0
LINE
  8
0
 10
129.891
 20
-6.03955
 11
129.973
 21
-5.52263
  0
LINE
  8
0
 10
129.973
 20
-5.52263
 11
130
 21
-5
  0
LINE
  8
0
 10
130
 20
-5
 11
130
 21
105
  0
LINE
  8
0
 10
130
 20
105
 11
129.973
 21
105.523
  0
LINE
  8
0
 10
129.973
 20
105.523
 11
129.891
 21
106.04
  0
LINE
  8
0
 10
129.891
 20
106.04
 11
129.755
 21
106.545
  0
LINE
  8
0
 10
129.755
 20
106.545
 11
129.568
 21
107.034
  0
LINE
  8
0
 10
129.568
 20
107.034
 11
129.33
 21
107.5
  0
LINE
  8
0
 10
129.33
 20
107.5
 11
129.045
 21
107.939
  0
LINE
  8
0
 10
129.045
 20
107.939
 11
128.716
 21
108.346
  0
LINE
  8
0
 10
128.716
 20
108.346
 11
128.346
 21
108.716
  0
LINE
  8
0
 10
128.346
 20
108.716
 11
127.939
 21
109.045
  0
LINE
  8
0
 10
127.939
 20
109.045
 11
127.5
 21
109.33
  0
LINE
  8
0
 10
127.5
 20
109.33
 11
127.034
 21
109.568
  0
LINE
  8
0
 10
127.034
 20
109.568
 11
126.545
 21
109.755
  0
LINE
  8
0
 10
126.545
 20
109.755
 11
126.04
 21
109.891
  0
LINE
  8
0
 10
126.04
 20
109.891
 11
125.523
 21
109.973
  0
LINE
  8
0
 10
125.523
 20
109.973
 11
125
 21
110
  0
LINE
  8
0
 10
125
 20
110
 11
-5
 21
110
  0
LINE
  8
0
 10
-5
 20
110
 11
-5.52263
 21
109.973
  0
LINE
  8
0
 10
-5.52263
 20
109.973
 11
-6.03955
 21
109.891
  0
LINE
  8
0
 10
-6.03955
 20
109.891
 11
-6.54507
 21
109.755
  0
LINE
  8
0
 10
-6.54507
 20
109.755
 11
-7.03368
 21
109.568
  0
LINE
  8
0
 10
-7.03368
 20
109.568
 11
-7.5
 21
109.33
  0
LINE
  8
0
 10
-7.5
 20
109.33
 11
-7.93892
 21
109.045
  0
LINE
  8
0
 10
-7.93892
 20
109.045
 11
-8.34564
 21
108.716
  0
LINE
  8
0
 10
-8.34564
 20
108.716
 11
-8.71571
 21
108.346
  0
LINE
  8
0
 10
-8.71571
 20
108.346
 11
-9.04507
 21
107.939
  0
LINE
  8
0
 10
-9.04507
 20
107.939
 11
-9.33012
 21
107.5
  0
LINE
  8
0
 10
-9.33012
 20
107.5
 11
-9.56772
 21
107.034
  0
LINE
  8
0
 10
-9.56772
 20
107.034
 11
-9.75528
 21
106.545
  0
LINE
  8
0
 10
-9.75528
 20
106.545
 11
-9.89073
 21
106.04
  0
LINE
  8
0
 10
-9.89073
 20
106.04
 11
-9.9726
 21
105.523
  0
LINE
  8
0
 10
-9.9726
 20
105.523
 11
-10
 21
105
  0
LINE
  8
0
 10
-10
 20
105
 11
-10
 21
-5
  0
LINE
  8
0
 10
-10
 20
-5
 11
-9.9726
 21
-5.52263
  0
LINE
  8
0
 10
-9.9726
 20
-5.52263
 11
-9.89073
 21
-6.03955
  0
LINE
  8
0
 10
-9.89073
 20
-6.03955
 11
-9.75528
 21
-6.54507
  0
LINE
  8
0
 10
-9.75528
 20
-6.54507
 11
-9.56772
 21
-7.03368
  0
LINE
  8
0
 10
-9.56772
 20
-7.03368
 11
-9.33012
 21
-7.5
  0
LINE
  8
0
 10
-9.33012
 20
-7.5
 11
-9.04507
 21
-7.93892
  0
LINE
  8
0
 10
-9.04507
 20
-7.93892
 11
-8.71571
 21
-8.34564
  0
LINE
  8
0
 10
-8.71571
 20
-8.34564
 11
-8.34564
 21
-8.71571
  0
LINE
  8
0
 10
-8.34564
 20
-8.71571
 11
-7.93892
 21
-9.04507
  0
LINE
  8
0
 10
-7.93892
 20
-9.04507
 11
-7.5
 21
-9.33012
  0
LINE
  8
0
 10
-7.5
 20
-9.33012
 11
-7.03368
 21
-9.56772
  0
LINE
  8
0
 10
-7.03368
 20
-9.56772
 11
-6.54507
 21
-9.75528
  0
LINE
  8
0
 10
-6.54507
 20
-9.75528
 11
-6.03955
 21
-9.89073
  0
LINE
  8
0
 10
-6.03955
 20
-9.89073
 11
-5.52263
 21
-9.9726
  0
LINE
  8
0
 10
-5.52263
 20
-9.9726
 11
-5
 21
-10
  0
LINE
  8
0
 10
-5
 20
-10
 11
125
 21
-10
  0
LINE
  8
0
 10
125
 20
-10
 11
125.523
 21
-9.9726
  0
LINE
  8
0
 10
31.0364
 20
100.4
 11
31.0364
 21
103.6
  0
LINE
  8
0
 10
31.0364
 20
103.6
 11
45.3475
 21
103.6
  0
LINE
  8
0
 10
45.3475
 20
103.6
 11
45.3475
 21
100.4
  0
LINE
  8
0
 10
45.3475
 20
100.4
 11
31.0364
 21
100.4
  0
LINE
  8
0
 10
7.94545
 20
100.4
 11
7.94545
 21
103.6
  0
LINE
  8
0
 10
7.94545
 20
103.6
 11
22.2566
 21
103.6
  0
LINE
  8
0
 10
22.2566
 20
103.6
 11
22.2566
 21
100.4
  0
LINE
  8
0
 10
22.2566
 20
100.4
 11
7.94545
 21
100.4
  0
LINE
  8
0
 10
77.2182
 20
100.4
 11
77.2182
 21
103.6
  0
LINE
  8
0
 10
77.2182
 20
103.6
 11
91.5293
 21
103.6
  0
LINE
  8
0
 10
91.5293
 20
103.6
 11
91.5293
 21
100.4
  0
LINE
  8
0
 10
91.5293
 20
100.4
 11
77.2182
 21
100.4
  0
LINE
  8
0
 10
54.1273
 20
100.4
 11
54.1273
 21
103.6
  0
LINE
  8
0
 10
54.1273
 20
103.6
 11
68.4384
 21
103.6
  0
LINE
  8
0
 10
68.4384
 20
103.6
 11
68.4384
 21
100.4
  0
LINE
  8
0
 10
68.4384
 20
100.4
 11
54.1273
 21
100.4
  0
LINE
  8
0
 10
100.309
 20
100.4
 11
100.309
 21
103.6
  0
LINE
  8
0
 10
100.309
 20
103.6
 11
114.62
 21
103.6
  0
LINE
  8
0
 10
114.62
 20
103.6
 11
114.62
 21
100.4
  0
LINE
  8
0
 10
114.62
 20
100.4
 11
100.309
 21
100.4
  0
LINE
  8
0
 10
46.75
 20
51.75
 11
46.436
 21
51.7599
  0
LINE
  8
0
 10
46.436
 20
51.7599
 11
46.1233
 21
51.7894
  0
LINE
  8
0
 10
46.1233
 20
51.7894
 11
45.8131
 21
51.8386
  0
LINE
  8
0
 10
45.8131
 20
51.8386
 11
45.5065
 21
51.9071
  0
LINE
  8
0
 10
45.5065
 20
51.9071
 11
45.2049
 21
51.9947
  0
LINE
  8
0
 10
45.2049
 20
51.9947
 11
44.9094
 21
52.1011
  0
LINE
  8
0
 10
44.9094
 20
52.1011
 11
44.6211
 21
52.2259
  0
LINE
  8
0
 10
44.6211
 20
52.2259
 11
44.3412
 21
52.3685
  0
LINE
  8
0
 10
44.3412
 20
52.3685
 11
44.0709
 21
52.5284
  0
LINE
  8
0
 10
44.0709
 20
52.5284
 11
43.8111
 21
52.7049
  0
LINE
  8
0
 10
43.8111
 20
52.7049
 11
43.5629
 21
52.8974
  0
LINE
  8
0
 10
43.5629
 20
52.8974
 11
43.3273
 21
53.1051
  0
LINE
  8
0
 10
43.3273
 20
53.1051
 11
43.1051
 21
53.3273
  0
LINE
  8
0
 10
43.1051
 20
53.3273
 11
42.8974
 21
53.5629
  0
LINE
  8
0
 10
42.8974
 20
53.5629
 11
42.7049
 21
53.8111
  0
LINE
  8
0
 10
42.7049
 20
53.8111
 11
42.5284
 21
54.0709
  0
LINE
  8
0
 10
42.5284
 20
54.0709
 11
42.3685
 21
54.3412
  0
LINE
  8
0
 10
42.3685
 20
54.3412
 11
42.2259
 21
54.6211
  0
LINE
  8
0
 10
42.2259
 20
54.6211
 11
42.1011
 21
54.9094
  0
LINE
  8
0
 10
42.1011
 20
54.9094
 11
41.9947
 21
55.2049
  0
LINE
  8
0
 10
41.9947
 20
55.2049
 11
41.9071
 21
55.5065
  0
LINE
  8
0
 10
41.9071
 20
55.5065
 11
41.8386
 21
55.8131
  0
LINE
  8
0
 10
41.8386
 20
55.8131
 11
41.7894
 21
56.1233
  0
LINE
  8
0
 10
41.7894
 20
56.1233
 11
41.7599
 21
56.436
  0
LINE
  8
0
 10
41.7599
 20
56.436
 11
41.75
 21
56.75
  0
LINE
  8
0
 10
41.75
 20
56.75
 11
41.75
 21
93.25
  0
LINE
  8
0
 10
41.75
 20
93.25
 11
41.7599
 21
93.5639
  0
LINE
  8
0
 10
41.7599
 20
93.5639
 11
41.7894
 21
93.8767
  0
LINE
  8
0
 10
41.7894
 20
93.8767
 11
41.8386
 21
94.1869
  0
LINE
  8
0
 10
41.8386
 20
94.1869
 11
41.9071
 21
94.4934
  0
LINE
  8
0
 10
41.9071
 20
94.4934
 11
41.9947
 21
94.7951
  0
LINE
  8
0
 10
41.9947
 20
94.7951
 11
42.1011
 21
95.0906
  0
LINE
  8
0
 10
42.1011
 20
95.0906
 11
42.2259
 21
95.3789
  0
LINE
  8
0
 10
42.2259
 20
95.3789
 11
42.3685
 21
95.6588
  0
LINE
  8
0
 10
42.3685
 20
95.6588
 11
42.5284
 21
95.9291
  0
LINE
  8
0
 10
42.5284
 20
95.9291
 11
42.7049
 21
96.1889
  0
LINE
  8
0
 10
42.7049
 20
96.1889
 11
42.8974
 21
96.4371
  0
LINE
  8
0
 10
42.8974
 20
96.4371
 11
43.1051
 21
96.6727
  0
LINE
  8
0
 10
43.1051
 20
96.6727
 11
43.3273
 21
96.8948
  0
LINE
  8
0
 10
43.3273
 20
96.8948
 11
43.5629
 21
97.1026
  0
LINE
  8
0
 10
43.5629
 20
97.1026
 11
43.8111
 21
97.2951
  0
LINE
  8
0
 10
43.8111
 20
97.2951
 11
44.0709
 21
97.4716
  0
LINE
  8
0
 10
44.0709
 20
97.4716
 11
44.3412
 21
97.6315
  0
LINE
  8
0
 10
44.3412
 20
97.6315
 11
44.6211
 21
97.7741
  0
LINE
  8
0
 10
44.6211
 20
97.7741
 11
44.9094
 21
97.8989
  0
LINE
  8
0
 10
44.9094
 20
97.8989
 11
45.2049
 21
98.0053
  0
LINE
  8
0
 10
45.2049
 20
98.0053
 11
45.5065
 21
98.0929
  0
LINE
  8
0
 10
45.5065
 20
98.0929
 11
45.8131
 21
98.1614
  0
LINE
  8
0
 10
45.8131
 20
98.1614
 11
46.1233
 21
98.2106
  0
LINE
  8
0
 10
46.1233
 20
98.2106
 11
46.436
 21
98.2401
  0
LINE
  8
0
 10
46.436
 20
98.2401
 11
46.75
 21
98.25
  0
LINE
  8
0
 10
46.75
 20
98.25
 11
53.25
 21
98.25
  0
LINE
  8
0
 10
53.25
 20
98.25
 11
53.5639
 21
98.2401
  0
LINE
  8
0
 10
53.5639
 20
98.2401
 11
53.8767
 21
98.2106
  0
LINE
  8
0
 10
53.8767
 20
98.2106
 11
54.1869
 21
98.1614
  0
LINE
  8
0
 10
54.1869
 20
98.1614
 11
54.4934
 21
98.0929
  0
LINE
  8
0
 10
54.4934
 20
98.0929
 11
54.7951
 21
98.0053
  0
LINE
  8
0
 10
54.7951
 20
98.0053
 11
55.0906
 21
97.8989
  0
LINE
  8
0
 10
55.0906
 20
97.8989
 11
55.3789
 21
97.7741
  0
LINE
  8
0
 10
55.3789
 20
97.7741
 11
55.6588
 21
97.6315
  0
LINE
  8
0
 10
55.6588
 20
97.6315
 11
55.9291
 21
97.4716
  0
LINE
  8
0
 10
55.9291
 20
97.4716
 11
56.1889
 21
97.2951
  0
LINE
  8
0
 10
56.1889
 20
97.2951
 11
56.4371
 21
97.1026
  0
LINE
  8
0
 10
56.4371
 20
97.1026
 11
56.6727
 21
96.8948
  0
LINE
  8
0
 10
56.6727
 20
96.8948
 11
56.8948
 21
96.6727
  0
LINE
  8
0
 10
56.8948
 20
96.6727
 11
57.1026
 21
96.4371
  0
LINE
  8
0
 10
57.1026
 20
96.4371
 11
57.2951
 21
96.1889
  0
LINE
  8
0
 10
57.2951
 20
96.1889
 11
57.4716
 21
95.9291
  0
LINE
  8
0
 10
57.4716
 20
95.9291
 11
57.6315
 21
95.6588
  0
LINE
  8
0
 10
57.6315
 20
95.6588
 11
57.7741
 21
95.3789
  0
LINE
  8
0
 10
57.7741
 20
95.3789
 11
57.8989
 21
95.0906
  0
LINE
  8
0
 10
57.8989
 20
95.0906
 11
58.0053
 21
94.7951
  0
LINE
  8
0
 10
58.0053
 20
94.7951
 11
58.0929
 21
94.4934
  0
LINE
  8
0
 10
58.0929
 20
94.4934
 11
58.1614
 21
94.1869
  0
LINE
  8
0
 10
58.1614
 20
94.1869
 11
58.2106
 21
93.8767
  0
LINE
  8
0
 10
58.2106
 20
93.8767
 11
58.2401
 21
93.5639
  0
LINE
  8
0
 10
58.2401
 20
93.5639
 11
58.25
 21
93.25
  0
LINE
  8
0
 10
58.25
 20
93.25
 11
58.25
 21
56.75
  0
LINE
  8
0
 10
58.25
 20
56.75
 11
58.2401
 21
56.436
  0
LINE
  8
0
 10
58.2401
 20
56.436
 11
58.2106
 21
56.1233
  0
LINE
  8
0
 10
58.2106
 20
56.1233
 11
58.1614
 21
55.8131
  0
LINE
  8
0
 10
58.1614
 20
55.8131
 11
58.0929
 21
55.5065
  0
LINE
  8
0
 10
58.0929
 20
55.5065
 11
58.0053
 21
55.2049
  0
LINE
  8
0
 10
58.0053
 20
55.2049
 11
57.8989
 21
54.9094
  0
LINE
  8
0
 10
57.8989
 20
54.9094
 11
57.7741
 21
54.6211
  0
LINE
  8
0
 10
57.7741
 20
54.6211
 11
57.6315
 21
54.3412
  0
LINE
  8
0
 10
57.6315
 20
54.3412
 11
57.4716
 21
54.0709
  0
LINE
  8
0
 10
57.4716
 20
54.0709
 11
57.2951
 21
53.8111
  0
LINE
  8
0
 10
57.2951
 20
53.8111
 11
57.1026
 21
53.5629
  0
LINE
  8
0
 10
57.1026
 20
53.5629
 11
56.8948
 21
53.3273
  0
LINE
  8
0
 10
56.8948
 20
53.3273
 11
56.6727
 21
53.1051
  0
LINE
  8
0
 10
56.6727
 20
53.1051
 11
56.4371
 21
52.8974
  0
LINE
  8
0
 10
56.4371
 20
52.8974
 11
56.1889
 21
52.7049
  0
LINE
  8
0
 10
56.1889
 20
52.7049
 11
55.9291
 21
52.5284
  0
LINE
  8
0
 10
55.9291
 20
52.5284
 11
55.6588
 21
52.3685
  0
LINE
  8
0
 10
55.6588
 20
52.3685
 11
55.3789
 21
52.2259
  0
LINE
  8
0
 10
55.3789
 20
52.2259
 11
55.0906
 21
52.1011
  0
LINE
  8
0
 10
55.0906
 20
52.1011
 11
54.7951
 21
51.9947
  0
LINE
  8
0
 10
54.7951
 20
51.9947
 11
54.4934
 21
51.9071
  0
LINE
  8
0
 10
54.4934
 20
51.9071
 11
54.1869
 21
51.8386
  0
LINE
  8
0
 10
54.1869
 20
51.8386
 11
53.8767
 21
51.7894
  0
LINE
  8
0
 10
53.8767
 20
51.7894
 11
53.5639
 21
51.7599
  0
LINE
  8
0
 10
53.5639
 20
51.7599
 11
53.25
 21
51.75
  0
LINE
  8
0
 10
53.25
 20
51.75
 11
46.75
 21
51.75
  0
LINE
  8
0
 10
120.4
 20
83.9454
 11
120.4
 21
93.3273
  0
LINE
  8
0
 10
120.4
 20
93.3273
 11
123.6
 21
93.3273
  0
LINE
  8
0
 10
123.6
 20
93.3273
 11
123.6
 21
83.9454
  0
LINE
  8
0
 10
123.6
 20
83.9454
 11
120.4
 21
83.9454
  0
LINE
  8
0
 10
-3.59999
 20
83.9454
 11
-3.59999
 21
93.3273
  0
LINE
  8
0
 10
-3.59999
 20
93.3273
 11
-0.399994
 21
93.3273
  0
LINE
  8
0
 10
-0.399994
 20
93.3273
 11
-0.399994
 21
83.9454
  0
LINE
  8
0
 10
-0.399994
 20
83.9454
 11
-3.59999
 21
83.9454
  0
LINE
  8
0
 10
66.75
 20
51.75
 11
66.4361
 21
51.7599
  0
LINE
  8
0
 10
66.4361
 20
51.7599
 11
66.1233
 21
51.7894
  0
LINE
  8
0
 10
66.1233
 20
51.7894
 11
65.8131
 21
51.8386
  0
LINE
  8
0
 10
65.8131
 20
51.8386
 11
65.5065
 21
51.9071
  0
LINE
  8
0
 10
65.5065
 20
51.9071
 11
65.2049
 21
51.9947
  0
LINE
  8
0
 10
65.2049
 20
51.9947
 11
64.9094
 21
52.1011
  0
LINE
  8
0
 10
64.9094
 20
52.1011
 11
64.6211
 21
52.2259
  0
LINE
  8
0
 10
64.6211
 20
52.2259
 11
64.3412
 21
52.3685
  0
LINE
  8
0
 10
64.3412
 20
52.3685
 11
64.0709
 21
52.5284
  0
LINE
  8
0
 10
64.0709
 20
52.5284
 11
63.8111
 21
52.7049
  0
LINE
  8
0
 10
63.8111
 20
52.7049
 11
63.5629
 21
52.8974
  0
LINE
  8
0
 10
63.5629
 20
52.8974
 11
63.3273
 21
53.1051
  0
LINE
  8
0
 10
63.3273
 20
53.1051
 11
63.1051
 21
53.3273
  0
LINE
  8
0
 10
63.1051
 20
53.3273
 11
62.8974
 21
53.5629
  0
LINE
  8
0
 10
62.8974
 20
53.5629
 11
62.7049
 21
53.8111
  0
LINE
  8
0
 10
62.7049
 20
53.8111
 11
62.5284
 21
54.0709
  0
LINE
  8
0
 10
62.5284
 20
54.0709
 11
62.3685
 21
54.3412
  0
LINE
  8
0
 10
62.3685
 20
54.3412
 11
62.2259
 21
54.6211
  0
LINE
  8
0
 10
62.2259
 20
54.6211
 11
62.1011
 21
54.9094
  0
LINE
  8
0
 10
62.1011
 20
54.9094
 11
61.9947
 21
55.2049
  0
LINE
  8
0
 10
61.9947
 20
55.2049
 11
61.9071
 21
55.5065
  0
LINE
  8
0
 10
61.9071
 20
55.5065
 11
61.8386
 21
55.8131
  0
LINE
  8
0
 10
61.8386
 20
55.8131
 11
61.7894
 21
56.1233
  0
LINE
  8
0
 10
61.7894
 20
56.1233
 11
61.7599
 21
56.436
  0
LINE
  8
0
 10
61.7599
 20
56.436
 11
61.75
 21
56.75
  0
LINE
  8
0
 10
61.75
 20
56.75
 11
61.75
 21
78.25
  0
LINE
  8
0
 10
61.75
 20
78.25
 11
61.7599
 21
78.5639
  0
LINE
  8
0
 10
61.7599
 20
78.5639
 11
61.7894
 21
78.8767
  0
LINE
  8
0
 10
61.7894
 20
78.8767
 11
61.8386
 21
79.1869
  0
LINE
  8
0
 10
61.8386
 20
79.1869
 11
61.9071
 21
79.4934
  0
LINE
  8
0
 10
61.9071
 20
79.4934
 11
61.9947
 21
79.7951
  0
LINE
  8
0
 10
61.9947
 20
79.7951
 11
62.1011
 21
80.0906
  0
LINE
  8
0
 10
62.1011
 20
80.0906
 11
62.2259
 21
80.3789
  0
LINE
  8
0
 10
62.2259
 20
80.3789
 11
62.3685
 21
80.6588
  0
LINE
  8
0
 10
62.3685
 20
80.6588
 11
62.5284
 21
80.9291
  0
LINE
  8
0
 10
62.5284
 20
80.9291
 11
62.7049
 21
81.1889
  0
LINE
  8
0
 10
62.7049
 20
81.1889
 11
62.8974
 21
81.4371
  0
LINE
  8
0
 10
62.8974
 20
81.4371
 11
63.1051
 21
81.6727
  0
LINE
  8
0
 10
63.1051
 20
81.6727
 11
63.3273
 21
81.8948
  0
LINE
  8
0
 10
63.3273
 20
81.8948
 11
63.5629
 21
82.1026
  0
LINE
  8
0
 10
63.5629
 20
82.1026
 11
63.8111
 21
82.2951
  0
LINE
  8
0
 10
63.8111
 20
82.2951
 11
64.0709
 21
82.4716
  0
LINE
  8
0
 10
64.0709
 20
82.4716
 11
64.3412
 21
82.6315
  0
LINE
  8
0
 10
64.3412
 20
82.6315
 11
64.6211
 21
82.7741
  0
LINE
  8
0
 10
64.6211
 20
82.7741
 11
64.9094
 21
82.8989
  0
LINE
  8
0
 10
64.9094
 20
82.8989
 11
65.2049
 21
83.0053
  0
LINE
  8
0
 10
65.2049
 20
83.0053
 11
65.5065
 21
83.0929
  0
LINE
  8
0
 10
65.5065
 20
83.0929
 11
65.8131
 21
83.1614
  0
LINE
  8
0
 10
65.8131
 20
83.1614
 11
66.1233
 21
83.2106
  0
LINE
  8
0
 10
66.1233
 20
83.2106
 11
66.4361
 21
83.2401
  0
LINE
  8
0
 10
66.4361
 20
83.2401
 11
66.75
 21
83.25
  0
LINE
  8
0
 10
66.75
 20
83.25
 11
113.25
 21
83.25
  0
LINE
  8
0
 10
113.25
 20
83.25
 11
113.564
 21
83.2401
  0
LINE
  8
0
 10
113.564
 20
83.2401
 11
113.877
 21
83.2106
  0
LINE
  8
0
 10
113.877
 20
83.2106
 11
114.187
 21
83.1614
  0
LINE
  8
0
 10
114.187
 20
83.1614
 11
114.493
 21
83.0929
  0
LINE
  8
0
 10
114.493
 20
83.0929
 11
114.795
 21
83.0053
  0
LINE
  8
0
 10
114.795
 20
83.0053
 11
115.091
 21
82.8989
  0
LINE
  8
0
 10
115.091
 20
82.8989
 11
115.379
 21
82.7741
  0
LINE
  8
0
 10
115.379
 20
82.7741
 11
115.659
 21
82.6315
  0
LINE
  8
0
 10
115.659
 20
82.6315
 11
115.929
 21
82.4716
  0
LINE
  8
0
 10
115.929
 20
82.4716
 11
116.189
 21
82.2951
  0
LINE
  8
0
 10
116.189
 20
82.2951
 11
116.437
 21
82.1026
  0
LINE
  8
0
 10
116.437
 20
82.1026
 11
116.673
 21
81.8948
  0
LINE
  8
0
 10
116.673
 20
81.8948
 11
116.895
 21
81.6727
  0
LINE
  8
0
 10
116.895
 20
81.6727
 11
117.103
 21
81.4371
  0
LINE
  8
0
 10
117.103
 20
81.4371
 11
117.295
 21
81.1889
  0
LINE
  8
0
 10
117.295
 20
81.1889
 11
117.472
 21
80.9291
  0
LINE
  8
0
 10
117.472
 20
80.9291
 11
117.632
 21
80.6588
  0
LINE
  8
0
 10
117.632
 20
80.6588
 11
117.774
 21
80.3789
  0
LINE
  8
0
 10
117.774
 20
80.3789
 11
117.899
 21
80.0906
  0
LINE
  8
0
 10
117.899
 20
80.0906
 11
118.005
 21
79.7951
  0
LINE
  8
0
 10
118.005
 20
79.7951
 11
118.093
 21
79.4934
  0
LINE
  8
0
 10
118.093
 20
79.4934
 11
118.161
 21
79.1869
  0
LINE
  8
0
 10
118.161
 20
79.1869
 11
118.211
 21
78.8767
  0
LINE
  8
0
 10
118.211
 20
78.8767
 11
118.24
 21
78.5639
  0
LINE
  8
0
 10
118.24
 20
78.5639
 11
118.25
 21
78.25
  0
LINE
  8
0
 10
118.25
 20
78.25
 11
118.25
 21
56.75
  0
LINE
  8
0
 10
118.25
 20
56.75
 11
118.24
 21
56.436
  0
LINE
  8
0
 10
118.24
 20
56.436
 11
118.211
 21
56.1233
  0
LINE
  8
0
 10
118.211
 20
56.1233
 11
118.161
 21
55.8131
  0
LINE
  8
0
 10
118.161
 20
55.8131
 11
118.093
 21
55.5065
  0
LINE
  8
0
 10
118.093
 20
55.5065
 11
118.005
 21
55.2049
  0
LINE
  8
0
 10
118.005
 20
55.2049
 11
117.899
 21
54.9094
  0
LINE
  8
0
 10
117.899
 20
54.9094
 11
117.774
 21
54.6211
  0
LINE
  8
0
 10
117.774
 20
54.6211
 11
117.632
 21
54.3412
  0
LINE
  8
0
 10
117.632
 20
54.3412
 11
117.472
 21
54.0709
  0
LINE
  8
0
 10
117.472
 20
54.0709
 11
117.295
 21
53.8111
  0
LINE
  8
0
 10
117.295
 20
53.8111
 11
117.103
 21
53.5629
  0
LINE
  8
0
 10
117.103
 20
53.5629
 11
116.895
 21
53.3273
  0
LINE
  8
0
 10
116.895
 20
53.3273
 11
116.673
 21
53.1051
  0
LINE
  8
0
 10
116.673
 20
53.1051
 11
116.437
 21
52.8974
  0
LINE
  8
0
 10
116.437
 20
52.8974
 11
116.189
 21
52.7049
  0
LINE
  8
0
 10
116.189
 20
52.7049
 11
115.929
 21
52.5284
  0
LINE
  8
0
 10
115.929
 20
52.5284
 11
115.659
 21
52.3685
  0
LINE
  8
0
 10
115.659
 20
52.3685
 11
115.379
 21
52.2259
  0
LINE
  8
0
 10
115.379
 20
52.2259
 11
115.091
 21
52.1011
  0
LINE
  8
0
 10
115.091
 20
52.1011
 11
114.795
 21
51.9947
  0
LINE
  8
0
 10
114.795
 20
51.9947
 11
114.493
 21
51.9071
  0
LINE
  8
0
 10
114.493
 20
51.9071
 11
114.187
 21
51.8386
  0
LINE
  8
0
 10
114.187
 20
51.8386
 11
113.877
 21
51.7894
  0
LINE
  8
0
 10
113.877
 20
51.7894
 11
113.564
 21
51.7599
  0
LINE
  8
0
 10
113.564
 20
51.7599
 11
113.25
 21
51.75
  0
LINE
  8
0
 10
113.25
 20
51.75
 11
66.75
 21
51.75
  0
LINE
  8
0
 10
19.8432
 20
78.5082
 11
19.6881
 21
78.5328
  0
LINE
  8
0
 10
19.6881
 20
78.5328
 11
19.5365
 21
78.5734
  0
LINE
  8
0
 10
19.5365
 20
78.5734
 11
19.3899
 21
78.6297
  0
LINE
  8
0
 10
19.3899
 20
78.6297
 11
19.25
 21
78.701
  0
LINE
  8
0
 10
19.25
 20
78.701
 11
19.1183
 21
78.7865
  0
LINE
  8
0
 10
19.1183
 20
78.7865
 11
18.9963
 21
78.8853
  0
LINE
  8
0
 10
18.9963
 20
78.8853
 11
18.8853
 21
78.9963
  0
LINE
  8
0
 10
18.8853
 20
78.9963
 11
18.7865
 21
79.1183
  0
LINE
  8
0
 10
18.7865
 20
79.1183
 11
18.701
 21
79.25
  0
LINE
  8
0
 10
18.701
 20
79.25
 11
18.6297
 21
79.3899
  0
LINE
  8
0
 10
18.6297
 20
79.3899
 11
18.5734
 21
79.5365
  0
LINE
  8
0
 10
18.5734
 20
79.5365
 11
18.5328
 21
79.6881
  0
LINE
  8
0
 10
18.5328
 20
79.6881
 11
18.5082
 21
79.8432
  0
LINE
  8
0
 10
18.5082
 20
79.8432
 11
18.5
 21
80
  0
LINE
  8
0
 10
18.5
 20
80
 11
18.5082
 21
80.1568
  0
LINE
  8
0
 10
18.5082
 20
80.1568
 11
18.5328
 21
80.3119
  0
LINE
  8
0
 10
18.5328
 20
80.3119
 11
18.5734
 21
80.4635
  0
LINE
  8
0
 10
18.5734
 20
80.4635
 11
18.6297
 21
80.6101
  0
LINE
  8
0
 10
18.6297
 20
80.6101
 11
18.701
 21
80.75
  0
LINE
  8
0
 10
18.701
 20
80.75
 11
18.7865
 21
80.8817
  0
LINE
  8
0
 10
18.7865
 20
80.8817
 11
18.8853
 21
81.0037
  0
LINE
  8
0
 10
18.8853
 20
81.0037
 11
18.9963
 21
81.1147
  0
LINE
  8
0
 10
18.9963
 20
81.1147
 11
19.1183
 21
81.2135
  0
LINE
  8
0
 10
19.1183
 20
81.2135
 11
19.25
 21
81.299
  0
LINE
  8
0
 10
19.25
 20
81.299
 11
19.3899
 21
81.3703
  0
LINE
  8
0
 10
19.3899
 20
81.3703
 11
19.5365
 21
81.4266
  0
LINE
  8
0
 10
19.5365
 20
81.4266
 11
19.6881
 21
81.4672
  0
LINE
  8
0
 10
19.6881
 20
81.4672
 11
19.8432
 21
81.4918
  0
LINE
  8
0
 10
19.8432
 20
81.4918
 11
20
 21
81.5
  0
LINE
  8
0
 10
20
 20
81.5
 11
20.1568
 21
81.4918
  0
LINE
  8
0
 10
20.1568
 20
81.4918
 11
20.3119
 21
81.4672
  0
LINE
  8
0
 10
20.3119
 20
81.4672
 11
20.4635
 21
81.4266
  0
LINE
  8
0
 10
20.4635
 20
81.4266
 11
20.6101
 21
81.3703
  0
LINE
  8
0
 10
20.6101
 20
81.3703
 11
20.75
 21
81.299
  0
LINE
  8
0
 10
20.75
 20
81.299
 11
20.8817
 21
81.2135
  0
LINE
  8
0
 10
20.8817
 20
81.2135
 11
21.0037
 21
81.1147
  0
LINE
  8
0
 10
21.0037
 20
81.1147
 11
21.1147
 21
81.0037
  0
LINE
  8
0
 10
21.1147
 20
81.0037
 11
21.2135
 21
80.8817
  0
LINE
  8
0
 10
21.2135
 20
80.8817
 11
21.299
 21
80.75
  0
LINE
  8
0
 10
21.299
 20
80.75
 11
21.3703
 21
80.6101
  0
LINE
  8
0
 10
21.3703
 20
80.6101
 11
21.4266
 21
80.4635
  0
LINE
  8
0
 10
21.4266
 20
80.4635
 11
21.4672
 21
80.3119
  0
LINE
  8
0
 10
21.4672
 20
80.3119
 11
21.4918
 21
80.1568
  0
LINE
  8
0
 10
21.4918
 20
80.1568
 11
21.5
 21
80
  0
LINE
  8
0
 10
21.5
 20
80
 11
21.4918
 21
79.8432
  0
LINE
  8
0
 10
21.4918
 20
79.8432
 11
21.4672
 21
79.6881
  0
LINE
  8
0
 10
21.4672
 20
79.6881
 11
21.4266
 21
79.5365
  0
LINE
  8
0
 10
21.4266
 20
79.5365
 11
21.3703
 21
79.3899
  0
LINE
  8
0
 10
21.3703
 20
79.3899
 11
21.299
 21
79.25
  0
LINE
  8
0
 10
21.299
 20
79.25
 11
21.2135
 21
79.1183
  0
LINE
  8
0
 10
21.2135
 20
79.1183
 11
21.1147
 21
78.9963
  0
LINE
  8
0
 10
21.1147
 20
78.9963
 11
21.0037
 21
78.8853
  0
LINE
  8
0
 10
21.0037
 20
78.8853
 11
20.8817
 21
78.7865
  0
LINE
  8
0
 10
20.8817
 20
78.7865
 11
20.75
 21
78.701
  0
LINE
  8
0
 10
20.75
 20
78.701
 11
20.6101
 21
78.6297
  0
LINE
  8
0
 10
20.6101
 20
78.6297
 11
20.4635
 21
78.5734
  0
LINE
  8
0
 10
20.4635
 20
78.5734
 11
20.3119
 21
78.5328
  0
LINE
  8
0
 10
20.3119
 20
78.5328
 11
20.1568
 21
78.5082
  0
LINE
  8
0
 10
20.1568
 20
78.5082
 11
20
 21
78.5
  0
LINE
  8
0
 10
20
 20
78.5
 11
19.8432
 21
78.5082
  0
LINE
  8
0
 10
120.4
 20
64.4909
 11
120.4
 21
73.8727
  0
LINE
  8
0
 10
120.4
 20
73.8727
 11
123.6
 21
73.8727
  0
LINE
  8
0
 10
123.6
 20
73.8727
 11
123.6
 21
64.4909
  0
LINE
  8
0
 10
123.6
 20
64.4909
 11
120.4
 21
64.4909
  0
LINE
  8
0
 10
-3.59999
 20
64.4909
 11
-3.59999
 21
73.8727
  0
LINE
  8
0
 10
-3.59999
 20
73.8727
 11
-0.399994
 21
73.8727
  0
LINE
  8
0
 10
-0.399994
 20
73.8727
 11
-0.399994
 21
64.4909
  0
LINE
  8
0
 10
-0.399994
 20
64.4909
 11
-3.59999
 21
64.4909
  0
LINE
  8
0
 10
120.4
 20
45.0364
 11
120.4
 21
54.4182
  0
LINE
  8
0
 10
120.4
 20
54.4182
 11
123.6
 21
54.4182
  0
LINE
  8
0
 10
123.6
 20
54.4182
 11
123.6
 21
45.0364
  0
LINE
  8
0
 10
123.6
 20
45.0364
 11
120.4
 21
45.0364
  0
LINE
  8
0
 10
-3.59999
 20
45.0364
 11
-3.59999
 21
54.4182
  0
LINE
  8
0
 10
-3.59999
 20
54.4182
 11
-0.399994
 21
54.4182
  0
LINE
  8
0
 10
-0.399994
 20
54.4182
 11
-0.399994
 21
45.0364
  0
LINE
  8
0
 10
-0.399994
 20
45.0364
 11
-3.59999
 21
45.0364
  0
LINE
  8
0
 10
46.75
 20
1.75
 11
46.436
 21
1.75986
  0
LINE
  8
0
 10
46.436
 20
1.75986
 11
46.1233
 21
1.78941
  0
LINE
  8
0
 10
46.1233
 20
1.78941
 11
45.8131
 21
1.83856
  0
LINE
  8
0
 10
45.8131
 20
1.83856
 11
45.5065
 21
1.90707
  0
LINE
  8
0
 10
45.5065
 20
1.90707
 11
45.2049
 21
1.99471
  0
LINE
  8
0
 10
45.2049
 20
1.99471
 11
44.9094
 21
2.1011
  0
LINE
  8
0
 10
44.9094
 20
2.1011
 11
44.6211
 21
2.22586
  0
LINE
  8
0
 10
44.6211
 20
2.22586
 11
44.3412
 21
2.36845
  0
LINE
  8
0
 10
44.3412
 20
2.36845
 11
44.0709
 21
2.52835
  0
LINE
  8
0
 10
44.0709
 20
2.52835
 11
43.8111
 21
2.70491
  0
LINE
  8
0
 10
43.8111
 20
2.70491
 11
43.5629
 21
2.89743
  0
LINE
  8
0
 10
43.5629
 20
2.89743
 11
43.3273
 21
3.10515
  0
LINE
  8
0
 10
43.3273
 20
3.10515
 11
43.1051
 21
3.32726
  0
LINE
  8
0
 10
43.1051
 20
3.32726
 11
42.8974
 21
3.56287
  0
LINE
  8
0
 10
42.8974
 20
3.56287
 11
42.7049
 21
3.81107
  0
LINE
  8
0
 10
42.7049
 20
3.81107
 11
42.5284
 21
4.07086
  0
LINE
  8
0
 10
42.5284
 20
4.07086
 11
42.3685
 21
4.34123
  0
LINE
  8
0
 10
42.3685
 20
4.34123
 11
42.2259
 21
4.62109
  0
LINE
  8
0
 10
42.2259
 20
4.62109
 11
42.1011
 21
4.90938
  0
LINE
  8
0
 10
42.1011
 20
4.90938
 11
41.9947
 21
5.20491
  0
LINE
  8
0
 10
41.9947
 20
5.20491
 11
41.9071
 21
5.50655
  0
LINE
  8
0
 10
41.9071
 20
5.50655
 11
41.8386
 21
5.81308
  0
LINE
  8
0
 10
41.8386
 20
5.81308
 11
41.7894
 21
6.12332
  0
LINE
  8
0
 10
41.7894
 20
6.12332
 11
41.7599
 21
6.43604
  0
LINE
  8
0
 10
41.7599
 20
6.43604
 11
41.75
 21
6.75
  0
LINE
  8
0
 10
41.75
 20
6.75
 11
41.75
 21
43.25
  0
LINE
  8
0
 10
41.75
 20
43.25
 11
41.7599
 21
43.5639
  0
LINE
  8
0
 10
41.7599
 20
43.5639
 11
41.7894
 21
43.8767
  0
LINE
  8
0
 10
41.7894
 20
43.8767
 11
41.8386
 21
44.1869
  0
LINE
  8
0
 10
41.8386
 20
44.1869
 11
41.9071
 21
44.4934
  0
LINE
  8
0
 10
41.9071
 20
44.4934
 11
41.9947
 21
44.7951
  0
LINE
  8
0
 10
41.9947
 20
44.7951
 11
42.1011
 21
45.0906
  0
LINE
  8
0
 10
42.1011
 20
45.0906
 11
42.2259
 21
45.3789
  0
LINE
  8
0
 10
42.2259
 20
45.3789
 11
42.3685
 21
45.6588
  0
LINE
  8
0
 10
42.3685
 20
45.6588
 11
42.5284
 21
45.9291
  0
LINE
  8
0
 10
42.5284
 20
45.9291
 11
42.7049
 21
46.1889
  0
LINE
  8
0
 10
42.7049
 20
46.1889
 11
42.8974
 21
46.4371
  0
LINE
  8
0
 10
42.8974
 20
46.4371
 11
43.1051
 21
46.6727
  0
LINE
  8
0
 10
43.1051
 20
46.6727
 11
43.3273
 21
46.8948
  0
LINE
  8
0
 10
43.3273
 20
46.8948
 11
43.5629
 21
47.1026
  0
LINE
  8
0
 10
43.5629
 20
47.1026
 11
43.8111
 21
47.2951
  0
LINE
  8
0
 10
43.8111
 20
47.2951
 11
44.0709
 21
47.4716
  0
LINE
  8
0
 10
44.0709
 20
47.4716
 11
44.3412
 21
47.6315
  0
LINE
  8
0
 10
44.3412
 20
47.6315
 11
44.6211
 21
47.7741
  0
LINE
  8
0
 10
44.6211
 20
47.7741
 11
44.9094
 21
47.8989
  0
LINE
  8
0
 10
44.9094
 20
47.8989
 11
45.2049
 21
48.0053
  0
LINE
  8
0
 10
45.2049
 20
48.0053
 11
45.5065
 21
48.0929
  0
LINE
  8
0
 10
45.5065
 20
48.0929
 11
45.8131
 21
48.1614
  0
LINE
  8
0
 10
45.8131
 20
48.1614
 11
46.1233
 21
48.2106
  0
LINE
  8
0
 10
46.1233
 20
48.2106
 11
46.436
 21
48.2401
  0
LINE
  8
0
 10
46.436
 20
48.2401
 11
46.75
 21
48.25
  0
LINE
  8
0
 10
46.75
 20
48.25
 11
53.25
 21
48.25
  0
LINE
  8
0
 10
53.25
 20
48.25
 11
53.5639
 21
48.2401
  0
LINE
  8
0
 10
53.5639
 20
48.2401
 11
53.8767
 21
48.2106
  0
LINE
  8
0
 10
53.8767
 20
48.2106
 11
54.1869
 21
48.1614
  0
LINE
  8
0
 10
54.1869
 20
48.1614
 11
54.4934
 21
48.0929
  0
LINE
  8
0
 10
54.4934
 20
48.0929
 11
54.7951
 21
48.0053
  0
LINE
  8
0
 10
54.7951
 20
48.0053
 11
55.0906
 21
47.8989
  0
LINE
  8
0
 10
55.0906
 20
47.8989
 11
55.3789
 21
47.7741
  0
LINE
  8
0
 10
55.3789
 20
47.7741
 11
55.6588
 21
47.6315
  0
LINE
  8
0
 10
55.6588
 20
47.6315
 11
55.9291
 21
47.4716
  0
LINE
  8
0
 10
55.9291
 20
47.4716
 11
56.1889
 21
47.2951
  0
LINE
  8
0
 10
56.1889
 20
47.2951
 11
56.4371
 21
47.1026
  0
LINE
  8
0
 10
56.4371
 20
47.1026
 11
56.6727
 21
46.8948
  0
LINE
  8
0
 10
56.6727
 20
46.8948
 11
56.8948
 21
46.6727
  0
LINE
  8
0
 10
56.8948
 20
46.6727
 11
57.1026
 21
46.4371
  0
LINE
  8
0
 10
57.1026
 20
46.4371
 11
57.2951
 21
46.1889
  0
LINE
  8
0
 10
57.2951
 20
46.1889
 11
57.4716
 21
45.9291
  0
LINE
  8
0
 10
57.4716
 20
45.9291
 11
57.6315
 21
45.6588
  0
LINE
  8
0
 10
57.6315
 20
45.6588
 11
57.7741
 21
45.3789
  0
LINE
  8
0
 10
57.7741
 20
45.3789
 11
57.8989
 21
45.0906
  0
LINE
  8
0
 10
57.8989
 20
45.0906
 11
58.0053
 21
44.7951
  0
LINE
  8
0
 10
58.0053
 20
44.7951
 11
58.0929
 21
44.4934
  0
LINE
  8
0
 10
58.0929
 20
44.4934
 11
58.1614
 21
44.1869
  0
LINE
  8
0
 10
58.1614
 20
44.1869
 11
58.2106
 21
43.8767
  0
LINE
  8
0
 10
58.2106
 20
43.8767
 11
58.2401
 21
43.5639
  0
LINE
  8
0
 10
58.2401
 20
43.5639
 11
58.25
 21
43.25
  0
LINE
  8
0
 10
58.25
 20
43.25
 11
58.25
 21
6.75
  0
LINE
  8
0
 10
58.25
 20
6.75
 11
58.2401
 21
6.43604
  0
LINE
  8
0
 10
58.2401
 20
6.43604
 11
58.2106
 21
6.12332
  0
LINE
  8
0
 10
58.2106
 20
6.12332
 11
58.1614
 21
5.81308
  0
LINE
  8
0
 10
58.1614
 20
5.81308
 11
58.0929
 21
5.50655
  0
LINE
  8
0
 10
58.0929
 20
5.50655
 11
58.0053
 21
5.20491
  0
LINE
  8
0
 10
58.0053
 20
5.20491
 11
57.8989
 21
4.90938
  0
LINE
  8
0
 10
57.8989
 20
4.90938
 11
57.7741
 21
4.62109
  0
LINE
  8
0
 10
57.7741
 20
4.62109
 11
57.6315
 21
4.34123
  0
LINE
  8
0
 10
57.6315
 20
4.34123
 11
57.4716
 21
4.07086
  0
LINE
  8
0
 10
57.4716
 20
4.07086
 11
57.2951
 21
3.81107
  0
LINE
  8
0
 10
57.2951
 20
3.81107
 11
57.1026
 21
3.56287
  0
LINE
  8
0
 10
57.1026
 20
3.56287
 11
56.8948
 21
3.32726
  0
LINE
  8
0
 10
56.8948
 20
3.32726
 11
56.6727
 21
3.10515
  0
LINE
  8
0
 10
56.6727
 20
3.10515
 11
56.4371
 21
2.89743
  0
LINE
  8
0
 10
56.4371
 20
2.89743
 11
56.1889
 21
2.70491
  0
LINE
  8
0
 10
56.1889
 20
2.70491
 11
55.9291
 21
2.52835
  0
LINE
  8
0
 10
55.9291
 20
2.52835
 11
55.6588
 21
2.36845
  0
LINE
  8
0
 10
55.6588
 20
2.36845
 11
55.3789
 21
2.22586
  0
LINE
  8
0
 10
55.3789
 20
2.22586
 11
55.0906
 21
2.1011
  0
LINE
  8
0
 10
55.0906
 20
2.1011
 11
54.7951
 21
1.99471
  0
LINE
  8
0
 10
54.7951
 20
1.99471
 11
54.4934
 21
1.90707
  0
LINE
  8
0
 10
54.4934
 20
1.90707
 11
54.1869
 21
1.83856
  0
LINE
  8
0
 10
54.1869
 20
1.83856
 11
53.8767
 21
1.78941
  0
LINE
  8
0
 10
53.8767
 20
1.78941
 11
53.5639
 21
1.75986
  0
LINE
  8
0
 10
53.5639
 20
1.75986
 11
53.25
 21
1.75
  0
LINE
  8
0
 10
53.25
 20
1.75
 11
46.75
 21
1.75
  0
LINE
  8
0
 10
66.75
 20
16.75
 11
66.4361
 21
16.7599
  0
LINE
  8
0
 10
66.4361
 20
16.7599
 11
66.1233
 21
16.7894
  0
LINE
  8
0
 10
66.1233
 20
16.7894
 11
65.8131
 21
16.8386
  0
LINE
  8
0
 10
65.8131
 20
16.8386
 11
65.5065
 21
16.9071
  0
LINE
  8
0
 10
65.5065
 20
16.9071
 11
65.2049
 21
16.9947
  0
LINE
  8
0
 10
65.2049
 20
16.9947
 11
64.9094
 21
17.1011
  0
LINE
  8
0
 10
64.9094
 20
17.1011
 11
64.6211
 21
17.2259
  0
LINE
  8
0
 10
64.6211
 20
17.2259
 11
64.3412
 21
17.3685
  0
LINE
  8
0
 10
64.3412
 20
17.3685
 11
64.0709
 21
17.5284
  0
LINE
  8
0
 10
64.0709
 20
17.5284
 11
63.8111
 21
17.7049
  0
LINE
  8
0
 10
63.8111
 20
17.7049
 11
63.5629
 21
17.8974
  0
LINE
  8
0
 10
63.5629
 20
17.8974
 11
63.3273
 21
18.1051
  0
LINE
  8
0
 10
63.3273
 20
18.1051
 11
63.1051
 21
18.3273
  0
LINE
  8
0
 10
63.1051
 20
18.3273
 11
62.8974
 21
18.5629
  0
LINE
  8
0
 10
62.8974
 20
18.5629
 11
62.7049
 21
18.8111
  0
LINE
  8
0
 10
62.7049
 20
18.8111
 11
62.5284
 21
19.0709
  0
LINE
  8
0
 10
62.5284
 20
19.0709
 11
62.3685
 21
19.3412
  0
LINE
  8
0
 10
62.3685
 20
19.3412
 11
62.2259
 21
19.6211
  0
LINE
  8
0
 10
62.2259
 20
19.6211
 11
62.1011
 21
19.9094
  0
LINE
  8
0
 10
62.1011
 20
19.9094
 11
61.9947
 21
20.2049
  0
LINE
  8
0
 10
61.9947
 20
20.2049
 11
61.9071
 21
20.5065
  0
LINE
  8
0
 10
61.9071
 20
20.5065
 11
61.8386
 21
20.8131
  0
LINE
  8
0
 10
61.8386
 20
20.8131
 11
61.7894
 21
21.1233
  0
LINE
  8
0
 10
61.7894
 20
21.1233
 11
61.7599
 21
21.436
  0
LINE
  8
0
 10
61.7599
 20
21.436
 11
61.75
 21
21.75
  0
LINE
  8
0
 10
61.75
 20
21.75
 11
61.75
 21
43.25
  0
LINE
  8
0
 10
61.75
 20
43.25
 11
61.7599
 21
43.5639
  0
LINE
  8
0
 10
61.7599
 20
43.5639
 11
61.7894
 21
43.8767
  0
LINE
  8
0
 10
61.7894
 20
43.8767
 11
61.8386
 21
44.1869
  0
LINE
  8
0
 10
61.8386
 20
44.1869
 11
61.9071
 21
44.4934
  0
LINE
  8
0
 10
61.9071
 20
44.4934
 11
61.9947
 21
44.7951
  0
LINE
  8
0
 10
61.9947
 20
44.7951
 11
62.1011
 21
45.0906
  0
LINE
  8
0
 10
62.1011
 20
45.0906
 11
62.2259
 21
45.3789
  0
LINE
  8
0
 10
62.2259
 20
45.3789
 11
62.3685
 21
45.6588
  0
LINE
  8
0
 10
62.3685
 20
45.6588
 11
62.5284
 21
45.9291
  0
LINE
  8
0
 10
62.5284
 20
45.9291
 11
62.7049
 21
46.1889
  0
LINE
  8
0
 10
62.7049
 20
46.1889
 11
62.8974
 21
46.4371
  0
LINE
  8
0
 10
62.8974
 20
46.4371
 11
63.1051
 21
46.6727
  0
LINE
  8
0
 10
63.1051
 20
46.6727
 11
63.3273
 21
46.8948
  0
LINE
  8
0
 10
63.3273
 20
46.8948
 11
63.5629
 21
47.1026
  0
LINE
  8
0
 10
63.5629
 20
47.1026
 11
63.8111
 21
47.2951
  0
LINE
  8
0
 10
63.8111
 20
47.2951
 11
64.0709
 21
47.4716
  0
LINE
  8
0
 10
64.0709
 20
47.4716
 11
64.3412
 21
47.6315
  0
LINE
  8
0
 10
64.3412
 20
47.6315
 11
64.6211
 21
47.7741
  0
LINE
  8
0
 10
64.6211
 20
47.7741
 11
64.9094
 21
47.8989
  0
LINE
  8
0
 10
64.9094
 20
47.8989
 11
65.2049
 21
48.0053
  0
LINE
  8
0
 10
65.2049
 20
48.0053
 11
65.5065
 21
48.0929
  0
LINE
  8
0
 10
65.5065
 20
48.0929
 11
65.8131
 21
48.1614
  0
LINE
  8
0
 10
65.8131
 20
48.1614
 11
66.1233
 21
48.2106
  0
LINE
  8
0
 10
66.1233
 20
48.2106
 11
66.4361
 21
48.2401
  0
LINE
  8
0
 10
66.4361
 20
48.2401
 11
66.75
 21
48.25
  0
LINE
  8
0
 10
66.75
 20
48.25
 11
113.25
 21
48.25
  0
LINE
  8
0
 10
113.25
 20
48.25
 11
113.564
 21
48.2401
  0
LINE
  8
0
 10
113.564
 20
48.2401
 11
113.877
 21
48.2106
  0
LINE
  8
0
 10
113.877
 20
48.2106
 11
114.187
 21
48.1614
  0
LINE
  8
0
 10
114.187
 20
48.1614
 11
114.493
 21
48.0929
  0
LINE
  8
0
 10
114.493
 20
48.0929
 11
114.795
 21
48.0053
  0
LINE
  8
0
 10
114.795
 20
48.0053
 11
115.091
 21
47.8989
  0
LINE
  8
0
 10
115.091
 20
47.8989
 11
115.379
 21
47.7741
  0
LINE
  8
0
 10
115.379
 20
47.7741
 11
115.659
 21
47.6315
  0
LINE
  8
0
 10
115.659
 20
47.6315
 11
115.929
 21
47.4716
  0
LINE
  8
0
 10
115.929
 20
47.4716
 11
116.189
 21
47.2951
  0
LINE
  8
0
 10
116.189
 20
47.2951
 11
116.437
 21
47.1026
  0
LINE
  8
0
 10
116.437
 20
47.1026
 11
116.673
 21
46.8948
  0
LINE
  8
0
 10
116.673
 20
46.8948
 11
116.895
 21
46.6727
  0
LINE
  8
0
 10
116.895
 20
46.6727
 11
117.103
 21
46.4371
  0
LINE
  8
0
 10
117.103
 20
46.4371
 11
117.295
 21
46.1889
  0
LINE
  8
0
 10
117.295
 20
46.1889
 11
117.472
 21
45.9291
  0
LINE
  8
0
 10
117.472
 20
45.9291
 11
117.632
 21
45.6588
  0
LINE
  8
0
 10
117.632
 20
45.6588
 11
117.774
 21
45.3789
  0
LINE
  8
0
 10
117.774
 20
45.3789
 11
117.899
 21
45.0906
  0
LINE
  8
0
 10
117.899
 20
45.0906
 11
118.005
 21
44.7951
  0
LINE
  8
0
 10
118.005
 20
44.7951
 11
118.093
 21
44.4934
  0
LINE
  8
0
 10
118.093
 20
44.4934
 11
118.161
 21
44.1869
  0
LINE
  8
0
 10
118.161
 20
44.1869
 11
118.211
 21
43.8767
  0
LINE
  8
0
 10
118.211
 20
43.8767
 11
118.24
 21
43.5639
  0
LINE
  8
0
 10
118.24
 20
43.5639
 11
118.25
 21
43.25
  0
LINE
  8
0
 10
118.25
 20
43.25
 11
118.25
 21
21.75
  0
LINE
  8
0
 10
118.25
 20
21.75
 11
118.24
 21
21.436
  0
LINE
  8
0
 10
118.24
 20
21.436
 11
118.211
 21
21.1233
  0
LINE
  8
0
 10
118.211
 20
21.1233
 11
118.161
 21
20.8131
  0
LINE
  8
0
 10
118.161
 20
20.8131
 11
118.093
 21
20.5065
  0
LINE
  8
0
 10
118.093
 20
20.5065
 11
118.005
 21
20.2049
  0
LINE
  8
0
 10
118.005
 20
20.2049
 11
117.899
 21
19.9094
  0
LINE
  8
0
 10
117.899
 20
19.9094
 11
117.774
 21
19.6211
  0
LINE
  8
0
 10
117.774
 20
19.6211
 11
117.632
 21
19.3412
  0
LINE
  8
0
 10
117.632
 20
19.3412
 11
117.472
 21
19.0709
  0
LINE
  8
0
 10
117.472
 20
19.0709
 11
117.295
 21
18.8111
  0
LINE
  8
0
 10
117.295
 20
18.8111
 11
117.103
 21
18.5629
  0
LINE
  8
0
 10
117.103
 20
18.5629
 11
116.895
 21
18.3273
  0
LINE
  8
0
 10
116.895
 20
18.3273
 11
116.673
 21
18.1051
  0
LINE
  8
0
 10
116.673
 20
18.1051
 11
116.437
 21
17.8974
  0
LINE
  8
0
 10
116.437
 20
17.8974
 11
116.189
 21
17.7049
  0
LINE
  8
0
 10
116.189
 20
17.7049
 11
115.929
 21
17.5284
  0
LINE
  8
0
 10
115.929
 20
17.5284
 11
115.659
 21
17.3685
  0
LINE
  8
0
 10
115.659
 20
17.3685
 11
115.379
 21
17.2259
  0
LINE
  8
0
 10
115.379
 20
17.2259
 11
115.091
 21
17.1011
  0
LINE
  8
0
 10
115.091
 20
17.1011
 11
114.795
 21
16.9947
  0
LINE
  8
0
 10
114.795
 20
16.9947
 11
114.493
 21
16.9071
  0
LINE
  8
0
 10
114.493
 20
16.9071
 11
114.187
 21
16.8386
  0
LINE
  8
0
 10
114.187
 20
16.8386
 11
113.877
 21
16.7894
  0
LINE
  8
0
 10
113.877
 20
16.7894
 11
113.564
 21
16.7599
  0
LINE
  8
0
 10
113.564
 20
16.7599
 11
113.25
 21
16.75
  0
LINE
  8
0
 10
113.25
 20
16.75
 11
66.75
 21
16.75
  0
LINE
  8
0
 10
-3.59999
 20
25.5818
 11
-3.59999
 21
34.9636
  0
LINE
  8
0
 10
-3.59999
 20
34.9636
 11
-0.399994
 21
34.9636
  0
LINE
  8
0
 10
-0.399994
 20
34.9636
 11
-0.399994
 21
25.5818
  0
LINE
  8
0
 10
-0.399994
 20
25.5818
 11
-3.59999
 21
25.5818
  0
LINE
  8
0
 10
120.4
 20
25.5818
 11
120.4
 21
34.9636
  0
LINE
  8
0
 10
120.4
 20
34.9636
 11
123.6
 21
34.9636
  0
LINE
  8
0
 10
123.6
 20
34.9636
 11
123.6
 21
25.5818
  0
LINE
  8
0
 10
123.6
 20
25.5818
 11
120.4
 21
25.5818
  0
LINE
  8
0
 10
19.8432
 20
18.5082
 11
19.6881
 21
18.5328
  0
LINE
  8
0
 10
19.6881
 20
18.5328
 11
19.5365
 21
18.5734
  0
LINE
  8
0
 10
19.5365
 20
18.5734
 11
19.3899
 21
18.6297
  0
LINE
  8
0
 10
19.3899
 20
18.6297
 11
19.25
 21
18.701
  0
LINE
  8
0
 10
19.25
 20
18.701
 11
19.1183
 21
18.7865
  0
LINE
  8
0
 10
19.1183
 20
18.7865
 11
18.9963
 21
18.8853
  0
LINE
  8
0
 10
18.9963
 20
18.8853
 11
18.8853
 21
18.9963
  0
LINE
  8
0
 10
18.8853
 20
18.9963
 11
18.7865
 21
19.1183
  0
LINE
  8
0
 10
18.7865
 20
19.1183
 11
18.701
 21
19.25
  0
LINE
  8
0
 10
18.701
 20
19.25
 11
18.6297
 21
19.3899
  0
LINE
  8
0
 10
18.6297
 20
19.3899
 11
18.5734
 21
19.5365
  0
LINE
  8
0
 10
18.5734
 20
19.5365
 11
18.5328
 21
19.6881
  0
LINE
  8
0
 10
18.5328
 20
19.6881
 11
18.5082
 21
19.8432
  0
LINE
  8
0
 10
18.5082
 20
19.8432
 11
18.5
 21
20
  0
LINE
  8
0
 10
18.5
 20
20
 11
18.5082
 21
20.1568
  0
LINE
  8
0
 10
18.5082
 20
20.1568
 11
18.5328
 21
20.3119
  0
LINE
  8
0
 10
18.5328
 20
20.3119
 11
18.5734
 21
20.4635
  0
LINE
  8
0
 10
18.5734
 20
20.4635
 11
18.6297
 21
20.6101
  0
LINE
  8
0
 10
18.6297
 20
20.6101
 11
18.701
 21
20.75
  0
LINE
  8
0
 10
18.701
 20
20.75
 11
18.7865
 21
20.8817
  0
LINE
  8
0
 10
18.7865
 20
20.8817
 11
18.8853
 21
21.0037
  0
LINE
  8
0
 10
18.8853
 20
21.0037
 11
18.9963
 21
21.1147
  0
LINE
  8
0
 10
18.9963
 20
21.1147
 11
19.1183
 21
21.2135
  0
LINE
  8
0
 10
19.1183
 20
21.2135
 11
19.25
 21
21.299
  0
LINE
  8
0
 10
19.25
 20
21.299
 11
19.3899
 21
21.3703
  0
LINE
  8
0
 10
19.3899
 20
21.3703
 11
19.5365
 21
21.4266
  0
LINE
  8
0
 10
19.5365
 20
21.4266
 11
19.6881
 21
21.4672
  0
LINE
  8
0
 10
19.6881
 20
21.4672
 11
19.8432
 21
21.4918
  0
LINE
  8
0
 10
19.8432
 20
21.4918
 11
20
 21
21.5
  0
LINE
  8
0
 10
20
 20
21.5
 11
20.1568
 21
21.4918
  0
LINE
  8
0
 10
20.1568
 20
21.4918
 11
20.3119
 21
21.4672
  0
LINE
  8
0
 10
20.3119
 20
21.4672
 11
20.4635
 21
21.4266
  0
LINE
  8
0
 10
20.4635
 20
21.4266
 11
20.6101
 21
21.3703
  0
LINE
  8
0
 10
20.6101
 20
21.3703
 11
20.75
 21
21.299
  0
LINE
  8
0
 10
20.75
 20
21.299
 11
20.8817
 21
21.2135
  0
LINE
  8
0
 10
20.8817
 20
21.2135
 11
21.0037
 21
21.1147
  0
LINE
  8
0
 10
21.0037
 20
21.1147
 11
21.1147
 21
21.0037
  0
LINE
  8
0
 10
21.1147
 20
21.0037
 11
21.2135
 21
20.8817
  0
LINE
  8
0
 10
21.2135
 20
20.8817
 11
21.299
 21
20.75
  0
LINE
  8
0
 10
21.299
 20
20.75
 11
21.3703
 21
20.6101
  0
LINE
  8
0
 10
21.3703
 20
20.6101
 11
21.4266
 21
20.4635
  0
LINE
  8
0
 10
21.4266
 20
20.4635
 11
21.4672
 21
20.3119
  0
LINE
  8
0
 10
21.4672
 20
20.3119
 11
21.4918
 21
20.1568
  0
LINE
  8
0
 10
21.4918
 20
20.1568
 11
21.5
 21
20
  0
LINE
  8
0
 10
21.5
 20
20
 11
21.4918
 21
19.8432
  0
LINE
  8
0
 10
21.4918
 20
19.8432
 11
21.4672
 21
19.6881
  0
LINE
  8
0
 10
21.4672
 20
19.6881
 11
21.4266
 21
19.5365
  0
LINE
  8
0
 10
21.4266
 20
19.5365
 11
21.3703
 21
19.3899
  0
LINE
  8
0
 10
21.3703
 20
19.3899
 11
21.299
 21
19.25
  0
LINE
  8
0
 10
21.299
 20
19.25
 11
21.2135
 21
19.1183
  0
LINE
  8
0
 10
21.2135
 20
19.1183
 11
21.1147
 21
18.9963
  0
LINE
  8
0
 10
21.1147
 20
18.9963
 11
21.0037
 21
18.8853
  0
LINE
  8
0
 10
21.0037
 20
18.8853
 11
20.8817
 21
18.7865
  0
LINE
  8
0
 10
20.8817
 20
18.7865
 11
20.75
 21
18.701
  0
LINE
  8
0
 10
20.75
 20
18.701
 11
20.6101
 21
18.6297
  0
LINE
  8
0
 10
20.6101
 20
18.6297
 11
20.4635
 21
18.5734
  0
LINE
  8
0
 10
20.4635
 20
18.5734
 11
20.3119
 21
18.5328
  0
LINE
  8
0
 10
20.3119
 20
18.5328
 11
20.1568
 21
18.5082
  0
LINE
  8
0
 10
20.1568
 20
18.5082
 11
20
 21
18.5
  0
LINE
  8
0
 10
20
 20
18.5
 11
19.8432
 21
18.5082
  0
LINE
  8
0
 10
-3.59999
 20
6.12726
 11
-3.59999
 21
15.5091
  0
LINE
  8
0
 10
-3.59999
 20
15.5091
 11
-0.399994
 21
15.5091
  0
LINE
  8
0
 10
-0.399994
 20
15.5091
 11
-0.399994
 21
6.12726
  0
LINE
  8
0
 10
-0.399994
 20
6.12726
 11
-3.59999
 21
6.12726
  0
LINE
  8
0
 10
120.4
 20
6.12726
 11
120.4
 21
15.5091
  0
LINE
  8
0
 10
120.4
 20
15.5091
 11
123.6
 21
15.5091
  0
LINE
  8
0
 10
123.6
 20
15.5091
 11
123.6
 21
6.12726
  0
LINE
  8
0
 10
123.6
 20
6.12726
 11
120.4
 21
6.12726
  0
LINE
  8
0
 10
100.309
 20
-3.59999
 11
100.309
 21
-0.399994
  0
LINE
  8
0
 10
100.309
 20
-0.399994
 11
113.209
 21
-0.399994
  0
LINE
  8
0
 10
113.209
 20
-0.399994
 11
113.209
 21
-3.59999
  0
LINE
  8
0
 10
113.209
 20
-3.59999
 11
100.309
 21
-3.59999
  0
LINE
  8
0
 10
54.1273
 20
-3.59999
 11
54.1273
 21
-0.399994
  0
LINE
  8
0
 10
54.1273
 20
-0.399994
 11
67.0273
 21
-0.399994
  0
LINE
  8
0
 10
67.0273
 20
-0.399994
 11
67.0273
 21
-3.59999
  0
LINE
  8
0
 10
67.0273
 20
-3.59999
 11
54.1273
 21
-3.59999
  0
LINE
  8
0
 10
31.0364
 20
-3.59999
 11
31.0364
 21
-0.399994
  0
LINE
  8
0
 10
31.0364
 20
-0.399994
 11
43.9364
 21
-0.399994
  0
LINE
  8
0
 10
43.9364
 20
-0.399994
 11
43.9364
 21
-3.59999
  0
LINE
  8
0
 10
43.9364
 20
-3.59999
 11
31.0364
 21
-3.59999
  0
LINE
  8
0
 10
77.2182
 20
-3.59999
 11
77.2182
 21
-0.399994
  0
LINE
  8
0
 10
77.2182
 20
-0.399994
 11
90.1182
 21
-0.399994
  0
LINE
  8
0
 10
90.1182
 20
-0.399994
 11
90.1182
 21
-3.59999
  0
LINE
  8
0
 10
90.1182
 20
-3.59999
 11
77.2182
 21
-3.59999
  0
LINE
  8
0
 10
7.94545
 20
-3.59999
 11
7.94545
 21
-0.399994
  0
LINE
  8
0
 10
7.94545
 20
-0.399994
 11
20.8454
 21
-0.399994
  0
LINE
  8
0
 10
20.8454
 20
-0.399994
 11
20.8454
 21
-3.59999
  0
LINE
  8
0
 10
20.8454
 20
-3.59999
 11
7.94545
 21
-3.59999
  0
ENDSEC
  0
SECTION
  2
OBJECTS
  0
DICTIONARY
  0
ENDSEC
  0
EOF
