%TF.GenerationSoftware,KiCad,Pcbnew,(6.0.4)*%
%TF.CreationDate,2023-06-02T21:13:09+02:00*%
%TF.ProjectId,Chrolis-LCR-Connector,4368726f-6c69-4732-9d4c-43522d436f6e,rev?*%
%TF.SameCoordinates,Original*%
%TF.FileFunction,Soldermask,Top*%
%TF.FilePolarity,Negative*%
%FSLAX46Y46*%
G04 Gerber Fmt 4.6, Leading zero omitted, Abs format (unit mm)*
G04 Created by KiCad (PCBNEW (6.0.4)) date 2023-06-02 21:13:09*
%MOMM*%
%LPD*%
G01*
G04 APERTURE LIST*
G04 Aperture macros list*
%AMRoundRect*
0 Rectangle with rounded corners*
0 $1 Rounding radius*
0 $2 $3 $4 $5 $6 $7 $8 $9 X,Y pos of 4 corners*
0 Add a 4 corners polygon primitive as box body*
4,1,4,$2,$3,$4,$5,$6,$7,$8,$9,$2,$3,0*
0 Add four circle primitives for the rounded corners*
1,1,$1+$1,$2,$3*
1,1,$1+$1,$4,$5*
1,1,$1+$1,$6,$7*
1,1,$1+$1,$8,$9*
0 Add four rect primitives between the rounded corners*
20,1,$1+$1,$2,$3,$4,$5,0*
20,1,$1+$1,$4,$5,$6,$7,0*
20,1,$1+$1,$6,$7,$8,$9,0*
20,1,$1+$1,$8,$9,$2,$3,0*%
G04 Aperture macros list end*
%TA.AperFunction,Profile*%
%ADD10C,0.100000*%
%TD*%
%ADD11C,2.050000*%
%ADD12C,2.250000*%
%ADD13C,3.000000*%
%ADD14RoundRect,0.250000X-0.725000X0.600000X-0.725000X-0.600000X0.725000X-0.600000X0.725000X0.600000X0*%
%ADD15O,1.950000X1.700000*%
%ADD16C,4.000000*%
%ADD17R,1.600000X1.600000*%
%ADD18C,1.600000*%
G04 APERTURE END LIST*
D10*
X76950000Y-126600000D02*
X52950000Y-126600000D01*
X169950000Y-50350000D02*
X169950000Y-150350000D01*
X52950000Y-126600000D02*
G75*
G03*
X49950000Y-129600000I0J-3000000D01*
G01*
X76950000Y-74100000D02*
X52950000Y-74100000D01*
X79950000Y-77100000D02*
G75*
G03*
X76950000Y-74100000I-3000000J0D01*
G01*
X169950000Y-150350000D02*
X52950000Y-150350000D01*
X79950000Y-77100000D02*
X79950000Y-123600000D01*
X49950000Y-129600000D02*
X49950000Y-147350000D01*
X52950000Y-50350000D02*
G75*
G03*
X49950000Y-53350000I0J-3000000D01*
G01*
X76950000Y-126600000D02*
G75*
G03*
X79950000Y-123600000I0J3000000D01*
G01*
X52950000Y-50350000D02*
X169950000Y-50350000D01*
X49950000Y-71100000D02*
G75*
G03*
X52950000Y-74100000I3000000J0D01*
G01*
X49950000Y-147350000D02*
G75*
G03*
X52950000Y-150350000I3000000J0D01*
G01*
X49950000Y-71100000D02*
X49950000Y-53350000D01*
D11*
%TO.C,J13*%
X159950000Y-125350000D03*
D12*
X162490000Y-127890000D03*
X162490000Y-122810000D03*
X157410000Y-127890000D03*
X157410000Y-122810000D03*
%TD*%
D11*
%TO.C,J16*%
X159950000Y-110350000D03*
D12*
X162490000Y-112890000D03*
X162490000Y-107810000D03*
X157410000Y-112890000D03*
X157410000Y-107810000D03*
%TD*%
D11*
%TO.C,J7*%
X159950000Y-90350000D03*
D12*
X162490000Y-92890000D03*
X162490000Y-87810000D03*
X157410000Y-92890000D03*
X157410000Y-87810000D03*
%TD*%
D11*
%TO.C,J10*%
X159950000Y-75350000D03*
D12*
X162490000Y-77890000D03*
X162490000Y-72810000D03*
X157410000Y-77890000D03*
X157410000Y-72810000D03*
%TD*%
D11*
%TO.C,J14*%
X139950000Y-125350000D03*
D12*
X142490000Y-127890000D03*
X142490000Y-122810000D03*
X137410000Y-127890000D03*
X137410000Y-122810000D03*
%TD*%
D11*
%TO.C,J17*%
X139950000Y-110350000D03*
D12*
X142490000Y-112890000D03*
X142490000Y-107810000D03*
X137410000Y-112890000D03*
X137410000Y-107810000D03*
%TD*%
D11*
%TO.C,J8*%
X139950000Y-90350000D03*
D12*
X142490000Y-92890000D03*
X142490000Y-87810000D03*
X137410000Y-92890000D03*
X137410000Y-87810000D03*
%TD*%
D11*
%TO.C,J11*%
X139950000Y-75350000D03*
D12*
X142490000Y-77890000D03*
X142490000Y-72810000D03*
X137410000Y-77890000D03*
X137410000Y-72810000D03*
%TD*%
D11*
%TO.C,J15*%
X119950000Y-125350000D03*
D12*
X122490000Y-127890000D03*
X122490000Y-122810000D03*
X117410000Y-127890000D03*
X117410000Y-122810000D03*
%TD*%
D11*
%TO.C,J18*%
X119950000Y-110350000D03*
D12*
X122490000Y-112890000D03*
X122490000Y-107810000D03*
X117410000Y-112890000D03*
X117410000Y-107810000D03*
%TD*%
D11*
%TO.C,J9*%
X119950000Y-90350000D03*
D12*
X122490000Y-92890000D03*
X122490000Y-87810000D03*
X117410000Y-92890000D03*
X117410000Y-87810000D03*
%TD*%
D11*
%TO.C,J12*%
X119950000Y-75350000D03*
D12*
X122490000Y-77890000D03*
X122490000Y-72810000D03*
X117410000Y-77890000D03*
X117410000Y-72810000D03*
%TD*%
D11*
%TO.C,J6*%
X99950000Y-140350000D03*
D12*
X102490000Y-142890000D03*
X102490000Y-137810000D03*
X97410000Y-142890000D03*
X97410000Y-137810000D03*
%TD*%
D11*
%TO.C,J5*%
X99950000Y-125350000D03*
D12*
X102490000Y-127890000D03*
X102490000Y-122810000D03*
X97410000Y-127890000D03*
X97410000Y-122810000D03*
%TD*%
D11*
%TO.C,J4*%
X99950000Y-110350000D03*
D12*
X102490000Y-112890000D03*
X102490000Y-107810000D03*
X97410000Y-112890000D03*
X97410000Y-107810000D03*
%TD*%
D11*
%TO.C,J3*%
X99950000Y-90350000D03*
D12*
X102490000Y-92890000D03*
X102490000Y-87810000D03*
X97410000Y-92890000D03*
X97410000Y-87810000D03*
%TD*%
D11*
%TO.C,J1*%
X99950000Y-60350000D03*
D12*
X102490000Y-62890000D03*
X102490000Y-57810000D03*
X97410000Y-62890000D03*
X97410000Y-57810000D03*
%TD*%
D11*
%TO.C,J2*%
X99950000Y-75350000D03*
D12*
X102490000Y-77890000D03*
X102490000Y-72810000D03*
X97410000Y-77890000D03*
X97410000Y-72810000D03*
%TD*%
D13*
%TO.C,H2*%
X149950000Y-70350000D03*
%TD*%
%TO.C,H3*%
X69950000Y-130350000D03*
%TD*%
D14*
%TO.C,J21*%
X89950000Y-94100000D03*
D15*
X89950000Y-96600000D03*
X89950000Y-99100000D03*
X89950000Y-101600000D03*
X89950000Y-104100000D03*
X89950000Y-106600000D03*
%TD*%
D13*
%TO.C,H4*%
X149950000Y-130350000D03*
%TD*%
%TO.C,H1*%
X69950000Y-70350000D03*
%TD*%
D16*
%TO.C,J19*%
X166280000Y-59870000D03*
X119180000Y-59870000D03*
D17*
X159350000Y-61290000D03*
D18*
X156580000Y-61290000D03*
X153810000Y-61290000D03*
X151040000Y-61290000D03*
X148270000Y-61290000D03*
X145500000Y-61290000D03*
X142730000Y-61290000D03*
X139960000Y-61290000D03*
X137190000Y-61290000D03*
X134420000Y-61290000D03*
X131650000Y-61290000D03*
X128880000Y-61290000D03*
X126110000Y-61290000D03*
X157965000Y-58450000D03*
X155195000Y-58450000D03*
X152425000Y-58450000D03*
X149655000Y-58450000D03*
X146885000Y-58450000D03*
X144115000Y-58450000D03*
X141345000Y-58450000D03*
X138575000Y-58450000D03*
X135805000Y-58450000D03*
X133035000Y-58450000D03*
X130265000Y-58450000D03*
X127495000Y-58450000D03*
%TD*%
D16*
%TO.C,J20*%
X166320000Y-140830000D03*
X119220000Y-140830000D03*
D17*
X126150000Y-139410000D03*
D18*
X128920000Y-139410000D03*
X131690000Y-139410000D03*
X134460000Y-139410000D03*
X137230000Y-139410000D03*
X140000000Y-139410000D03*
X142770000Y-139410000D03*
X145540000Y-139410000D03*
X148310000Y-139410000D03*
X151080000Y-139410000D03*
X153850000Y-139410000D03*
X156620000Y-139410000D03*
X159390000Y-139410000D03*
X127535000Y-142250000D03*
X130305000Y-142250000D03*
X133075000Y-142250000D03*
X135845000Y-142250000D03*
X138615000Y-142250000D03*
X141385000Y-142250000D03*
X144155000Y-142250000D03*
X146925000Y-142250000D03*
X149695000Y-142250000D03*
X152465000Y-142250000D03*
X155235000Y-142250000D03*
X158005000Y-142250000D03*
%TD*%
M02*
