%TF.GenerationSoftware,KiCad,Pcbnew,(6.0.4)*%
%TF.CreationDate,2023-06-02T21:13:09+02:00*%
%TF.ProjectId,Chrolis-LCR-Connector,4368726f-6c69-4732-9d4c-43522d436f6e,rev?*%
%TF.SameCoordinates,Original*%
%TF.FileFunction,Legend,Bot*%
%TF.FilePolarity,Positive*%
%FSLAX46Y46*%
G04 Gerber Fmt 4.6, Leading zero omitted, Abs format (unit mm)*
G04 Created by KiCad (PCBNEW (6.0.4)) date 2023-06-02 21:13:09*
%MOMM*%
%LPD*%
G01*
G04 APERTURE LIST*
%TA.AperFunction,Profile*%
%ADD10C,0.100000*%
%TD*%
%ADD11C,0.150000*%
%ADD12C,0.120000*%
G04 APERTURE END LIST*
D10*
X76950000Y-126600000D02*
X52950000Y-126600000D01*
X169950000Y-50350000D02*
X169950000Y-150350000D01*
X52950000Y-126600000D02*
G75*
G03*
X49950000Y-129600000I0J-3000000D01*
G01*
X76950000Y-74100000D02*
X52950000Y-74100000D01*
X79950000Y-77100000D02*
G75*
G03*
X76950000Y-74100000I-3000000J0D01*
G01*
X169950000Y-150350000D02*
X52950000Y-150350000D01*
X79950000Y-77100000D02*
X79950000Y-123600000D01*
X49950000Y-129600000D02*
X49950000Y-147350000D01*
X52950000Y-50350000D02*
G75*
G03*
X49950000Y-53350000I0J-3000000D01*
G01*
X76950000Y-126600000D02*
G75*
G03*
X79950000Y-123600000I0J3000000D01*
G01*
X52950000Y-50350000D02*
X169950000Y-50350000D01*
X49950000Y-71100000D02*
G75*
G03*
X52950000Y-74100000I3000000J0D01*
G01*
X49950000Y-147350000D02*
G75*
G03*
X52950000Y-150350000I3000000J0D01*
G01*
X49950000Y-71100000D02*
X49950000Y-53350000D01*
D11*
%TO.C,J19*%
X145341666Y-65466811D02*
X145389285Y-65514430D01*
X145532142Y-65562049D01*
X145627380Y-65562049D01*
X145770238Y-65514430D01*
X145865476Y-65419192D01*
X145913095Y-65323954D01*
X145960714Y-65133478D01*
X145960714Y-64990621D01*
X145913095Y-64800145D01*
X145865476Y-64704907D01*
X145770238Y-64609669D01*
X145627380Y-64562049D01*
X145532142Y-64562049D01*
X145389285Y-64609669D01*
X145341666Y-64657288D01*
X144913095Y-65562049D02*
X144913095Y-64562049D01*
X144484523Y-65562049D02*
X144484523Y-65038240D01*
X144532142Y-64943002D01*
X144627380Y-64895383D01*
X144770238Y-64895383D01*
X144865476Y-64943002D01*
X144913095Y-64990621D01*
X144008333Y-65562049D02*
X144008333Y-64895383D01*
X144008333Y-65085859D02*
X143960714Y-64990621D01*
X143913095Y-64943002D01*
X143817857Y-64895383D01*
X143722619Y-64895383D01*
X143246428Y-65562049D02*
X143341666Y-65514430D01*
X143389285Y-65466811D01*
X143436904Y-65371573D01*
X143436904Y-65085859D01*
X143389285Y-64990621D01*
X143341666Y-64943002D01*
X143246428Y-64895383D01*
X143103571Y-64895383D01*
X143008333Y-64943002D01*
X142960714Y-64990621D01*
X142913095Y-65085859D01*
X142913095Y-65371573D01*
X142960714Y-65466811D01*
X143008333Y-65514430D01*
X143103571Y-65562049D01*
X143246428Y-65562049D01*
X142341666Y-65562049D02*
X142436904Y-65514430D01*
X142484523Y-65419192D01*
X142484523Y-64562049D01*
X141960714Y-65562049D02*
X141960714Y-64895383D01*
X141960714Y-64562049D02*
X142008333Y-64609669D01*
X141960714Y-64657288D01*
X141913095Y-64609669D01*
X141960714Y-64562049D01*
X141960714Y-64657288D01*
X141532142Y-65514430D02*
X141436904Y-65562049D01*
X141246428Y-65562049D01*
X141151190Y-65514430D01*
X141103571Y-65419192D01*
X141103571Y-65371573D01*
X141151190Y-65276335D01*
X141246428Y-65228716D01*
X141389285Y-65228716D01*
X141484523Y-65181097D01*
X141532142Y-65085859D01*
X141532142Y-65038240D01*
X141484523Y-64943002D01*
X141389285Y-64895383D01*
X141246428Y-64895383D01*
X141151190Y-64943002D01*
X139389285Y-65562049D02*
X139960714Y-65562049D01*
X139675000Y-65562049D02*
X139675000Y-64562049D01*
X139770238Y-64704907D01*
X139865476Y-64800145D01*
X139960714Y-64847764D01*
%TO.C,J20*%
X145441666Y-135897473D02*
X145489285Y-135945092D01*
X145632142Y-135992711D01*
X145727380Y-135992711D01*
X145870238Y-135945092D01*
X145965476Y-135849854D01*
X146013095Y-135754616D01*
X146060714Y-135564140D01*
X146060714Y-135421283D01*
X146013095Y-135230807D01*
X145965476Y-135135569D01*
X145870238Y-135040331D01*
X145727380Y-134992711D01*
X145632142Y-134992711D01*
X145489285Y-135040331D01*
X145441666Y-135087950D01*
X145013095Y-135992711D02*
X145013095Y-134992711D01*
X144584523Y-135992711D02*
X144584523Y-135468902D01*
X144632142Y-135373664D01*
X144727380Y-135326045D01*
X144870238Y-135326045D01*
X144965476Y-135373664D01*
X145013095Y-135421283D01*
X144108333Y-135992711D02*
X144108333Y-135326045D01*
X144108333Y-135516521D02*
X144060714Y-135421283D01*
X144013095Y-135373664D01*
X143917857Y-135326045D01*
X143822619Y-135326045D01*
X143346428Y-135992711D02*
X143441666Y-135945092D01*
X143489285Y-135897473D01*
X143536904Y-135802235D01*
X143536904Y-135516521D01*
X143489285Y-135421283D01*
X143441666Y-135373664D01*
X143346428Y-135326045D01*
X143203571Y-135326045D01*
X143108333Y-135373664D01*
X143060714Y-135421283D01*
X143013095Y-135516521D01*
X143013095Y-135802235D01*
X143060714Y-135897473D01*
X143108333Y-135945092D01*
X143203571Y-135992711D01*
X143346428Y-135992711D01*
X142441666Y-135992711D02*
X142536904Y-135945092D01*
X142584523Y-135849854D01*
X142584523Y-134992711D01*
X142060714Y-135992711D02*
X142060714Y-135326045D01*
X142060714Y-134992711D02*
X142108333Y-135040331D01*
X142060714Y-135087950D01*
X142013095Y-135040331D01*
X142060714Y-134992711D01*
X142060714Y-135087950D01*
X141632142Y-135945092D02*
X141536904Y-135992711D01*
X141346428Y-135992711D01*
X141251190Y-135945092D01*
X141203571Y-135849854D01*
X141203571Y-135802235D01*
X141251190Y-135706997D01*
X141346428Y-135659378D01*
X141489285Y-135659378D01*
X141584523Y-135611759D01*
X141632142Y-135516521D01*
X141632142Y-135468902D01*
X141584523Y-135373664D01*
X141489285Y-135326045D01*
X141346428Y-135326045D01*
X141251190Y-135373664D01*
X140060714Y-135087950D02*
X140013095Y-135040331D01*
X139917857Y-134992711D01*
X139679761Y-134992711D01*
X139584523Y-135040331D01*
X139536904Y-135087950D01*
X139489285Y-135183188D01*
X139489285Y-135278426D01*
X139536904Y-135421283D01*
X140108333Y-135992711D01*
X139489285Y-135992711D01*
D12*
%TO.C,J19*%
X116120000Y-63150000D02*
X169340000Y-63150000D01*
X116120000Y-48610000D02*
X116120000Y-63150000D01*
X159600000Y-64044338D02*
X159350000Y-63611325D01*
X169340000Y-63150000D02*
X169340000Y-48610000D01*
X159100000Y-64044338D02*
X159600000Y-64044338D01*
X159350000Y-63611325D02*
X159100000Y-64044338D01*
%TO.C,J20*%
X169380000Y-137550000D02*
X116160000Y-137550000D01*
X116160000Y-137550000D02*
X116160000Y-152090000D01*
X169380000Y-152090000D02*
X169380000Y-137550000D01*
X125900000Y-136655662D02*
X126150000Y-137088675D01*
X126400000Y-136655662D02*
X125900000Y-136655662D01*
X126150000Y-137088675D02*
X126400000Y-136655662D01*
%TD*%
M02*
