M48
; DRILL file {KiCad (6.0.4)} date Fri Jun  2 21:13:11 2023
; FORMAT={-:-/ absolute / inch / decimal}
; #@! TF.CreationDate,2023-06-02T21:13:11+02:00
; #@! TF.GenerationSoftware,Kicad,Pcbnew,(6.0.4)
; #@! TF.FileFunction,Plated,1,2,PTH
FMAT,2
INCH
; #@! TA.AperFunction,Plated,PTH,ComponentDrill
T1C0.0374
; #@! TA.AperFunction,Plated,PTH,ComponentDrill
T2C0.0394
; #@! TA.AperFunction,Plated,PTH,ComponentDrill
T3C0.0591
; #@! TA.AperFunction,Plated,PTH,ComponentDrill
T4C0.0669
; #@! TA.AperFunction,Plated,PTH,ComponentDrill
T5C0.1260
%
G90
G05
T1
X3.5413Y-3.7047
X3.5413Y-3.8031
X3.5413Y-3.9016
X3.5413Y-4.0
X3.5413Y-4.0984
X3.5413Y-4.1969
T2
X4.965Y-2.413
X4.9665Y-5.4886
X5.0195Y-2.3012
X5.0211Y-5.6004
X5.074Y-2.413
X5.0756Y-5.4886
X5.1285Y-2.3012
X5.1301Y-5.6004
X5.1831Y-2.413
X5.1846Y-5.4886
X5.2376Y-2.3012
X5.2392Y-5.6004
X5.2921Y-2.413
X5.2937Y-5.4886
X5.3467Y-2.3012
X5.3482Y-5.6004
X5.4012Y-2.413
X5.4028Y-5.4886
X5.4557Y-2.3012
X5.4573Y-5.6004
X5.5102Y-2.413
X5.5118Y-5.4886
X5.5648Y-2.3012
X5.5663Y-5.6004
X5.6193Y-2.413
X5.6209Y-5.4886
X5.6738Y-2.3012
X5.6754Y-5.6004
X5.7283Y-2.413
X5.7299Y-5.4886
X5.7829Y-2.3012
X5.7844Y-5.6004
X5.8374Y-2.413
X5.839Y-5.4886
X5.8919Y-2.3012
X5.8935Y-5.6004
X5.9465Y-2.413
X5.948Y-5.4886
X6.001Y-2.3012
X6.0026Y-5.6004
X6.0555Y-2.413
X6.0571Y-5.4886
X6.11Y-2.3012
X6.1116Y-5.6004
X6.1646Y-2.413
X6.1661Y-5.4886
X6.2191Y-2.3012
X6.2207Y-5.6004
X6.2736Y-2.413
X6.2752Y-5.4886
T3
X3.935Y-2.376
X3.935Y-2.9665
X3.935Y-3.5571
X3.935Y-4.3445
X3.935Y-4.935
X3.935Y-5.5256
X4.7224Y-2.9665
X4.7224Y-3.5571
X4.7224Y-4.3445
X4.7224Y-4.935
X5.5098Y-2.9665
X5.5098Y-3.5571
X5.5098Y-4.3445
X5.5098Y-4.935
X6.2972Y-2.9665
X6.2972Y-3.5571
X6.2972Y-4.3445
X6.2972Y-4.935
T4
X3.835Y-2.276
X3.835Y-2.476
X3.835Y-2.8665
X3.835Y-3.0665
X3.835Y-3.4571
X3.835Y-3.6571
X3.835Y-4.2445
X3.835Y-4.4445
X3.835Y-4.835
X3.835Y-5.035
X3.835Y-5.4256
X3.835Y-5.6256
X4.035Y-2.276
X4.035Y-2.476
X4.035Y-2.8665
X4.035Y-3.0665
X4.035Y-3.4571
X4.035Y-3.6571
X4.035Y-4.2445
X4.035Y-4.4445
X4.035Y-4.835
X4.035Y-5.035
X4.035Y-5.4256
X4.035Y-5.6256
X4.6224Y-2.8665
X4.6224Y-3.0665
X4.6224Y-3.4571
X4.6224Y-3.6571
X4.6224Y-4.2445
X4.6224Y-4.4445
X4.6224Y-4.835
X4.6224Y-5.035
X4.8224Y-2.8665
X4.8224Y-3.0665
X4.8224Y-3.4571
X4.8224Y-3.6571
X4.8224Y-4.2445
X4.8224Y-4.4445
X4.8224Y-4.835
X4.8224Y-5.035
X5.4098Y-2.8665
X5.4098Y-3.0665
X5.4098Y-3.4571
X5.4098Y-3.6571
X5.4098Y-4.2445
X5.4098Y-4.4445
X5.4098Y-4.835
X5.4098Y-5.035
X5.6098Y-2.8665
X5.6098Y-3.0665
X5.6098Y-3.4571
X5.6098Y-3.6571
X5.6098Y-4.2445
X5.6098Y-4.4445
X5.6098Y-4.835
X5.6098Y-5.035
X6.1972Y-2.8665
X6.1972Y-3.0665
X6.1972Y-3.4571
X6.1972Y-3.6571
X6.1972Y-4.2445
X6.1972Y-4.4445
X6.1972Y-4.835
X6.1972Y-5.035
X6.3972Y-2.8665
X6.3972Y-3.0665
X6.3972Y-3.4571
X6.3972Y-3.6571
X6.3972Y-4.2445
X6.3972Y-4.4445
X6.3972Y-4.835
X6.3972Y-5.035
T5
X4.6921Y-2.3571
X4.6937Y-5.5445
X6.5465Y-2.3571
X6.548Y-5.5445
T0
M30
